<svg width="170" height="58" viewBox="0 0 170 58" fill="none" xmlns="http://www.w3.org/2000/svg">
<rect x="28" y="27" width="10" height="8" rx="1" fill="url(#paint0_linear_27_78)"/>
<rect x="28" y="11" width="10" height="8" rx="1" fill="url(#paint1_linear_27_78)"/>
<rect x="8" y="27" width="14" height="8" rx="1" fill="url(#paint2_linear_27_78)"/>
<rect x="8" y="11" width="14" height="8" rx="1" fill="url(#paint3_linear_27_78)"/>
<g filter="url(#filter0_d_27_78)">
<rect x="12" y="15" width="22" height="16" rx="2" fill="url(#paint4_linear_27_78)"/>
</g>
<path d="M20.375 18C16.875 18 20.375 22.8125 16.875 22.8125C20.375 22.8125 16.875 27.625 20.375 27.625" stroke="#F3F0FF" stroke-linecap="round" stroke-linejoin="round"/>
<path d="M25.625 18C29.125 18 25.625 22.8125 29.125 22.8125C25.625 22.8125 29.125 27.625 25.625 27.625" stroke="#F3F0FF" stroke-linecap="round" stroke-linejoin="round"/>
<path d="M44.24 14.232H52.56C54.5867 14.232 56.1867 14.3707 57.36 14.648C58.5547 14.9253 59.4187 15.416 59.952 16.12C60.5067 16.8027 60.784 17.7627 60.784 19V22.936C60.784 24.3013 60.4853 25.368 59.888 26.136C59.312 26.904 58.384 27.448 57.104 27.768C55.8453 28.088 54.1387 28.248 51.984 28.248H49.232V35H44.24V14.232ZM52.4 24.824C53.7013 24.824 54.6187 24.6747 55.152 24.376C55.6853 24.056 55.952 23.5227 55.952 22.776V19.448C55.952 18.7653 55.696 18.3173 55.184 18.104C54.6933 17.8907 53.744 17.784 52.336 17.784H49.232V24.824H52.4ZM71.8545 35.32C70.8945 35.32 70.1052 35.288 69.4865 35.224C68.8678 35.16 68.2065 35.032 67.5025 34.84C66.7345 34.6267 66.1158 34.328 65.6465 33.944C65.1772 33.5387 64.7825 32.9733 64.4625 32.248C64.1425 31.544 63.9825 30.6907 63.9825 29.688V25.112C63.9825 24.088 64.1425 23.192 64.4625 22.424C64.7825 21.656 65.1985 21.0587 65.7105 20.632C66.1585 20.2693 66.7452 19.9707 67.4705 19.736C68.2172 19.48 68.9425 19.32 69.6465 19.256C70.4572 19.2133 71.1932 19.192 71.8545 19.192C72.8358 19.192 73.6145 19.224 74.1905 19.288C74.7878 19.3307 75.4385 19.4587 76.1425 19.672C76.9105 19.9067 77.5292 20.2267 77.9985 20.632C78.4892 21.0373 78.9052 21.6133 79.2465 22.36C79.5665 23.128 79.7265 24.0453 79.7265 25.112V29.688C79.7265 30.648 79.5665 31.4907 79.2465 32.216C78.9478 32.9413 78.5532 33.5067 78.0625 33.912C77.6358 34.2747 77.0492 34.5733 76.3025 34.808C75.5772 35.0213 74.8625 35.16 74.1585 35.224C73.5185 35.288 72.7505 35.32 71.8545 35.32ZM71.8545 32.408C72.7292 32.408 73.3905 32.344 73.8385 32.216C74.2865 32.0667 74.5958 31.8427 74.7665 31.544C74.9585 31.2453 75.0545 30.808 75.0545 30.232V24.376C75.0545 23.5227 74.8305 22.9253 74.3825 22.584C73.9345 22.2427 73.0918 22.072 71.8545 22.072C70.6172 22.072 69.7745 22.2427 69.3265 22.584C68.8785 22.9253 68.6545 23.5227 68.6545 24.376V30.232C68.6545 30.808 68.7398 31.2453 68.9105 31.544C69.1025 31.8427 69.4225 32.0667 69.8705 32.216C70.3185 32.344 70.9798 32.408 71.8545 32.408ZM83.688 19.512H88.136V22.232C88.136 21.7413 88.3387 21.2613 88.744 20.792C89.1493 20.3227 89.6613 19.9387 90.28 19.64C90.92 19.3413 91.5493 19.192 92.168 19.192H93.832V23.064H92.232C90.9093 23.064 89.928 23.2667 89.288 23.672C88.6693 24.0773 88.36 24.7493 88.36 25.688V35H83.688V19.512ZM104.471 35.32C103.681 35.32 103.02 35.288 102.487 35.224C101.953 35.16 101.42 35.032 100.887 34.84C100.289 34.648 99.7987 34.3813 99.4147 34.04C99.0521 33.6987 98.7534 33.2293 98.5187 32.632C98.2627 32.0133 98.1347 31.2987 98.1347 30.488V22.392H94.9987V19.512H98.1347V15.032H102.807V19.512H107.063V22.392H102.807V29.688C102.807 30.4347 102.871 31 102.999 31.384C103.127 31.7467 103.372 32.0133 103.735 32.184C104.097 32.3333 104.652 32.408 105.399 32.408C105.697 32.408 106.252 32.3547 107.063 32.248V35.16C106.06 35.2667 105.196 35.32 104.471 35.32ZM117.502 35.32C116.542 35.32 115.753 35.288 115.134 35.224C114.515 35.16 113.854 35.032 113.15 34.84C112.382 34.6267 111.763 34.328 111.294 33.944C110.825 33.5387 110.43 32.9733 110.11 32.248C109.79 31.544 109.63 30.6907 109.63 29.688V25.112C109.63 24.088 109.79 23.192 110.11 22.424C110.43 21.656 110.846 21.0587 111.358 20.632C111.806 20.2693 112.393 19.9707 113.118 19.736C113.865 19.48 114.59 19.32 115.294 19.256C116.105 19.2133 116.841 19.192 117.502 19.192C118.483 19.192 119.262 19.224 119.838 19.288C120.435 19.3307 121.086 19.4587 121.79 19.672C122.558 19.9067 123.177 20.2267 123.646 20.632C124.137 21.0373 124.553 21.6133 124.894 22.36C125.214 23.128 125.374 24.0453 125.374 25.112V29.688C125.374 30.648 125.214 31.4907 124.894 32.216C124.595 32.9413 124.201 33.5067 123.71 33.912C123.283 34.2747 122.697 34.5733 121.95 34.808C121.225 35.0213 120.51 35.16 119.806 35.224C119.166 35.288 118.398 35.32 117.502 35.32ZM117.502 32.408C118.377 32.408 119.038 32.344 119.486 32.216C119.934 32.0667 120.243 31.8427 120.414 31.544C120.606 31.2453 120.702 30.808 120.702 30.232V24.376C120.702 23.5227 120.478 22.9253 120.03 22.584C119.582 22.2427 118.739 22.072 117.502 22.072C116.265 22.072 115.422 22.2427 114.974 22.584C114.526 22.9253 114.302 23.5227 114.302 24.376V30.232C114.302 30.808 114.387 31.2453 114.558 31.544C114.75 31.8427 115.07 32.0667 115.518 32.216C115.966 32.344 116.627 32.408 117.502 32.408ZM139.415 35.32C138.221 35.32 137.165 35.2667 136.247 35.16C135.33 35.0533 134.423 34.872 133.527 34.616C132.567 34.36 131.778 34.0187 131.159 33.592C130.541 33.144 130.039 32.568 129.655 31.864C129.271 31.1173 129.079 30.264 129.079 29.304V20.664C129.079 19.6187 129.293 18.68 129.719 17.848C130.146 16.9947 130.722 16.3227 131.447 15.832C132.13 15.384 132.941 15 133.879 14.68C134.839 14.36 135.778 14.1467 136.695 14.04C137.463 13.9547 138.391 13.912 139.479 13.912C142.423 13.912 145.24 14.136 147.927 14.584V18.36C145.453 17.7627 142.637 17.464 139.479 17.464C135.874 17.464 134.071 18.5093 134.071 20.6V28.952C134.071 29.976 134.551 30.7013 135.511 31.128C136.493 31.5547 137.965 31.768 139.927 31.768C140.973 31.768 142.093 31.608 143.287 31.288V26.456H139.895V23.192H148.056V33.976C146.989 34.36 145.623 34.68 143.959 34.936C142.317 35.192 140.802 35.32 139.415 35.32ZM159.13 35.32C157.146 35.32 154.693 35.128 151.77 34.744V30.936C155.397 31.4907 157.871 31.768 159.194 31.768C161.967 31.768 163.354 31.0533 163.354 29.624V28.28C163.354 27.5973 163.151 27.0747 162.746 26.712C162.362 26.3493 161.658 26.168 160.634 26.168H158.202C153.637 26.168 151.354 24.3547 151.354 20.728V19.192C151.354 17.3787 152.111 16.0453 153.626 15.192C155.141 14.3387 157.541 13.912 160.826 13.912C162.533 13.912 164.698 14.0507 167.322 14.328V18.04C164.101 17.656 161.882 17.464 160.666 17.464C158.981 17.464 157.85 17.6027 157.274 17.88C156.655 18.1787 156.346 18.648 156.346 19.288V20.76C156.346 21.848 157.263 22.392 159.098 22.392H161.594C163.962 22.392 165.679 22.8293 166.746 23.704C167.813 24.5787 168.346 25.912 168.346 27.704V29.08C168.346 31.5547 167.461 33.2293 165.69 34.104C164.837 34.552 163.887 34.8613 162.842 35.032C161.818 35.224 160.581 35.32 159.13 35.32Z" fill="#3B5BDB"/>
<path d="M8.536 54V42.72H12.008C13.7787 42.72 15.1387 43.2 16.088 44.16C17.048 45.1093 17.528 46.5067 17.528 48.352C17.528 50.1867 17.048 51.5893 16.088 52.56C15.1387 53.52 13.7787 54 12.008 54H8.536ZM9.208 53.376H11.944C15.1867 53.376 16.808 51.7013 16.808 48.352C16.808 45.0133 15.1867 43.344 11.944 43.344H9.208V53.376ZM23.1698 54.128C22.0178 54.128 21.1058 53.776 20.4338 53.072C19.7724 52.3573 19.4418 51.3867 19.4418 50.16C19.4418 49.3493 19.5911 48.6453 19.8898 48.048C20.1991 47.44 20.6204 46.9707 21.1538 46.64C21.6978 46.2987 22.3218 46.128 23.0258 46.128C24.0284 46.128 24.8071 46.4587 25.3618 47.12C25.9164 47.7707 26.1938 48.6773 26.1938 49.84V50.256H20.1298C20.1511 51.2907 20.4231 52.0907 20.9457 52.656C21.4684 53.2213 22.1991 53.504 23.1378 53.504C23.6178 53.504 24.0658 53.4293 24.4818 53.28C24.9084 53.12 25.3298 52.8587 25.7458 52.496L26.0658 53.04C25.7351 53.3707 25.3084 53.6373 24.7858 53.84C24.2631 54.032 23.7244 54.128 23.1698 54.128ZM23.0098 46.736C22.1458 46.736 21.4684 47.0133 20.9778 47.568C20.4978 48.1227 20.2204 48.8213 20.1458 49.664H25.5698C25.5378 48.7573 25.3084 48.0427 24.8818 47.52C24.4551 46.9973 23.8311 46.736 23.0098 46.736ZM30.7448 54.128C30.1901 54.128 29.6568 54.0427 29.1448 53.872C28.6328 53.6907 28.2114 53.4347 27.8808 53.104L28.2008 52.56C28.5848 52.8907 28.9954 53.1307 29.4328 53.28C29.8808 53.4293 30.3341 53.504 30.7928 53.504C31.4861 53.504 32.0141 53.3707 32.3768 53.104C32.7501 52.8373 32.9368 52.4747 32.9368 52.016C32.9368 51.6533 32.8141 51.3707 32.5688 51.168C32.3341 50.9547 31.9501 50.784 31.4168 50.656L30.0888 50.336C29.4168 50.176 28.9208 49.9307 28.6008 49.6C28.2914 49.2693 28.1368 48.8427 28.1368 48.32C28.1368 47.6587 28.3874 47.1307 28.8888 46.736C29.4008 46.3307 30.0781 46.128 30.9208 46.128C31.4541 46.128 31.9448 46.2187 32.3928 46.4C32.8514 46.5813 33.2194 46.8373 33.4968 47.168L33.1768 47.712C32.5581 47.072 31.8008 46.752 30.9048 46.752C30.2541 46.752 29.7474 46.896 29.3848 47.184C29.0221 47.4613 28.8408 47.8347 28.8408 48.304C28.8408 48.6667 28.9528 48.96 29.1768 49.184C29.4008 49.408 29.7581 49.5787 30.2488 49.696L31.5768 50.016C32.2701 50.1867 32.7874 50.4267 33.1288 50.736C33.4701 51.0453 33.6408 51.4613 33.6408 51.984C33.6408 52.6347 33.3794 53.1573 32.8568 53.552C32.3341 53.936 31.6301 54.128 30.7448 54.128ZM39.1385 54.128C37.9865 54.128 37.0745 53.776 36.4025 53.072C35.7412 52.3573 35.4105 51.3867 35.4105 50.16C35.4105 49.3493 35.5598 48.6453 35.8585 48.048C36.1678 47.44 36.5892 46.9707 37.1225 46.64C37.6665 46.2987 38.2905 46.128 38.9945 46.128C39.9972 46.128 40.7758 46.4587 41.3305 47.12C41.8852 47.7707 42.1625 48.6773 42.1625 49.84V50.256H36.0985C36.1198 51.2907 36.3918 52.0907 36.9145 52.656C37.4372 53.2213 38.1678 53.504 39.1065 53.504C39.5865 53.504 40.0345 53.4293 40.4505 53.28C40.8772 53.12 41.2985 52.8587 41.7145 52.496L42.0345 53.04C41.7038 53.3707 41.2772 53.6373 40.7545 53.84C40.2318 54.032 39.6932 54.128 39.1385 54.128ZM38.9785 46.736C38.1145 46.736 37.4372 47.0133 36.9465 47.568C36.4665 48.1227 36.1892 48.8213 36.1145 49.664H41.5385C41.5065 48.7573 41.2772 48.0427 40.8505 47.52C40.4238 46.9973 39.7998 46.736 38.9785 46.736ZM44.2975 54V46.256H44.9535V47.696C45.2095 47.1733 45.5775 46.784 46.0575 46.528C46.5482 46.2613 47.0922 46.128 47.6895 46.128C49.5348 46.128 50.4575 47.1093 50.4575 49.072V54H49.7855V49.136C49.7855 48.3147 49.6202 47.712 49.2895 47.328C48.9588 46.944 48.4255 46.752 47.6895 46.752C46.8682 46.752 46.2068 47.008 45.7055 47.52C45.2148 48.0213 44.9695 48.6987 44.9695 49.552V54H44.2975ZM55.3511 54L52.0551 46.256H52.8231L55.7351 53.296L58.6631 46.256H59.4151L56.1191 54H55.3511ZM63.9915 54.128C63.2875 54.128 62.6742 53.9627 62.1515 53.632C61.6395 53.3013 61.2395 52.8373 60.9515 52.24C60.6742 51.6427 60.5355 50.9387 60.5355 50.128C60.5355 49.3173 60.6742 48.6133 60.9515 48.016C61.2395 47.4187 61.6395 46.9547 62.1515 46.624C62.6742 46.2933 63.2875 46.128 63.9915 46.128C64.6955 46.128 65.3035 46.2933 65.8155 46.624C66.3382 46.9547 66.7382 47.4187 67.0155 48.016C67.3035 48.6133 67.4475 49.3173 67.4475 50.128C67.4475 50.9387 67.3035 51.6427 67.0155 52.24C66.7382 52.8373 66.3382 53.3013 65.8155 53.632C65.3035 53.9627 64.6955 54.128 63.9915 54.128ZM63.9915 53.504C64.8448 53.504 65.5168 53.2107 66.0075 52.624C66.5088 52.0267 66.7595 51.1947 66.7595 50.128C66.7595 49.0613 66.5088 48.2347 66.0075 47.648C65.5168 47.0507 64.8448 46.752 63.9915 46.752C63.1488 46.752 62.4768 47.0507 61.9755 47.648C61.4742 48.2347 61.2235 49.0613 61.2235 50.128C61.2235 51.1947 61.4742 52.0267 61.9755 52.624C62.4768 53.2107 63.1488 53.504 63.9915 53.504ZM71.7689 54.128C71.0969 54.128 70.5742 53.9147 70.2009 53.488C69.8382 53.0507 69.6569 52.4427 69.6569 51.664V42.72H70.3289V51.552C70.3289 52.8533 70.8302 53.504 71.8329 53.504C72.0995 53.504 72.3502 53.472 72.5849 53.408L72.5369 54.032C72.2489 54.096 71.9929 54.128 71.7689 54.128ZM76.1949 54L72.8989 46.256H73.6669L76.5789 53.296L79.5069 46.256H80.2589L76.9629 54H76.1949ZM81.7934 44.096V43.088H82.8174V44.096H81.7934ZM81.9694 54V46.256H82.6414V54H81.9694ZM85.392 54V46.256H86.048V47.664C86.2827 47.1627 86.608 46.784 87.024 46.528C87.4507 46.2613 87.9467 46.128 88.512 46.128C89.76 46.128 90.544 46.672 90.864 47.76C91.088 47.2587 91.4293 46.864 91.888 46.576C92.3467 46.2773 92.8853 46.128 93.504 46.128C95.2 46.128 96.048 47.1093 96.048 49.072V54H95.376V49.136C95.376 48.3147 95.2267 47.712 94.928 47.328C94.64 46.944 94.1547 46.752 93.472 46.752C92.736 46.752 92.1493 47.008 91.712 47.52C91.2747 48.0213 91.056 48.6987 91.056 49.552V54H90.384V49.136C90.384 48.3147 90.2347 47.712 89.936 47.328C89.648 46.944 89.1627 46.752 88.48 46.752C87.744 46.752 87.1573 47.008 86.72 47.52C86.2827 48.0213 86.064 48.6987 86.064 49.552V54H85.392ZM101.982 54.128C100.83 54.128 99.9183 53.776 99.2463 53.072C98.5849 52.3573 98.2543 51.3867 98.2543 50.16C98.2543 49.3493 98.4036 48.6453 98.7023 48.048C99.0116 47.44 99.4329 46.9707 99.9663 46.64C100.51 46.2987 101.134 46.128 101.838 46.128C102.841 46.128 103.62 46.4587 104.174 47.12C104.729 47.7707 105.006 48.6773 105.006 49.84V50.256H98.9423C98.9636 51.2907 99.2356 52.0907 99.7582 52.656C100.281 53.2213 101.012 53.504 101.95 53.504C102.43 53.504 102.878 53.4293 103.294 53.28C103.721 53.12 104.142 52.8587 104.558 52.496L104.878 53.04C104.548 53.3707 104.121 53.6373 103.598 53.84C103.076 54.032 102.537 54.128 101.982 54.128ZM101.822 46.736C100.958 46.736 100.281 47.0133 99.7903 47.568C99.3103 48.1227 99.0329 48.8213 98.9583 49.664H104.382C104.35 48.7573 104.121 48.0427 103.694 47.52C103.268 46.9973 102.644 46.736 101.822 46.736ZM107.141 54V46.256H107.797V47.696C108.053 47.1733 108.421 46.784 108.901 46.528C109.392 46.2613 109.936 46.128 110.533 46.128C112.379 46.128 113.301 47.1093 113.301 49.072V54H112.629V49.136C112.629 48.3147 112.464 47.712 112.133 47.328C111.803 46.944 111.269 46.752 110.533 46.752C109.712 46.752 109.051 47.008 108.549 47.52C108.059 48.0213 107.813 48.6987 107.813 49.552V54H107.141ZM118.705 54.128C117.894 54.128 117.286 53.8987 116.881 53.44C116.476 52.9813 116.273 52.336 116.273 51.504V46.832H114.721V46.256H116.273V43.84H116.945V46.256H119.489V46.832H116.945V51.36C116.945 52.0533 117.084 52.5867 117.361 52.96C117.638 53.3227 118.102 53.504 118.753 53.504C118.945 53.504 119.126 53.4827 119.297 53.44C119.478 53.3867 119.628 53.3387 119.745 53.296L119.905 53.856C119.809 53.92 119.638 53.9787 119.393 54.032C119.148 54.096 118.918 54.128 118.705 54.128ZM123.976 54.128C123.272 54.128 122.659 53.9627 122.136 53.632C121.624 53.3013 121.224 52.8373 120.936 52.24C120.659 51.6427 120.52 50.9387 120.52 50.128C120.52 49.3173 120.659 48.6133 120.936 48.016C121.224 47.4187 121.624 46.9547 122.136 46.624C122.659 46.2933 123.272 46.128 123.976 46.128C124.68 46.128 125.288 46.2933 125.8 46.624C126.323 46.9547 126.723 47.4187 127 48.016C127.288 48.6133 127.432 49.3173 127.432 50.128C127.432 50.9387 127.288 51.6427 127 52.24C126.723 52.8373 126.323 53.3013 125.8 53.632C125.288 53.9627 124.68 54.128 123.976 54.128ZM123.976 53.504C124.829 53.504 125.501 53.2107 125.992 52.624C126.493 52.0267 126.744 51.1947 126.744 50.128C126.744 49.0613 126.493 48.2347 125.992 47.648C125.501 47.0507 124.829 46.752 123.976 46.752C123.133 46.752 122.461 47.0507 121.96 47.648C121.459 48.2347 121.208 49.0613 121.208 50.128C121.208 51.1947 121.459 52.0267 121.96 52.624C122.461 53.2107 123.133 53.504 123.976 53.504ZM136.731 54L132.827 42.72H133.531L137.067 52.992L140.619 42.72H141.243L144.811 53.04L148.379 42.72H149.067L145.163 54H144.475L140.939 43.728L137.387 54H136.731ZM151.208 54V42.72H157.992V43.344H151.88V47.968H157.672V48.592H151.88V53.376H157.992V54H151.208ZM160.333 54V42.72H164.461C165.602 42.72 166.488 42.976 167.117 43.488C167.746 44 168.061 44.7307 168.061 45.68C168.061 46.3093 167.89 46.8427 167.549 47.28C167.218 47.7173 166.765 48.0373 166.189 48.24C166.85 48.3893 167.368 48.6987 167.741 49.168C168.125 49.6373 168.317 50.2293 168.317 50.944C168.317 51.9467 168.002 52.7093 167.373 53.232C166.744 53.744 165.842 54 164.669 54H160.333ZM161.005 47.984H164.413C165.373 47.984 166.104 47.7867 166.605 47.392C167.106 46.9867 167.357 46.4107 167.357 45.664C167.357 44.9067 167.106 44.3307 166.605 43.936C166.104 43.5413 165.373 43.344 164.413 43.344H161.005V47.984ZM161.005 53.376H164.653C165.634 53.376 166.37 53.184 166.861 52.8C167.362 52.4053 167.613 51.8027 167.613 50.992C167.613 50.1707 167.362 49.568 166.861 49.184C166.37 48.8 165.634 48.608 164.653 48.608H161.005V53.376Z" fill="url(#paint5_linear_27_78)"/>
<defs>
<filter id="filter0_d_27_78" x="0" y="3" width="46" height="40" filterUnits="userSpaceOnUse" color-interpolation-filters="sRGB">
<feFlood flood-opacity="0" result="BackgroundImageFix"/>
<feColorMatrix in="SourceAlpha" type="matrix" values="0 0 0 0 0 0 0 0 0 0 0 0 0 0 0 0 0 0 127 0" result="hardAlpha"/>
<feOffset/>
<feGaussianBlur stdDeviation="6"/>
<feComposite in2="hardAlpha" operator="out"/>
<feColorMatrix type="matrix" values="0 0 0 0 0.372549 0 0 0 0 0.239216 0 0 0 0 0.768627 0 0 0 0.5 0"/>
<feBlend mode="normal" in2="BackgroundImageFix" result="effect1_dropShadow_27_78"/>
<feBlend mode="normal" in="SourceGraphic" in2="effect1_dropShadow_27_78" result="shape"/>
</filter>
<linearGradient id="paint0_linear_27_78" x1="28" y1="27" x2="37.5" y2="35" gradientUnits="userSpaceOnUse">
<stop stop-color="#5F3DC4"/>
<stop offset="1" stop-color="#5C7CFA"/>
</linearGradient>
<linearGradient id="paint1_linear_27_78" x1="28" y1="11" x2="37.5" y2="19" gradientUnits="userSpaceOnUse">
<stop stop-color="#5F3DC4"/>
<stop offset="1" stop-color="#5C7CFA"/>
</linearGradient>
<linearGradient id="paint2_linear_27_78" x1="8" y1="27" x2="17.5115" y2="38.2135" gradientUnits="userSpaceOnUse">
<stop stop-color="#5F3DC4"/>
<stop offset="1" stop-color="#5C7CFA"/>
</linearGradient>
<linearGradient id="paint3_linear_27_78" x1="8" y1="11" x2="17.5115" y2="22.2135" gradientUnits="userSpaceOnUse">
<stop stop-color="#5F3DC4"/>
<stop offset="1" stop-color="#5C7CFA"/>
</linearGradient>
<linearGradient id="paint4_linear_27_78" x1="12" y1="15" x2="34" y2="31" gradientUnits="userSpaceOnUse">
<stop stop-color="#845EF7"/>
<stop offset="1" stop-color="#364FC7"/>
</linearGradient>
<linearGradient id="paint5_linear_27_78" x1="7" y1="40" x2="13.9252" y2="82.2476" gradientUnits="userSpaceOnUse">
<stop stop-color="#5F3DC4"/>
<stop offset="1" stop-color="#5C7CFA"/>
</linearGradient>
</defs>
</svg>
