<svg width="72" height="60" viewBox="0 0 72 60" fill="none" xmlns="http://www.w3.org/2000/svg">
<rect width="72" height="60" rx="8" fill="url(#paint0_linear_111_907)"/>
<path d="M24.2625 31.5874C23.1417 29.6991 22.7488 27.4666 23.1577 25.3091C23.5666 23.1517 24.7491 21.2177 26.4831 19.8704C28.2171 18.5232 30.3833 17.8554 32.5749 17.9924C34.7665 18.1294 36.8327 19.0618 38.3854 20.6145C39.9381 22.1672 40.8705 24.2334 41.0075 26.425C41.1445 28.6166 40.4767 30.7828 39.1294 32.5168C37.7822 34.2508 35.8482 35.4333 33.6908 35.8422C31.5333 36.2511 29.3008 35.8582 27.4125 34.7374L24.3 35.6249C24.1717 35.661 24.0362 35.6622 23.9073 35.6285C23.7784 35.5948 23.6608 35.5274 23.5667 35.4332C23.4725 35.339 23.405 35.2215 23.3714 35.0926C23.3377 34.9637 23.3389 34.8282 23.375 34.6999L24.2625 31.5874Z" stroke="#F8F9FA" stroke-width="2" stroke-linecap="round" stroke-linejoin="round"/>
<path d="M31.5125 35.9875C31.9531 37.2436 32.6671 38.3861 33.6031 39.3325C34.5391 40.279 35.6736 41.0057 36.9247 41.4602C38.1757 41.9147 39.5122 42.0857 40.8374 41.9607C42.1626 41.8357 43.4435 41.4179 44.5875 40.7375V40.7375L47.7 41.625C47.8283 41.6611 47.9638 41.6623 48.0927 41.6286C48.2216 41.5949 48.3391 41.5275 48.4333 41.4333C48.5275 41.3391 48.5949 41.2216 48.6286 41.0927C48.6623 40.9638 48.6611 40.8283 48.625 40.7L47.7375 37.5875C48.5298 36.2575 48.9652 34.7454 49.0014 33.1977C49.0376 31.6501 48.6734 30.1193 47.9441 28.7537C47.2148 27.3881 46.1451 26.2341 44.8387 25.4035C43.5323 24.5728 42.0335 24.0937 40.4875 24.0125" stroke="#F8F9FA" stroke-width="2" stroke-linecap="round" stroke-linejoin="round"/>
<defs>
<linearGradient id="paint0_linear_111_907" x1="0" y1="0" x2="78.4703" y2="49.8059" gradientUnits="userSpaceOnUse">
<stop stop-color="#845EF7"/>
<stop offset="1" stop-color="#364FC7"/>
</linearGradient>
</defs>
</svg>
