<svg width="56" height="56" viewBox="0 0 56 56" fill="none" xmlns="http://www.w3.org/2000/svg">
<g filter="url(#filter0_d_111_978)">
<circle cx="28" cy="26" r="16" fill="url(#paint0_linear_111_978)"/>
</g>
<g clip-path="url(#clip0_111_978)">
<path fill-rule="evenodd" clip-rule="evenodd" d="M36.1473 17.5625C36.1325 17.5632 36.1178 17.5651 36.1034 17.5681C34.5509 17.5755 33.1204 17.8966 31.8222 18.4395C31.8146 18.4419 31.8071 18.4448 31.7997 18.4479C31.7884 18.4535 31.7749 18.4563 31.7626 18.4614C31.7385 18.4717 31.7159 18.4853 31.6956 18.5019C31.5893 18.5525 31.4723 18.6127 31.3474 18.6808C31.34 18.6838 31.3327 18.6872 31.3255 18.6909C31.312 18.6976 31.2996 18.7061 31.2861 18.7128C31.2316 18.7426 31.2006 18.7584 31.1489 18.7876C29.3179 19.7512 27.7739 21.1085 26.5291 22.6318C26.2931 22.5294 26.0442 22.46 25.7894 22.4253V22.4259C24.841 22.3095 23.8088 22.6526 22.8498 23.3236C21.5706 24.2191 20.3866 25.7047 19.5856 27.5801C19.5613 27.6373 19.5566 27.701 19.5724 27.7612C19.5881 27.8214 19.6234 27.8747 19.6726 27.9127C19.7219 27.9507 19.7824 27.9713 19.8446 27.9712C19.9068 27.9712 19.9672 27.9506 20.0164 27.9125C21.1769 27.0125 22.0797 26.5271 22.7108 26.4129C23.0269 26.3566 23.2677 26.3853 23.4691 26.481C23.6429 26.5636 23.7953 26.7048 23.9348 26.9152C23.8988 26.9996 23.8544 27.084 23.8195 27.1683C23.7984 27.2197 23.7931 27.2762 23.8041 27.3307C23.8151 27.3852 23.842 27.4351 23.8814 27.4743L24.4855 28.0785C23.9607 28.8693 23.4207 29.7693 22.8363 30.7785C22.8357 30.7785 22.834 30.7779 22.8329 30.7835C22.8307 30.7874 22.8287 30.7913 22.8267 30.7953C22.8255 30.7979 22.8244 30.8006 22.8233 30.8032C22.8225 30.8051 22.8218 30.8069 22.8211 30.8088C22.8178 30.816 22.8148 30.8233 22.8121 30.8308C22.8113 30.8326 22.8105 30.8345 22.8098 30.8364C22.8077 30.8433 22.8058 30.8502 22.8042 30.8572C22.8019 30.8663 22.8 30.8755 22.7986 30.8848C22.7978 30.8902 22.7973 30.8956 22.7969 30.9011C22.7964 30.9048 22.7961 30.9086 22.7958 30.9123C22.7957 30.9144 22.7957 30.9165 22.7958 30.9185C22.7957 30.9279 22.796 30.9373 22.7969 30.9466C22.7973 30.9542 22.7981 30.9617 22.7991 30.9691C22.7995 30.971 22.7999 30.9729 22.8003 30.9748C22.802 30.9841 22.8043 30.9933 22.807 31.0023C22.8094 31.0107 22.8122 31.019 22.8154 31.0271C22.8181 31.0343 22.8211 31.0415 22.8244 31.0485C22.828 31.0561 22.832 31.0636 22.8363 31.071C22.8366 31.071 22.837 31.071 22.8374 31.071C22.8385 31.0728 22.8396 31.0747 22.8408 31.0766C22.845 31.0828 22.8495 31.0888 22.8543 31.0946C22.8552 31.0965 22.8561 31.0983 22.8571 31.1002C22.8621 31.106 22.8673 31.1117 22.8728 31.1171C22.8773 31.1217 22.882 31.1262 22.8869 31.1306C22.8887 31.1329 22.8906 31.1351 22.8925 31.1373C22.894 31.1392 22.8955 31.1411 22.897 31.143C22.9026 31.1475 22.9085 31.1518 22.9144 31.1559C22.9159 31.1578 22.9174 31.1597 22.9189 31.1615C22.9253 31.1661 22.9319 31.1704 22.9386 31.1745C22.9468 31.1794 22.9553 31.1839 22.9639 31.188C22.9682 31.1899 22.9725 31.1918 22.9769 31.1936C22.981 31.1956 22.9851 31.1974 22.9893 31.1992C22.9911 31.1992 22.993 31.1992 22.9949 31.1992C23.0021 31.2012 23.0094 31.2029 23.0168 31.2043C23.0233 31.2064 23.0299 31.2083 23.0365 31.2099C23.0408 31.21 23.0451 31.21 23.0494 31.2099C23.0571 31.2102 23.0648 31.2102 23.0725 31.2099C23.074 31.2099 23.0755 31.2099 23.077 31.2099C23.0959 31.2099 23.1147 31.208 23.1333 31.2043C23.1422 31.2024 23.151 31.2002 23.1597 31.1975C23.1688 31.1948 23.1779 31.1916 23.1867 31.188C23.1973 31.1833 23.2076 31.1781 23.2176 31.1722C23.2244 31.1666 23.2289 31.1655 23.2351 31.161C24.2386 30.5788 25.1358 30.0399 25.9238 29.5168L26.5071 30.1001C26.5464 30.1396 26.5964 30.1665 26.651 30.1776C26.7056 30.1886 26.7622 30.1831 26.8137 30.162C26.8958 30.1282 26.9791 30.0838 27.0618 30.0483C27.514 30.3448 27.6749 30.6907 27.5748 31.2802C27.4662 31.9175 26.9881 32.8248 26.0886 33.9847C26.0506 34.0339 26.0299 34.0944 26.0299 34.1566C26.0299 34.2188 26.0505 34.2792 26.0885 34.3285C26.1265 34.3778 26.1797 34.413 26.2399 34.4288C26.3001 34.4445 26.3638 34.4399 26.4211 34.4156C28.2964 33.6146 29.782 32.43 30.6775 31.1514C31.5319 29.9308 31.8436 28.5943 31.3638 27.4603C32.8786 26.2357 34.2325 24.722 35.1972 22.9282C35.2366 22.8596 35.2602 22.8146 35.3024 22.7403C35.3913 22.5862 35.4683 22.4416 35.5324 22.3072C35.5419 22.293 35.5499 22.2779 35.5566 22.2622C35.5566 22.2616 35.5566 22.26 35.5578 22.2594C35.5623 22.2481 35.5718 22.2341 35.5763 22.224C35.5852 22.2029 35.5914 22.1808 35.5949 22.1581C36.156 20.7892 36.4423 19.3232 36.4375 17.8438C36.4375 17.8067 36.4302 17.7701 36.416 17.7359C36.4018 17.7017 36.381 17.6706 36.3547 17.6445C36.3285 17.6184 36.2974 17.5977 36.2631 17.5836C36.2289 17.5695 36.1922 17.5624 36.1551 17.5625C36.1548 17.5625 36.1544 17.5625 36.154 17.5625C36.1518 17.5625 36.1495 17.5625 36.1473 17.5625ZM35.8441 18.1571C35.813 19.3271 35.5897 20.484 35.1831 21.5816L32.4364 18.836C33.5268 18.4223 34.6784 18.1929 35.8441 18.1571V18.1571ZM31.8256 19.0711L34.9519 22.2043C34.9272 22.2521 34.8974 22.3061 34.8698 22.3578C34.8694 22.3582 34.8691 22.3586 34.8687 22.359C34.859 22.3723 34.8506 22.3864 34.8434 22.4011C34.795 22.4956 34.741 22.5868 34.6909 22.6801C34.6369 22.7741 34.5751 22.8787 34.5379 22.9524C34.5325 22.9633 34.5278 22.9746 34.5239 22.9861C32.7228 26.1069 29.6436 28.3378 26.7614 29.5595L26.3941 29.1916C26.8654 28.8609 27.3053 28.5335 27.6693 28.205C28.7262 27.2538 29.3253 26.2419 29.1919 25.0882C29.1899 25.0675 29.1855 25.0472 29.179 25.0275L29.1734 25.0145C29.152 24.9526 29.1096 24.9 29.0536 24.866L29.0316 24.8531C28.9972 24.832 28.9586 24.8186 28.9186 24.8137V24.8081C27.7643 24.6748 26.7513 25.2744 25.7995 26.3308C25.4704 26.6958 25.1419 27.1357 24.8106 27.6082L24.4219 27.2195C25.6426 24.3423 27.8684 21.3116 30.9863 19.515C30.9987 19.5106 31.0107 19.5053 31.0223 19.4992C31.2304 19.394 31.5843 19.1955 31.8256 19.0711V19.0711ZM31.1146 21.4966C30.7579 21.4966 30.4002 21.6316 30.1302 21.9016C29.8705 22.1632 29.7248 22.5168 29.725 22.8854C29.7253 23.254 29.8713 23.6075 30.1313 23.8687C30.3925 24.1283 30.7458 24.274 31.114 24.274C31.4822 24.274 31.8355 24.1283 32.0967 23.8687C32.3565 23.6075 32.5025 23.2541 32.5027 22.8857C32.5029 22.5173 32.3573 22.1637 32.0978 21.9022C31.9687 21.7733 31.8153 21.6712 31.6466 21.6017C31.4778 21.5322 31.297 21.4967 31.1146 21.4972V21.4966ZM31.1146 22.0558C31.3261 22.0558 31.5376 22.1368 31.7001 22.2999C31.7774 22.3766 31.8388 22.4679 31.8806 22.5684C31.9224 22.669 31.9439 22.7768 31.9438 22.8857C31.9437 22.9946 31.922 23.1024 31.88 23.2029C31.838 23.3033 31.7765 23.3945 31.699 23.471C31.6225 23.5484 31.5314 23.6098 31.431 23.6517C31.3305 23.6936 31.2228 23.7152 31.114 23.7152C31.0052 23.7152 30.8975 23.6936 30.7971 23.6517C30.6966 23.6098 30.6055 23.5484 30.529 23.471C30.4515 23.3945 30.39 23.3033 30.348 23.2029C30.306 23.1024 30.2843 22.9946 30.2842 22.8857C30.2841 22.7768 30.3056 22.669 30.3474 22.5684C30.3892 22.4679 30.4506 22.3766 30.5279 22.2999C30.691 22.1368 30.9031 22.0558 31.1146 22.0558V22.0558ZM25.2162 22.9856C25.5233 22.9884 25.8113 23.0716 26.0959 23.1611C26.0043 23.2865 25.9148 23.4187 25.8248 23.5481L25.8051 23.5773C25.5858 23.8929 25.3703 24.2186 25.1633 24.5578C24.9889 24.8396 24.8298 25.1225 24.6739 25.4077L24.5918 25.5596C24.4416 25.8409 24.2989 26.1262 24.1638 26.4151C24.0198 26.256 23.8983 26.0608 23.7109 25.9725C23.3881 25.8195 23.0134 25.7868 22.6113 25.8594C22.0645 25.9578 21.4154 26.306 20.7049 26.7667C21.4165 25.5056 22.2552 24.4256 23.1715 23.7843C23.7576 23.3737 24.3449 23.1127 24.9018 23.012C25.0086 22.9923 25.1138 22.9839 25.2162 22.9856V22.9856ZM28.5811 25.4201C28.5738 26.2351 28.1817 26.9816 27.2929 27.782C26.4942 28.5003 25.2927 29.2642 23.9123 30.0883C24.7353 28.7068 25.4986 27.5041 26.2169 26.7065C27.0184 25.8172 27.7654 25.4268 28.5811 25.4201ZM30.8401 27.8996C31.1157 28.7731 30.9441 29.7896 30.2168 30.8285C29.5744 31.7465 28.4916 32.5863 27.2277 33.2979C27.6889 32.5824 28.0354 31.9271 28.1294 31.3741C28.2385 30.7363 27.982 30.2227 27.5596 29.8211C27.8586 29.6818 28.1538 29.5346 28.4449 29.3795L28.4877 29.3565C28.7487 29.2164 29.0097 29.0808 29.269 28.9256C29.8097 28.6103 30.334 28.2679 30.8401 27.8996V27.8996ZM23.3999 29.2665L21.2061 31.4613L21.4722 31.7285L22.6354 30.5647C22.8868 30.1298 23.1418 29.697 23.4004 29.2665H23.3999ZM24.7128 30.6187C24.301 30.8673 23.8662 31.1216 23.4145 31.3843L22.0049 32.7939L22.2715 33.06L24.7128 30.6187ZM22.5663 31.1671L20.9389 32.7939L21.2061 33.06L22.8329 31.4326C22.8261 31.4326 22.8188 31.427 22.8121 31.4242C22.81 31.4224 22.8079 31.4205 22.8059 31.4186L22.7794 31.4017L22.7828 31.4073C22.7596 31.393 22.7376 31.3768 22.717 31.359C22.7147 31.3569 22.7125 31.3549 22.7103 31.3528C22.7056 31.3488 22.7011 31.3447 22.6968 31.3404C22.6956 31.3404 22.6945 31.3404 22.6934 31.3404C22.693 31.3404 22.6926 31.3404 22.6923 31.3404C22.6913 31.3385 22.6904 31.3367 22.6894 31.3348C22.6855 31.3291 22.681 31.3291 22.6771 31.3235C22.6755 31.3217 22.674 31.3198 22.6726 31.3179C22.6681 31.3123 22.663 31.31 22.6585 31.3044C22.6501 31.2953 22.642 31.2859 22.6343 31.2763C22.6335 31.2744 22.6328 31.2725 22.6321 31.2706C22.6219 31.2577 22.6146 31.2442 22.6056 31.2307C22.5924 31.214 22.581 31.1959 22.5719 31.1767C22.5702 31.1711 22.5679 31.17 22.5663 31.1671V31.1671ZM20.9389 31.7285L20.6723 31.994L20.9389 32.2612L21.205 31.994L20.9389 31.7285ZM20.6723 33.06L20.4063 33.3266L20.6723 33.5926L20.9389 33.3266L20.6723 33.06ZM21.7377 33.06L21.4722 33.3266L21.7377 33.5926L22.0049 33.3266L21.7377 33.06Z" fill="#BAC8FF"/>
</g>
<defs>
<filter id="filter0_d_111_978" x="0" y="0" width="56" height="56" filterUnits="userSpaceOnUse" color-interpolation-filters="sRGB">
<feFlood flood-opacity="0" result="BackgroundImageFix"/>
<feColorMatrix in="SourceAlpha" type="matrix" values="0 0 0 0 0 0 0 0 0 0 0 0 0 0 0 0 0 0 127 0" result="hardAlpha"/>
<feOffset dy="2"/>
<feGaussianBlur stdDeviation="6"/>
<feComposite in2="hardAlpha" operator="out"/>
<feColorMatrix type="matrix" values="0 0 0 0 0.129412 0 0 0 0 0.145098 0 0 0 0 0.160784 0 0 0 0.25 0"/>
<feBlend mode="normal" in2="BackgroundImageFix" result="effect1_dropShadow_111_978"/>
<feBlend mode="normal" in="SourceGraphic" in2="effect1_dropShadow_111_978" result="shape"/>
</filter>
<linearGradient id="paint0_linear_111_978" x1="12" y1="10" x2="50.2302" y2="30.221" gradientUnits="userSpaceOnUse">
<stop stop-color="#845EF7"/>
<stop offset="1" stop-color="#364FC7"/>
</linearGradient>
<clipPath id="clip0_111_978">
<rect width="18" height="18" fill="white" transform="translate(19 17)"/>
</clipPath>
</defs>
</svg>
