<svg width="45" height="45" viewBox="0 0 45 45" fill="none" xmlns="http://www.w3.org/2000/svg">
<circle cx="22.5" cy="22.5" r="22.5" fill="url(#paint0_linear_111_743)"/>
<path opacity="0.2" d="M15.2375 20.925L11.3125 25.625C11.2136 25.7404 11.1439 25.8778 11.1091 26.0257C11.0743 26.1736 11.0754 26.3277 11.1125 26.475L12.65 33.4375C12.6871 33.603 12.7657 33.7563 12.8784 33.8831C12.991 34.0099 13.1341 34.1059 13.2941 34.1622C13.4541 34.2184 13.6258 34.233 13.793 34.2047C13.9602 34.1763 14.1175 34.1059 14.25 34L18 31C15.8 27.175 15.0875 23.8125 15.2375 20.925Z" fill="white"/>
<path opacity="0.2" d="M28.6875 20.8375L32.6125 25.55C32.7114 25.6654 32.7811 25.8028 32.8159 25.9507C32.8507 26.0986 32.8496 26.2526 32.8125 26.4L31.275 33.35C31.2396 33.5165 31.1622 33.6713 31.0502 33.7996C30.9382 33.9278 30.7953 34.0254 30.6351 34.083C30.4748 34.1406 30.3025 34.1563 30.1345 34.1286C29.9665 34.101 29.8083 34.0309 29.675 33.925L25.925 30.925C28.125 27.0875 28.8375 23.725 28.6875 20.8375Z" fill="white"/>
<path d="M24 35H20" stroke="white" stroke-width="2" stroke-linecap="round" stroke-linejoin="round"/>
<path d="M21.375 9.47501C19 11.375 11.0625 18.975 18 31H26C32.8 18.975 24.975 11.3875 22.625 9.47501C22.4496 9.32856 22.2284 9.24834 22 9.24834C21.7715 9.24834 21.5503 9.32856 21.375 9.47501Z" stroke="white" stroke-width="2" stroke-linecap="round" stroke-linejoin="round"/>
<path d="M15.2375 20.925L11.3125 25.625C11.2136 25.7404 11.1439 25.8778 11.1091 26.0257C11.0743 26.1736 11.0754 26.3277 11.1125 26.475L12.65 33.4375C12.6871 33.603 12.7657 33.7563 12.8784 33.8831C12.991 34.0099 13.1341 34.1059 13.2941 34.1622C13.4541 34.2184 13.6258 34.233 13.793 34.2047C13.9602 34.1763 14.1175 34.1059 14.25 34L18 31" stroke="white" stroke-width="2" stroke-linecap="round" stroke-linejoin="round"/>
<path d="M28.6875 20.825L32.6875 25.625C32.7864 25.7404 32.8561 25.8778 32.8909 26.0257C32.9257 26.1736 32.9246 26.3276 32.8875 26.475L31.35 33.4375C31.3129 33.603 31.2343 33.7563 31.1216 33.8831C31.009 34.0099 30.8659 34.1059 30.7059 34.1621C30.5459 34.2184 30.3742 34.233 30.207 34.2047C30.0398 34.1763 29.8825 34.1059 29.75 34L26 31" stroke="white" stroke-width="2" stroke-linecap="round" stroke-linejoin="round"/>
<path d="M22 20.5C22.8284 20.5 23.5 19.8284 23.5 19C23.5 18.1716 22.8284 17.5 22 17.5C21.1716 17.5 20.5 18.1716 20.5 19C20.5 19.8284 21.1716 20.5 22 20.5Z" fill="white"/>
<defs>
<linearGradient id="paint0_linear_111_743" x1="0" y1="0" x2="53.7613" y2="28.4357" gradientUnits="userSpaceOnUse">
<stop stop-color="#845EF7"/>
<stop offset="1" stop-color="#364FC7"/>
</linearGradient>
</defs>
</svg>
