<svg width="297" height="354" viewBox="0 0 297 354" fill="none" xmlns="http://www.w3.org/2000/svg">
<g opacity="0.1">
<circle r="176.5" transform="matrix(-1 0 0 1 177 177)" stroke="#F8F9FA" stroke-dasharray="4 4"/>
<path fill-rule="evenodd" clip-rule="evenodd" d="M87.4276 84.2187C87.5907 84.2267 87.7529 84.2475 87.9127 84.2809C105.076 84.3618 120.891 87.9127 135.244 93.9138C135.328 93.9413 135.411 93.9724 135.492 94.007C135.617 94.0692 135.766 94.1003 135.903 94.1563C136.169 94.2703 136.418 94.421 136.643 94.604C137.818 95.1637 139.112 95.8291 140.492 96.5816C140.575 96.6154 140.656 96.6528 140.735 96.6935C140.884 96.7682 141.021 96.8614 141.17 96.9361C141.773 97.2657 142.115 97.4398 142.687 97.7632C162.929 108.416 180 123.422 193.762 140.262C196.371 139.131 199.122 138.363 201.94 137.98V137.986C212.424 136.699 223.836 140.492 234.439 147.911C248.58 157.811 261.671 174.235 270.526 194.968C270.795 195.602 270.846 196.306 270.672 196.971C270.498 197.636 270.108 198.225 269.564 198.645C269.019 199.065 268.351 199.293 267.663 199.293C266.975 199.293 266.307 199.064 265.763 198.644C252.933 188.694 242.952 183.327 235.975 182.065C232.48 181.443 229.818 181.76 227.592 182.817C225.67 183.731 223.985 185.292 222.443 187.618C222.841 188.551 223.332 189.483 223.718 190.416C223.951 190.985 224.01 191.609 223.888 192.211C223.766 192.814 223.469 193.366 223.034 193.799L216.355 200.478C222.157 209.222 228.127 219.172 234.588 230.328C234.594 230.328 234.613 230.322 234.625 230.384C234.649 230.427 234.672 230.471 234.694 230.515C234.707 230.544 234.719 230.573 234.731 230.602C234.74 230.623 234.748 230.643 234.756 230.664C234.793 230.743 234.826 230.824 234.856 230.907C234.864 230.927 234.872 230.948 234.88 230.969C234.904 231.045 234.925 231.121 234.943 231.199C234.968 231.299 234.989 231.401 235.005 231.504C235.013 231.564 235.019 231.624 235.023 231.684C235.028 231.725 235.033 231.767 235.036 231.808C235.036 231.831 235.036 231.854 235.036 231.877C235.037 231.981 235.033 232.084 235.023 232.188C235.018 232.271 235.01 232.354 234.999 232.436C234.995 232.457 234.99 232.478 234.986 232.499C234.966 232.601 234.941 232.703 234.911 232.803C234.885 232.896 234.854 232.987 234.818 233.077C234.788 233.157 234.755 233.236 234.719 233.313C234.679 233.398 234.635 233.481 234.588 233.562C234.584 233.562 234.58 233.562 234.576 233.562C234.563 233.583 234.551 233.604 234.538 233.624C234.491 233.692 234.441 233.759 234.389 233.823C234.379 233.844 234.369 233.865 234.358 233.885C234.303 233.95 234.244 234.012 234.184 234.072C234.134 234.123 234.082 234.173 234.028 234.221C234.008 234.246 233.987 234.271 233.966 234.296C233.95 234.317 233.933 234.337 233.916 234.358C233.854 234.408 233.79 234.456 233.724 234.501C233.707 234.522 233.691 234.543 233.674 234.563C233.603 234.614 233.531 234.662 233.456 234.706C233.366 234.761 233.272 234.811 233.176 234.855C233.129 234.877 233.082 234.898 233.033 234.918C232.988 234.94 232.943 234.96 232.897 234.98C232.876 234.98 232.855 234.98 232.834 234.98C232.754 235.002 232.673 235.02 232.592 235.036C232.52 235.059 232.448 235.08 232.374 235.098C232.327 235.099 232.279 235.099 232.231 235.098C232.146 235.102 232.061 235.102 231.976 235.098C231.96 235.098 231.943 235.098 231.926 235.098C231.718 235.098 231.509 235.077 231.305 235.036C231.206 235.016 231.108 234.991 231.012 234.961C230.911 234.931 230.811 234.896 230.714 234.855C230.596 234.805 230.482 234.746 230.372 234.681C230.297 234.619 230.247 234.607 230.179 234.557C219.085 228.121 209.166 222.163 200.453 216.38L194.005 222.828C193.571 223.265 193.017 223.563 192.414 223.685C191.81 223.807 191.185 223.747 190.615 223.512C189.707 223.139 188.787 222.648 187.873 222.256C182.873 225.534 181.094 229.358 182.201 235.875C183.402 242.921 188.688 252.952 198.631 265.775C199.052 266.319 199.28 266.988 199.28 267.675C199.281 268.363 199.053 269.031 198.633 269.576C198.213 270.12 197.624 270.51 196.959 270.684C196.293 270.859 195.589 270.807 194.956 270.539C174.223 261.683 157.799 248.587 147.899 234.451C138.452 220.957 135.007 206.181 140.312 193.644C123.565 180.106 108.596 163.371 97.9311 143.539C97.4958 142.781 97.2346 142.283 96.7682 141.462C95.7856 139.758 94.9336 138.16 94.2247 136.674C94.1207 136.517 94.0311 136.35 93.9573 136.176C93.9573 136.17 93.9573 136.152 93.9449 136.145C93.8951 136.021 93.7894 135.865 93.7396 135.754C93.6419 135.52 93.573 135.276 93.5344 135.026C87.3307 119.892 84.1654 103.684 84.2187 87.3281C84.2187 86.9187 84.2996 86.5134 84.4566 86.1353C84.6136 85.7573 84.8438 85.4139 85.1339 85.125C85.4239 84.8361 85.7681 84.6074 86.1468 84.4518C86.5255 84.2963 86.9312 84.2171 87.3405 84.2187C87.3447 84.2187 87.3488 84.2187 87.353 84.2187C87.3779 84.2184 87.4027 84.2184 87.4276 84.2187ZM90.7795 90.7919C91.1232 103.727 93.5919 116.518 98.0865 128.652L128.453 98.298C116.398 93.7245 103.667 91.1879 90.7795 90.7919ZM135.206 100.897L100.642 135.536C100.916 136.064 101.246 136.661 101.55 137.234C101.555 137.238 101.559 137.242 101.563 137.246C101.67 137.393 101.763 137.549 101.843 137.712C102.377 138.757 102.974 139.765 103.528 140.797C104.125 141.835 104.809 142.992 105.219 143.807C105.279 143.928 105.331 144.052 105.375 144.18C125.287 178.682 159.329 203.345 191.194 216.852L195.255 212.785C190.043 209.129 185.18 205.509 181.157 201.877C169.472 191.362 162.849 180.174 164.322 167.419C164.345 167.191 164.393 166.966 164.465 166.748L164.528 166.605C164.764 165.92 165.233 165.339 165.852 164.963L166.095 164.82C166.475 164.587 166.902 164.438 167.345 164.385V164.322C180.106 162.849 191.306 169.478 201.828 181.157C205.466 185.193 209.097 190.056 212.76 195.279L217.057 190.982C203.563 159.173 178.955 125.667 144.485 105.804C144.348 105.755 144.215 105.697 144.087 105.63C141.786 104.467 137.874 102.272 135.206 100.897ZM143.067 127.713C147.009 127.713 150.965 129.205 153.95 132.19C156.821 135.081 158.431 138.992 158.429 143.066C158.426 147.141 156.812 151.049 153.937 153.937C151.05 156.807 147.144 158.418 143.073 158.418C139.002 158.418 135.096 156.807 132.209 153.937C129.336 151.049 127.723 147.143 127.72 143.069C127.718 138.996 129.327 135.087 132.196 132.196C133.624 130.771 135.32 129.642 137.185 128.874C139.051 128.105 141.049 127.713 143.067 127.719V127.713ZM143.067 133.894C140.729 133.894 138.39 134.79 136.593 136.593C135.738 137.441 135.06 138.45 134.598 139.562C134.135 140.673 133.898 141.865 133.899 143.069C133.9 144.273 134.14 145.465 134.605 146.576C135.069 147.687 135.749 148.694 136.605 149.54C137.452 150.396 138.459 151.074 139.569 151.538C140.679 152.001 141.87 152.24 143.073 152.24C144.276 152.24 145.467 152.001 146.577 151.538C147.687 151.074 148.694 150.396 149.54 149.54C150.397 148.694 151.077 147.687 151.541 146.576C152.006 145.465 152.246 144.273 152.247 143.069C152.248 141.865 152.011 140.673 151.548 139.562C151.086 138.45 150.408 137.441 149.553 136.593C147.749 134.79 145.405 133.894 143.067 133.894ZM208.277 144.174C204.881 144.205 201.697 145.125 198.55 146.114C199.564 147.501 200.553 148.962 201.548 150.392L201.766 150.716C204.191 154.205 206.573 157.805 208.861 161.555C210.789 164.671 212.549 167.799 214.271 170.952L215.179 172.631C216.84 175.741 218.418 178.895 219.912 182.089C221.504 180.33 222.847 178.172 224.918 177.195C228.488 175.504 232.629 175.143 237.076 175.945C243.12 177.034 250.297 180.883 258.151 185.976C250.284 172.034 241.012 160.094 230.882 153.004C224.402 148.465 217.909 145.579 211.753 144.466C210.571 144.248 209.408 144.155 208.277 144.174ZM171.076 171.088C171.157 180.099 175.491 188.352 185.317 197.201C194.148 205.142 207.431 213.587 222.692 222.698C213.594 207.425 205.155 194.129 197.213 185.311C188.352 175.479 180.093 171.163 171.076 171.088ZM146.102 198.501C143.054 208.158 144.951 219.396 152.992 230.882C160.094 241.031 172.065 250.315 186.038 258.182C180.939 250.272 177.108 243.027 176.07 236.914C174.863 229.862 177.699 224.184 182.369 219.744C179.064 218.204 175.8 216.576 172.581 214.862L172.108 214.607C169.223 213.059 166.337 211.56 163.47 209.844C157.493 206.358 151.696 202.572 146.102 198.501ZM228.357 213.612L252.61 237.878L249.669 240.832L236.808 227.965C234.03 223.157 231.21 218.373 228.351 213.612H228.357ZM213.842 228.562C218.394 231.311 223.202 234.122 228.195 237.026L243.779 252.61L240.832 255.551L213.842 228.562ZM237.573 234.625L255.564 252.61L252.61 255.551L234.625 237.561C234.7 237.561 234.781 237.498 234.856 237.467C234.879 237.447 234.901 237.426 234.924 237.405L235.216 237.219L235.179 237.281C235.436 237.123 235.679 236.944 235.906 236.746C235.932 236.724 235.957 236.701 235.981 236.678C236.032 236.634 236.082 236.588 236.13 236.541C236.143 236.541 236.155 236.541 236.168 236.541C236.172 236.541 236.176 236.541 236.18 236.541C236.191 236.52 236.201 236.499 236.211 236.479C236.255 236.416 236.304 236.416 236.348 236.354C236.365 236.334 236.381 236.313 236.398 236.292C236.448 236.23 236.503 236.205 236.553 236.143C236.646 236.042 236.735 235.939 236.821 235.832C236.829 235.811 236.837 235.79 236.846 235.77C236.957 235.627 237.038 235.477 237.138 235.328C237.284 235.144 237.41 234.944 237.511 234.731C237.53 234.669 237.554 234.657 237.573 234.625ZM255.564 240.832L258.512 243.767L255.564 246.721L252.622 243.767L255.564 240.832ZM258.512 255.551L261.453 258.499L258.512 261.441L255.564 258.499L258.512 255.551ZM246.733 255.551L249.669 258.499L246.733 261.441L243.779 258.499L246.733 255.551Z" fill="#F8F9FA"/>
</g>
</svg>
