<svg width="295" height="354" viewBox="0 0 295 354" fill="none" xmlns="http://www.w3.org/2000/svg">
<circle opacity="0.8" cx="118" cy="177" r="176.5" stroke="url(#paint0_linear_111_2244)" stroke-dasharray="4 4"/>
<g opacity="0.1">
<path fill-rule="evenodd" clip-rule="evenodd" d="M207.572 84.2187C207.409 84.2267 207.247 84.2475 207.087 84.2809C189.924 84.3618 174.109 87.9127 159.756 93.9138C159.672 93.9413 159.589 93.9724 159.508 94.007C159.383 94.0692 159.234 94.1003 159.097 94.1563C158.831 94.2703 158.582 94.421 158.357 94.604C157.182 95.1637 155.888 95.8291 154.508 96.5816C154.425 96.6154 154.344 96.6528 154.265 96.6935C154.116 96.7682 153.979 96.8614 153.83 96.9361C153.227 97.2657 152.885 97.4398 152.313 97.7632C132.071 108.416 115 123.422 101.238 140.262C98.6294 139.131 95.8778 138.363 93.0603 137.98V137.986C82.5755 136.699 71.1641 140.492 60.5611 147.911C46.4197 157.811 33.3292 174.235 24.4737 194.968C24.205 195.602 24.1537 196.306 24.3279 196.971C24.5021 197.636 24.892 198.225 25.4365 198.645C25.981 199.065 26.6494 199.293 27.3372 199.293C28.0249 199.293 28.6931 199.064 29.2373 198.644C42.0666 188.694 52.0477 183.327 59.0251 182.065C62.52 181.443 65.1817 181.76 67.408 182.817C69.3296 183.731 71.0149 185.292 72.5571 187.618C72.1591 188.551 71.6678 189.483 71.2823 190.416C71.0494 190.985 70.9901 191.609 71.1118 192.211C71.2335 192.814 71.5309 193.366 71.9663 193.799L78.6453 200.478C72.8432 209.222 66.8732 219.172 60.4119 230.328C60.4057 230.328 60.387 230.322 60.3746 230.384C60.3507 230.427 60.3279 230.471 60.3062 230.515C60.2933 230.544 60.2808 230.573 60.2689 230.602C60.2603 230.623 60.252 230.643 60.244 230.664C60.2074 230.743 60.1742 230.824 60.1445 230.907C60.136 230.927 60.1277 230.948 60.1196 230.969C60.0959 231.045 60.0752 231.121 60.0574 231.199C60.0316 231.299 60.0109 231.401 59.9952 231.504C59.9873 231.564 59.981 231.624 59.9766 231.684C59.9716 231.725 59.9674 231.767 59.9641 231.808C59.9639 231.831 59.9639 231.854 59.9641 231.877C59.9631 231.981 59.9672 232.084 59.9766 232.188C59.9815 232.271 59.9898 232.354 60.0014 232.436C60.0054 232.457 60.0095 232.478 60.0139 232.499C60.0336 232.601 60.0585 232.703 60.0885 232.803C60.1153 232.896 60.1465 232.987 60.1818 233.077C60.2117 233.157 60.2449 233.236 60.2813 233.313C60.321 233.398 60.3646 233.481 60.4119 233.562C60.416 233.562 60.4202 233.562 60.4243 233.562C60.4365 233.583 60.449 233.604 60.4616 233.624C60.5087 233.692 60.5585 233.759 60.6109 233.823C60.621 233.844 60.6314 233.865 60.642 233.885C60.6974 233.95 60.7555 234.012 60.8161 234.072C60.8662 234.123 60.918 234.173 60.9716 234.221C60.9919 234.246 61.0126 234.271 61.0338 234.296C61.0501 234.317 61.0667 234.337 61.0835 234.358C61.1459 234.408 61.2102 234.456 61.2763 234.501C61.2926 234.522 61.3092 234.543 61.326 234.563C61.3966 234.614 61.4692 234.662 61.5437 234.706C61.6344 234.761 61.7278 234.811 61.8235 234.855C61.8707 234.877 61.9184 234.898 61.9666 234.918C62.0117 234.94 62.0573 234.96 62.1034 234.98C62.1241 234.98 62.1448 234.98 62.1656 234.98C62.2456 235.002 62.3265 235.02 62.4081 235.036C62.4799 235.059 62.5525 235.08 62.6258 235.098C62.6734 235.099 62.7211 235.099 62.7688 235.098C62.8537 235.102 62.9388 235.102 63.0238 235.098C63.0403 235.098 63.0569 235.098 63.0735 235.098C63.2824 235.098 63.4907 235.077 63.6954 235.036C63.794 235.016 63.8915 234.991 63.9877 234.961C64.0889 234.931 64.1885 234.896 64.2862 234.855C64.4037 234.805 64.5179 234.746 64.6282 234.681C64.7028 234.619 64.7526 234.607 64.821 234.557C75.9152 228.121 85.8341 222.163 94.5466 216.38L100.995 222.828C101.429 223.265 101.983 223.563 102.586 223.685C103.19 223.807 103.815 223.747 104.385 223.512C105.293 223.139 106.213 222.648 107.127 222.256C112.127 225.534 113.906 229.358 112.799 235.875C111.598 242.921 106.312 252.952 96.3687 265.775C95.9481 266.319 95.7199 266.988 95.7196 267.675C95.7193 268.363 95.947 269.031 96.3671 269.576C96.7873 270.12 97.376 270.51 98.0413 270.684C98.7066 270.859 99.4109 270.807 100.044 270.539C120.777 261.683 137.201 248.587 147.101 234.451C156.548 220.957 159.993 206.181 154.688 193.644C171.435 180.106 186.404 163.371 197.069 143.539C197.504 142.781 197.765 142.283 198.232 141.462C199.214 139.758 200.066 138.16 200.775 136.674C200.879 136.517 200.969 136.35 201.043 136.176C201.043 136.17 201.043 136.152 201.055 136.145C201.105 136.021 201.211 135.865 201.26 135.754C201.358 135.52 201.427 135.276 201.466 135.026C207.669 119.892 210.835 103.684 210.781 87.3281C210.781 86.9187 210.7 86.5134 210.543 86.1353C210.386 85.7573 210.156 85.4139 209.866 85.125C209.576 84.8361 209.232 84.6074 208.853 84.4518C208.475 84.2963 208.069 84.2171 207.659 84.2187C207.655 84.2187 207.651 84.2187 207.647 84.2187C207.622 84.2184 207.597 84.2184 207.572 84.2187ZM204.22 90.7919C203.877 103.727 201.408 116.518 196.913 128.652L166.547 98.298C178.602 93.7245 191.333 91.1879 204.22 90.7919ZM159.794 100.897L194.358 135.536C194.084 136.064 193.754 136.661 193.45 137.234C193.445 137.238 193.441 137.242 193.437 137.246C193.33 137.393 193.237 137.549 193.157 137.712C192.623 138.757 192.026 139.765 191.472 140.797C190.875 141.835 190.191 142.992 189.781 143.807C189.721 143.928 189.669 144.052 189.625 144.18C169.713 178.682 135.671 203.345 103.806 216.852L99.7455 212.785C104.957 209.129 109.82 205.509 113.843 201.877C125.528 191.362 132.151 180.174 130.678 167.419C130.655 167.191 130.607 166.966 130.535 166.748L130.472 166.605C130.236 165.92 129.767 165.339 129.148 164.963L128.905 164.82C128.525 164.587 128.098 164.438 127.655 164.385V164.322C114.894 162.849 103.694 169.478 93.1723 181.157C89.5343 185.193 85.9025 190.056 82.2397 195.279L77.9425 190.982C91.4372 159.173 116.045 125.667 150.515 105.804C150.652 105.755 150.785 105.697 150.913 105.63C153.214 104.467 157.126 102.272 159.794 100.897ZM151.933 127.713C147.991 127.713 144.035 129.205 141.05 132.19C138.179 135.081 136.569 138.992 136.571 143.066C136.574 147.141 138.188 151.049 141.063 153.937C143.95 156.807 147.856 158.418 151.927 158.418C155.998 158.418 159.904 156.807 162.791 153.937C165.664 151.049 167.277 147.143 167.28 143.069C167.282 138.996 165.673 135.087 162.804 132.196C161.376 130.771 159.68 129.642 157.815 128.874C155.949 128.105 153.951 127.713 151.933 127.719V127.713ZM151.933 133.894C154.271 133.894 156.61 134.79 158.407 136.593C159.262 137.441 159.94 138.45 160.402 139.562C160.865 140.673 161.102 141.865 161.101 143.069C161.1 144.273 160.86 145.465 160.395 146.576C159.931 147.687 159.251 148.694 158.395 149.54C157.548 150.396 156.541 151.074 155.431 151.538C154.321 152.001 153.13 152.24 151.927 152.24C150.724 152.24 149.533 152.001 148.423 151.538C147.313 151.074 146.306 150.396 145.46 149.54C144.603 148.694 143.923 147.687 143.459 146.576C142.994 145.465 142.754 144.273 142.753 143.069C142.752 141.865 142.989 140.673 143.452 139.562C143.914 138.45 144.592 137.441 145.447 136.593C147.251 134.79 149.595 133.894 151.933 133.894ZM86.7234 144.174C90.1189 144.205 93.3028 145.125 96.4495 146.114C95.4359 147.501 94.4471 148.962 93.4521 150.392L93.2344 150.716C90.8091 154.205 88.4274 157.805 86.1389 161.555C84.211 164.671 82.4511 167.799 80.7285 170.952L79.8206 172.631C78.1599 175.741 76.5819 178.895 75.0881 182.089C73.4961 180.33 72.1529 178.172 70.082 177.195C66.5125 175.504 62.3708 175.143 57.9244 175.945C51.8798 177.034 44.7033 180.883 36.849 185.976C44.7158 172.034 53.9879 160.094 64.1183 153.004C70.5982 148.465 77.0906 145.579 83.2471 144.466C84.4287 144.248 85.5916 144.155 86.7234 144.174ZM123.924 171.088C123.843 180.099 119.509 188.352 109.683 197.201C100.852 205.142 87.5692 213.587 72.3084 222.698C81.4064 207.425 89.8452 194.129 97.7866 185.311C106.648 175.479 114.907 171.163 123.924 171.088ZM148.898 198.501C151.946 208.158 150.049 219.396 142.008 230.882C134.906 241.031 122.935 250.315 108.962 258.182C114.061 250.272 117.892 243.027 118.93 236.914C120.137 229.862 117.301 224.184 112.631 219.744C115.936 218.204 119.2 216.576 122.419 214.862L122.892 214.607C125.777 213.059 128.663 211.56 131.53 209.844C137.507 206.358 143.304 202.572 148.898 198.501ZM66.6431 213.612L42.3899 237.878L45.3314 240.832L58.1918 227.965C60.9704 223.157 63.7896 218.373 66.6493 213.612H66.6431ZM81.1576 228.562C76.6055 231.311 71.7984 234.122 66.8048 237.026L51.2206 252.61L54.1683 255.551L81.1576 228.562ZM57.4269 234.625L39.436 252.61L42.3899 255.551L60.3746 237.561C60.2999 237.561 60.2191 237.498 60.1445 237.467C60.1214 237.447 60.0986 237.426 60.0761 237.405L59.7838 237.219L59.8211 237.281C59.5644 237.123 59.3211 236.944 59.0935 236.746C59.0683 236.724 59.0434 236.701 59.0189 236.678C58.9677 236.634 58.9179 236.588 58.8696 236.541C58.8572 236.541 58.8448 236.541 58.8323 236.541C58.8282 236.541 58.824 236.541 58.8199 236.541C58.8093 236.52 58.7989 236.499 58.7888 236.479C58.7453 236.416 58.6955 236.416 58.652 236.354C58.6351 236.334 58.6185 236.313 58.6022 236.292C58.5525 236.23 58.4965 236.205 58.4468 236.143C58.354 236.042 58.2649 235.939 58.1794 235.832C58.1708 235.811 58.1625 235.79 58.1545 235.77C58.0425 235.627 57.9617 235.477 57.8622 235.328C57.7156 235.144 57.5904 234.944 57.4891 234.731C57.4704 234.669 57.4455 234.657 57.4269 234.625ZM39.436 240.832L36.4883 243.767L39.436 246.721L42.3775 243.767L39.436 240.832ZM36.4883 255.551L33.5469 258.499L36.4883 261.441L39.436 258.499L36.4883 255.551ZM48.2667 255.551L45.3314 258.499L48.2667 261.441L51.2206 258.499L48.2667 255.551Z" fill="url(#paint1_linear_111_2244)"/>
</g>
<defs>
<linearGradient id="paint0_linear_111_2244" x1="-59" y1="0" x2="363.922" y2="223.694" gradientUnits="userSpaceOnUse">
<stop stop-color="#845EF7"/>
<stop offset="1" stop-color="#364FC7"/>
</linearGradient>
<linearGradient id="paint1_linear_111_2244" x1="24.2265" y1="84.2185" x2="232.583" y2="224.576" gradientUnits="userSpaceOnUse">
<stop stop-color="#5F3DC4"/>
<stop offset="1" stop-color="#5C7CFA"/>
</linearGradient>
</defs>
</svg>
