<svg width="45" height="45" viewBox="0 0 45 45" fill="none" xmlns="http://www.w3.org/2000/svg">
<circle cx="22.5" cy="22.5" r="22.5" fill="url(#paint0_linear_111_798)"/>
<path opacity="0.2" d="M11 22V29C11 29.5304 11.2107 30.0391 11.5858 30.4142C11.9609 30.7893 12.4696 31 13 31H15C15.5304 31 16.0391 30.7893 16.4142 30.4142C16.7893 30.0391 17 29.5304 17 29V24C17 23.4696 16.7893 22.9609 16.4142 22.5858C16.0391 22.2107 15.5304 22 15 22H11Z" fill="white"/>
<path opacity="0.2" d="M35.1875 22H31.1875C30.6571 22 30.1484 22.2107 29.7733 22.5858C29.3982 22.9609 29.1875 23.4696 29.1875 24V29C29.1875 29.5304 29.3982 30.0391 29.7733 30.4142C30.1484 30.7893 30.6571 31 31.1875 31H33.1875C33.7179 31 34.2266 30.7893 34.6017 30.4142C34.9768 30.0391 35.1875 29.5304 35.1875 29V22Z" fill="white"/>
<path d="M35.1875 22H31.1875C30.6571 22 30.1484 22.2107 29.7733 22.5858C29.3982 22.9608 29.1875 23.4696 29.1875 24V29C29.1875 29.5304 29.3982 30.0391 29.7733 30.4142C30.1484 30.7893 30.6571 31 31.1875 31H33.1875C33.7179 31 34.2266 30.7893 34.6017 30.4142C34.9768 30.0391 35.1875 29.5304 35.1875 29V22ZM35.1875 22C35.1876 20.4157 34.8739 18.847 34.2646 17.3846C33.6553 15.9221 32.7624 14.5948 31.6375 13.4792C30.5126 12.3635 29.1779 11.4817 27.7104 10.8846C26.2429 10.2874 24.6718 9.98679 23.0875 9.99999C21.5043 9.98844 19.9344 10.2903 18.4684 10.8882C17.0024 11.4861 15.6692 12.3682 14.5456 13.4836C13.422 14.5991 12.5303 15.9258 11.9217 17.3875C11.3132 18.8491 11 20.4167 11 22V29C11 29.5304 11.2107 30.0391 11.5858 30.4142C11.9609 30.7893 12.4696 31 13 31H15C15.5304 31 16.0391 30.7893 16.4142 30.4142C16.7893 30.0391 17 29.5304 17 29V24C17 23.4696 16.7893 22.9608 16.4142 22.5858C16.0391 22.2107 15.5304 22 15 22H11" stroke="white" stroke-width="2" stroke-linecap="round" stroke-linejoin="round"/>
<path d="M35.1875 29V32C35.1875 33.0609 34.7661 34.0783 34.0159 34.8284C33.2658 35.5786 32.2484 36 31.1875 36H24" stroke="white" stroke-width="2" stroke-linecap="round" stroke-linejoin="round"/>
<defs>
<linearGradient id="paint0_linear_111_798" x1="0" y1="0" x2="53.7613" y2="28.4357" gradientUnits="userSpaceOnUse">
<stop stop-color="#845EF7"/>
<stop offset="1" stop-color="#364FC7"/>
</linearGradient>
</defs>
</svg>
