<svg width="18" height="18" viewBox="0 0 18 18" fill="none" xmlns="http://www.w3.org/2000/svg">
<rect width="18" height="18" rx="4" fill="#5C7CFA"/>
<path d="M9.00001 7.12517C9.00001 6.09392 9.8672 5.23611 10.8984 5.25017C11.2596 5.25434 11.6119 5.36273 11.9129 5.5623C12.2139 5.76187 12.4509 6.04414 12.5953 6.37517H14.25L12.7359 7.88923C12.6382 9.41013 11.965 10.8367 10.8531 11.879C9.74115 12.9212 8.27404 13.5009 6.75001 13.5002C5.25001 13.5002 4.87501 12.9377 4.87501 12.9377C4.87501 12.9377 6.37501 12.3752 7.12501 11.2502C7.12501 11.2502 4.12501 9.75017 4.87501 5.62517C4.87501 5.62517 6.75001 7.50017 9.00001 7.87517V7.12517Z" stroke="#F8F9FA" stroke-linecap="round" stroke-linejoin="round"/>
</svg>
