<svg width="18" height="18" viewBox="0 0 18 18" fill="none" xmlns="http://www.w3.org/2000/svg">
<rect width="18" height="18" rx="4" fill="#5C7CFA"/>
<path d="M9 10.875C10.0355 10.875 10.875 10.0355 10.875 9C10.875 7.96447 10.0355 7.125 9 7.125C7.96447 7.125 7.125 7.96447 7.125 9C7.125 10.0355 7.96447 10.875 9 10.875Z" stroke="#F8F9FA" stroke-miterlimit="10"/>
<path d="M11.0625 4.6875H6.9375C5.69486 4.6875 4.6875 5.69486 4.6875 6.9375V11.0625C4.6875 12.3051 5.69486 13.3125 6.9375 13.3125H11.0625C12.3051 13.3125 13.3125 12.3051 13.3125 11.0625V6.9375C13.3125 5.69486 12.3051 4.6875 11.0625 4.6875Z" stroke="#F8F9FA" stroke-linecap="round" stroke-linejoin="round"/>
<path d="M11.4375 7.125C11.7482 7.125 12 6.87316 12 6.5625C12 6.25184 11.7482 6 11.4375 6C11.1268 6 10.875 6.25184 10.875 6.5625C10.875 6.87316 11.1268 7.125 11.4375 7.125Z" fill="#F8F9FA"/>
</svg>
