<svg width="18" height="18" viewBox="0 0 18 18" fill="none" xmlns="http://www.w3.org/2000/svg">
<rect width="18" height="18" rx="4" fill="#5C7CFA"/>
<path d="M7.12499 9.32321L11.3391 13.031C11.3878 13.0741 11.4468 13.1038 11.5105 13.1172C11.5741 13.1306 11.6402 13.1272 11.7021 13.1073C11.764 13.0875 11.8198 13.0519 11.8638 13.004C11.9078 12.9561 11.9386 12.8975 11.9531 12.8341L13.7156 5.13727C13.7304 5.07098 13.7269 5.00193 13.7055 4.93748C13.6841 4.87302 13.6456 4.81559 13.5941 4.77132C13.5426 4.72704 13.48 4.69758 13.4131 4.68608C13.3462 4.67458 13.2774 4.68147 13.2141 4.70602L4.56093 8.10446C4.21405 8.24039 4.26093 8.74664 4.62655 8.82164L7.12499 9.32321Z" stroke="#F8F9FA" stroke-linecap="round" stroke-linejoin="round"/>
<path d="M7.125 9.32314L13.5047 4.71533" stroke="#F8F9FA" stroke-linecap="round" stroke-linejoin="round"/>
<path d="M9.22969 11.1753L7.76719 12.6378C7.71501 12.6908 7.64826 12.727 7.57542 12.742C7.50258 12.757 7.42694 12.7499 7.35811 12.7218C7.28928 12.6937 7.23037 12.6457 7.18886 12.584C7.14735 12.5223 7.12512 12.4497 7.125 12.3753V9.32373" stroke="#F8F9FA" stroke-linecap="round" stroke-linejoin="round"/>
</svg>
