<svg width="18" height="18" viewBox="0 0 18 18" fill="none" xmlns="http://www.w3.org/2000/svg">
<rect width="18" height="18" rx="4" fill="#5C7CFA"/>
<path d="M9 13.5C11.4853 13.5 13.5 11.4853 13.5 9C13.5 6.51472 11.4853 4.5 9 4.5C6.51472 4.5 4.5 6.51472 4.5 9C4.5 11.4853 6.51472 13.5 9 13.5Z" stroke="#F8F9FA" stroke-linecap="round" stroke-linejoin="round"/>
<path d="M10.875 7.12501H10.125C9.9771 7.12439 9.83053 7.15307 9.69376 7.20938C9.55699 7.2657 9.43272 7.34854 9.32813 7.45313C9.22354 7.55772 9.1407 7.68199 9.08438 7.81876C9.02807 7.95553 8.99939 8.1021 9.00001 8.25001V13.5" stroke="#F8F9FA" stroke-linecap="round" stroke-linejoin="round"/>
<path d="M7.5 9.75H10.5" stroke="#F8F9FA" stroke-linecap="round" stroke-linejoin="round"/>
</svg>
