<svg width="45" height="45" viewBox="0 0 45 45" fill="none" xmlns="http://www.w3.org/2000/svg">
<circle cx="22.5" cy="22.5" r="22.5" fill="url(#paint0_linear_111_810)"/>
<path opacity="0.2" d="M17.4871 26.7824C17.4871 27.0949 17.5496 27.3824 17.5746 27.6949C17.8871 27.7199 18.1746 27.7824 18.4871 27.7824C20.8741 27.7824 23.1633 26.8342 24.8511 25.1464C26.5389 23.4585 27.4871 21.1694 27.4871 18.7824C27.4871 18.4699 27.4246 18.1824 27.3996 17.8699C27.0871 17.8449 26.7996 17.7824 26.4871 17.7824C24.1002 17.7824 21.811 18.7306 20.1232 20.4184C18.4353 22.1063 17.4871 24.3955 17.4871 26.7824Z" fill="white"/>
<path d="M18.4871 27.7824C23.4577 27.7824 27.4871 23.753 27.4871 18.7824C27.4871 13.8118 23.4577 9.78241 18.4871 9.78241C13.5166 9.78241 9.48712 13.8118 9.48712 18.7824C9.48712 23.753 13.5166 27.7824 18.4871 27.7824Z" stroke="white" stroke-width="2" stroke-linecap="round" stroke-linejoin="round"/>
<path d="M26.4871 35.7824C31.4577 35.7824 35.4871 31.753 35.4871 26.7824C35.4871 21.8118 31.4577 17.7824 26.4871 17.7824C21.5166 17.7824 17.4871 21.8118 17.4871 26.7824C17.4871 31.753 21.5166 35.7824 26.4871 35.7824Z" stroke="white" stroke-width="2" stroke-linecap="round" stroke-linejoin="round"/>
<defs>
<linearGradient id="paint0_linear_111_810" x1="0" y1="0" x2="53.7613" y2="28.4357" gradientUnits="userSpaceOnUse">
<stop stop-color="#845EF7"/>
<stop offset="1" stop-color="#364FC7"/>
</linearGradient>
</defs>
</svg>
