<svg width="213" height="133" viewBox="0 0 213 133" fill="none" xmlns="http://www.w3.org/2000/svg">
<path d="M0 4C0 6.20914 1.79086 8 4 8C6.20914 8 8 6.20914 8 4C8 1.79086 6.20914 0 4 0C1.79086 0 0 1.79086 0 4ZM5.50542 4.75001C5.91964 4.75002 6.25543 4.41424 6.25544 4.00003C6.25545 3.58581 5.91967 3.25002 5.50545 3.25001L5.50542 4.75001ZM9.50591 3.2505C9.0917 3.25039 8.75582 3.58608 8.75571 4.0003C8.75559 4.41451 9.09129 4.75039 9.5055 4.7505L9.50591 3.2505ZM12.4915 4.75186C12.9058 4.75213 13.2418 4.41657 13.242 4.00236C13.2423 3.58814 12.9068 3.25213 12.4925 3.25186L12.4915 4.75186ZM16.4799 3.25595C16.0657 3.25535 15.7294 3.59066 15.7288 4.00487C15.7282 4.41908 16.0635 4.75535 16.4777 4.75595L16.4799 3.25595ZM19.4796 4.76143C19.8938 4.76236 20.2303 4.42733 20.2313 4.01311C20.2322 3.5989 19.8972 3.26236 19.4829 3.26144L19.4796 4.76143ZM23.4668 3.27292C23.0526 3.27144 22.7156 3.60602 22.7141 4.02023C22.7126 4.43444 23.0472 4.77143 23.4614 4.77291L23.4668 3.27292ZM26.4457 4.78538C26.8599 4.78737 27.1973 4.45321 27.1993 4.039C27.2013 3.62479 26.8671 3.28739 26.4529 3.2854L26.4457 4.78538ZM30.46 3.30845C30.0458 3.30565 29.7078 3.63916 29.705 4.05337C29.7022 4.46757 30.0357 4.80562 30.4499 4.80842L30.46 3.30845ZM33.4359 4.83108C33.8501 4.83458 34.1887 4.50164 34.1922 4.08744C34.1957 3.67324 33.8628 3.33463 33.4486 3.33113L33.4359 4.83108ZM37.4329 3.36982C37.0187 3.36525 36.6793 3.69731 36.6747 4.1115C36.6701 4.52569 37.0022 4.86516 37.4164 4.86973L37.4329 3.36982ZM40.4199 4.90613C40.8341 4.91161 41.1743 4.5803 41.1797 4.16613C41.1852 3.75195 40.8539 3.41175 40.4397 3.40626L40.4199 4.90613ZM44.4241 3.46541C44.0099 3.45857 43.6686 3.78876 43.6618 4.20292C43.6549 4.61708 43.9851 4.95836 44.3993 4.96521L44.4241 3.46541ZM47.3814 5.01848C47.7955 5.02646 48.1377 4.69719 48.1457 4.28306C48.1537 3.86892 47.8244 3.52673 47.4103 3.51876L47.3814 5.01848ZM51.4196 3.60393C51.0055 3.59428 50.662 3.92215 50.6523 4.33625C50.6427 4.75035 50.9705 5.09387 51.3846 5.10352L51.4196 3.60393ZM54.3662 5.17792C54.7802 5.18895 55.1248 4.86222 55.1359 4.44815C55.1469 4.03409 54.8202 3.68948 54.4061 3.67845L54.3662 5.17792ZM58.3949 3.79423C57.9809 3.78119 57.6347 4.10624 57.6217 4.52025C57.6087 4.93425 57.9337 5.28045 58.3477 5.29349L58.3949 3.79423ZM61.347 5.39389C61.761 5.40858 62.1084 5.08492 62.1231 4.67097C62.1378 4.25701 61.8142 3.90953 61.4002 3.89483L61.347 5.39389ZM65.377 4.04727C64.9632 4.0302 64.6138 4.35186 64.5967 4.76572C64.5797 5.17958 64.9013 5.52892 65.3152 5.546L65.377 4.04727ZM68.3051 5.67631C68.7189 5.69532 69.0698 5.37531 69.0888 4.96153C69.1078 4.54776 68.7878 4.19691 68.374 4.17789L68.3051 5.67631ZM72.375 4.37519C71.9614 4.35337 71.6084 4.67099 71.5866 5.08463C71.5647 5.49827 71.8824 5.85128 72.296 5.87311L72.375 4.37519ZM75.2636 6.03772C75.6771 6.0618 76.0318 5.74611 76.0559 5.33259C76.08 4.91908 75.7643 4.56434 75.3508 4.54026L75.2636 6.03772ZM79.3525 4.78894C78.9392 4.7616 78.582 5.07448 78.5546 5.48779C78.5273 5.9011 78.8402 6.25832 79.2535 6.28567L79.3525 4.78894ZM82.2364 6.49248C82.6496 6.52246 83.0088 6.21186 83.0388 5.79873C83.0687 5.3856 82.7581 5.02639 82.345 4.99642L82.2364 6.49248ZM86.3081 5.3018C85.8952 5.26808 85.5332 5.57542 85.4995 5.98825C85.4658 6.40109 85.7731 6.7631 86.186 6.79682L86.3081 5.3018ZM89.1841 7.05274C89.5967 7.08951 89.961 6.78486 89.9977 6.37228C90.0345 5.9597 89.7298 5.59543 89.3173 5.55866L89.1841 7.05274ZM93.2893 5.93335C92.8771 5.89226 92.5096 6.19308 92.4686 6.60525C92.4275 7.01742 92.7283 7.38486 93.1405 7.42595L93.2893 5.93335ZM96.1044 7.73389C96.5162 7.77845 96.8861 7.48073 96.9307 7.06892C96.9752 6.65711 96.6775 6.28715 96.2657 6.24259L96.1044 7.73389ZM100.255 6.69834C99.844 6.64881 99.4704 6.94203 99.4209 7.35327C99.3714 7.76451 99.6646 8.13805 100.076 8.18758L100.255 6.69834ZM103.02 8.55644C103.431 8.60993 103.807 8.32031 103.861 7.90956C103.914 7.49882 103.625 7.12248 103.214 7.069L103.02 8.55644ZM107.192 7.61474C106.783 7.55557 106.402 7.83995 106.343 8.24992C106.284 8.65988 106.568 9.04019 106.978 9.09935L107.192 7.61474ZM109.928 9.54161C110.338 9.60531 110.721 9.32515 110.785 8.91586C110.848 8.50658 110.568 8.12315 110.159 8.05945L109.928 9.54161ZM114.097 8.70364C113.689 8.63352 113.301 8.90761 113.231 9.31585C113.161 9.72408 113.435 10.1119 113.843 10.182L114.097 8.70364ZM116.795 10.7081C117.202 10.7834 117.593 10.5142 117.668 10.1069C117.744 9.69962 117.475 9.30839 117.067 9.23309L116.795 10.7081ZM120.974 9.99096C120.568 9.90839 120.172 10.1705 120.089 10.5764C120.007 10.9823 120.269 11.3783 120.675 11.4609L120.974 9.99096ZM123.611 12.0802C124.016 12.1686 124.416 11.9123 124.504 11.5076C124.592 11.103 124.336 10.7032 123.931 10.6148L123.611 12.0802ZM127.83 11.5082C127.427 11.4115 127.022 11.6596 126.926 12.0624C126.829 12.4652 127.077 12.8701 127.48 12.9668L127.83 11.5082ZM130.368 13.6849C130.769 13.7882 131.178 13.5467 131.281 13.1456C131.384 12.7444 131.143 12.3355 130.742 12.2323L130.368 13.6849ZM134.621 13.2789C134.223 13.1663 133.808 13.3982 133.696 13.7968C133.583 14.1954 133.815 14.6098 134.213 14.7224L134.621 13.2789ZM137.05 15.5519C137.446 15.6718 137.865 15.4477 137.985 15.0512C138.105 14.6547 137.881 14.2361 137.484 14.1161L137.05 15.5519ZM141.33 15.3347C140.936 15.2043 140.512 15.4173 140.382 15.8104C140.251 16.2036 140.464 16.628 140.857 16.7584L141.33 15.3347ZM143.658 17.7199C144.048 17.8585 144.477 17.6544 144.616 17.2641C144.754 16.8737 144.55 16.4449 144.16 16.3063L143.658 17.7199ZM147.933 17.7091C147.547 17.5589 147.112 17.7501 146.962 18.1361C146.812 18.5221 147.003 18.9568 147.389 19.107L147.933 17.7091ZM150.142 20.2152C150.524 20.3745 150.963 20.1936 151.122 19.8112C151.282 19.4288 151.101 18.9897 150.718 18.8305L150.142 20.2152ZM154.401 20.436C154.025 20.2641 153.58 20.4303 153.408 20.8071C153.236 21.184 153.402 21.6289 153.779 21.8007L154.401 20.436ZM156.466 23.069C156.838 23.2508 157.287 23.0964 157.469 22.7242C157.651 22.3519 157.496 21.9029 157.124 21.7211L156.466 23.069ZM160.699 23.548C160.333 23.3527 159.879 23.4904 159.684 23.8557C159.488 24.2209 159.626 24.6754 159.991 24.8707L160.699 23.548ZM162.592 26.3104C162.952 26.5162 163.41 26.3917 163.616 26.0323C163.822 25.6729 163.697 25.2146 163.338 25.0087L162.592 26.3104ZM166.78 27.0729C166.429 26.8527 165.966 26.9587 165.746 27.3095C165.526 27.6604 165.632 28.1233 165.983 28.3434L166.78 27.0729ZM168.475 29.9624C168.818 30.1935 169.284 30.1022 169.516 29.7585C169.747 29.4148 169.655 28.9488 169.312 28.7176L168.475 29.9624ZM172.596 31.0302C172.262 30.7843 171.793 30.8553 171.547 31.1887C171.301 31.5221 171.372 31.9916 171.705 32.2375L172.596 31.0302ZM174.065 34.0388C174.39 34.2957 174.862 34.2405 175.118 33.9155C175.375 33.5906 175.32 33.1189 174.995 32.8621L174.065 34.0388ZM178.092 35.427C177.779 35.1555 177.306 35.1891 177.034 35.502C176.763 35.8148 176.796 36.2885 177.109 36.56L178.092 35.427ZM179.314 38.5407C179.617 38.8229 180.091 38.8059 180.374 38.5027C180.656 38.1995 180.639 37.7249 180.335 37.4427L179.314 38.5407ZM183.219 40.2557C182.929 39.9596 182.454 39.9542 182.158 40.2438C181.862 40.5334 181.857 41.0082 182.146 41.3044L183.219 40.2557ZM184.176 43.4547C184.455 43.7609 184.929 43.783 185.235 43.5041C185.541 43.2252 185.564 42.7508 185.285 42.4446L184.176 43.4547ZM187.932 45.4936C187.668 45.1746 187.195 45.13 186.876 45.3941C186.557 45.6582 186.513 46.131 186.777 46.4501L187.932 45.4936ZM188.616 48.7532C188.869 49.0813 189.34 49.1424 189.668 48.8896C189.996 48.6368 190.057 48.1658 189.804 47.8377L188.616 48.7532ZM192.195 51.0952C191.958 50.7557 191.49 50.6728 191.151 50.9101C190.811 51.1474 190.728 51.615 190.966 51.9545L192.195 51.0952ZM192.613 54.3981C192.839 54.7454 193.303 54.8439 193.65 54.6182C193.998 54.3925 194.096 53.928 193.871 53.5807L192.613 54.3981ZM195.993 57.0112C195.783 56.6543 195.323 56.5352 194.966 56.7453C194.609 56.9554 194.49 57.4151 194.7 57.7721L195.993 57.0112ZM196.16 60.3455C196.358 60.709 196.814 60.8427 197.177 60.6442C197.541 60.4456 197.675 59.99 197.476 59.6264L196.16 60.3455ZM199.328 63.1913C199.145 62.8199 198.695 62.6674 198.323 62.8508C197.952 63.0341 197.799 63.4839 197.983 63.8553L199.328 63.1913ZM199.264 66.552C199.436 66.9287 199.881 67.0946 200.257 66.9225C200.634 66.7504 200.8 66.3055 200.628 65.9287L199.264 66.552ZM202.216 69.5881C202.058 69.2051 201.62 69.0224 201.237 69.1801C200.854 69.3378 200.671 69.7761 200.829 70.1591L202.216 69.5881ZM201.935 72.9556C202.081 73.3429 202.515 73.5377 202.902 73.3907C203.289 73.2437 203.484 72.8106 203.337 72.4233L201.935 72.9556ZM204.682 76.1634C204.549 75.7713 204.123 75.5617 203.731 75.6953C203.339 75.8288 203.129 76.2549 203.263 76.647L204.682 76.1634ZM204.189 79.4834C204.313 79.8787 204.733 80.0989 205.129 79.9752C205.524 79.8515 205.744 79.4307 205.62 79.0354L204.189 79.4834ZM206.759 82.8905C206.648 82.4915 206.235 82.2581 205.836 82.3692C205.437 82.4803 205.203 82.8939 205.314 83.2929L206.759 82.8905ZM206.074 86.1438C206.176 86.5452 206.584 86.7878 206.986 86.6856C207.387 86.5834 207.63 86.1751 207.528 85.7737L206.074 86.1438ZM208.472 89.7241C208.382 89.3199 207.981 89.0657 207.577 89.1563C207.172 89.2469 206.918 89.648 207.009 90.0522L208.472 89.7241ZM207.622 92.9259C207.705 93.3318 208.101 93.594 208.507 93.5115C208.913 93.429 209.175 93.033 209.092 92.6271L207.622 92.9259ZM209.838 96.5555C209.766 96.1476 209.377 95.8754 208.969 95.9475C208.561 96.0196 208.289 96.4088 208.361 96.8166L209.838 96.5555ZM208.861 99.8093C208.926 100.218 209.31 100.498 209.719 100.433C210.128 100.369 210.408 99.9847 210.343 99.5756L208.861 99.8093ZM210.913 103.479C210.858 103.068 210.48 102.78 210.07 102.836C209.659 102.891 209.371 103.269 209.426 103.679L210.913 103.479ZM209.8 106.635C209.848 107.047 210.221 107.341 210.632 107.292C211.044 107.244 211.338 106.871 211.289 106.46L209.8 106.635ZM211.723 110.506C211.683 110.094 211.317 109.792 210.904 109.832C210.492 109.872 210.19 110.238 210.23 110.65L211.723 110.506ZM210.49 113.558C210.524 113.971 210.886 114.278 211.299 114.244C211.712 114.211 212.019 113.848 211.985 113.436L210.49 113.558ZM212.275 117.424C212.249 117.01 211.892 116.696 211.479 116.723C211.065 116.749 210.752 117.105 210.778 117.518L212.275 117.424ZM210.949 120.551C210.97 120.965 211.322 121.284 211.736 121.263C212.149 121.242 212.468 120.89 212.447 120.477L210.949 120.551ZM212.611 124.425C212.597 124.011 212.25 123.686 211.836 123.7C211.422 123.714 211.098 124.06 211.112 124.474L212.611 124.425ZM211.192 127.439C211.201 127.853 211.544 128.181 211.958 128.173C212.372 128.164 212.7 127.821 212.692 127.407L211.192 127.439ZM212.746 131.458C212.743 131.044 212.406 130.71 211.991 130.713C211.577 130.715 211.243 131.053 211.246 131.467L212.746 131.458ZM4 4.75C4.50229 4.75 5.0041 4.75 5.50542 4.75001L5.50545 3.25001C5.00411 3.25 4.50229 3.25 4 3.25L4 4.75ZM9.5055 4.7505C10.5029 4.75078 11.4982 4.7512 12.4915 4.75186L12.4925 3.25186C11.499 3.2512 10.5034 3.25078 9.50591 3.2505L9.5055 4.7505ZM16.4777 4.75595C17.4805 4.7574 18.4812 4.7592 19.4796 4.76143L19.4829 3.26144C18.4841 3.2592 17.483 3.2574 16.4799 3.25595L16.4777 4.75595ZM23.4614 4.77291C24.4585 4.77648 25.4532 4.78061 26.4457 4.78538L26.4529 3.2854C25.4598 3.28063 24.4644 3.2765 23.4668 3.27292L23.4614 4.77291ZM30.4499 4.80842C31.4477 4.81516 32.443 4.82269 33.4359 4.83108L33.4486 3.33113C32.4548 3.32273 31.4586 3.3152 30.46 3.30845L30.4499 4.80842ZM37.4164 4.86973C38.4202 4.88081 39.4214 4.89291 40.4199 4.90613L40.4397 3.40626C39.4401 3.39303 38.4378 3.38091 37.4329 3.36982L37.4164 4.86973ZM44.3993 4.96521C45.3961 4.98167 46.3902 4.9994 47.3814 5.01848L47.4103 3.51876C46.4176 3.49965 45.4222 3.4819 44.4241 3.46541L44.3993 4.96521ZM51.3846 5.10352C52.3815 5.12676 53.3753 5.15153 54.3662 5.17792L54.4061 3.67845C53.4136 3.65201 52.418 3.62721 51.4196 3.60393L51.3846 5.10352ZM58.3477 5.29349C59.3507 5.32508 60.3505 5.35851 61.347 5.39389L61.4002 3.89483C60.4017 3.85939 59.3999 3.82589 58.3949 3.79423L58.3477 5.29349ZM65.3152 5.546C66.3153 5.58726 67.312 5.63066 68.3051 5.67631L68.374 4.17789C67.3784 4.13213 66.3794 4.08863 65.377 4.04727L65.3152 5.546ZM72.296 5.87311C73.2889 5.9255 74.2781 5.98033 75.2636 6.03772L75.3508 4.54026C74.3625 4.48271 73.3705 4.42772 72.375 4.37519L72.296 5.87311ZM79.2535 6.28567C80.2518 6.35173 81.2461 6.42063 82.2364 6.49248L82.345 4.99642C81.3514 4.92432 80.3539 4.85521 79.3525 4.78894L79.2535 6.28567ZM86.186 6.79682C87.1897 6.8788 88.1891 6.96407 89.1841 7.05274L89.3173 5.55866C88.3185 5.46965 87.3154 5.38407 86.3081 5.3018L86.186 6.79682ZM93.1405 7.42595C94.133 7.5249 95.121 7.6275 96.1044 7.73389L96.2657 6.24259C95.2781 6.13574 94.2859 6.0327 93.2893 5.93335L93.1405 7.42595ZM100.076 8.18758C101.062 8.30639 102.044 8.42929 103.02 8.55644L103.214 7.069C102.232 6.94122 101.246 6.81771 100.255 6.69834L100.076 8.18758ZM106.978 9.09935C107.967 9.24205 108.95 9.38942 109.928 9.54161L110.159 8.05945C109.175 7.90639 108.187 7.7582 107.192 7.61474L106.978 9.09935ZM113.843 10.182C114.833 10.352 115.817 10.5273 116.795 10.7081L117.067 9.23309C116.083 9.05112 115.093 8.87469 114.097 8.70364L113.843 10.182ZM120.675 11.4609C121.66 11.6613 122.639 11.8677 123.611 12.0802L123.931 10.6148C122.952 10.4007 121.966 10.1928 120.974 9.99096L120.675 11.4609ZM127.48 12.9668C128.449 13.1995 129.412 13.4388 130.368 13.6849L130.742 12.2323C129.778 11.9841 128.807 11.7428 127.83 11.5082L127.48 12.9668ZM134.213 14.7224C135.166 14.9916 136.112 15.268 137.05 15.5519L137.484 14.1161C136.537 13.8296 135.583 13.5506 134.621 13.2789L134.213 14.7224ZM140.857 16.7584C141.799 17.0707 142.732 17.3911 143.658 17.7199L144.16 16.3063C143.224 15.9741 142.281 15.6503 141.33 15.3347L140.857 16.7584ZM147.389 19.107C148.315 19.4673 149.233 19.8366 150.142 20.2152L150.718 18.8305C149.798 18.4473 148.87 18.0736 147.933 17.7091L147.389 19.107ZM153.779 21.8007C154.684 22.2135 155.58 22.6362 156.466 23.069L157.124 21.7211C156.226 21.2824 155.318 20.8541 154.401 20.436L153.779 21.8007ZM159.991 24.8707C160.868 25.3396 161.735 25.8194 162.592 26.3104L163.338 25.0087C162.468 24.5105 161.588 24.0236 160.699 23.548L159.991 24.8707ZM165.983 28.3434C166.824 28.8712 167.654 29.4108 168.475 29.9624L169.312 28.7176C168.478 28.1571 167.634 27.609 166.78 27.0729L165.983 28.3434ZM171.705 32.2375C172.503 32.8253 173.289 33.4256 174.065 34.0388L174.995 32.8621C174.206 32.2384 173.406 31.6278 172.596 31.0302L171.705 32.2375ZM177.109 36.56C177.855 37.207 178.59 37.8671 179.314 38.5407L180.335 37.4427C179.599 36.7572 178.851 36.0853 178.092 35.427L177.109 36.56ZM182.146 41.3044C182.834 42.0075 183.51 42.7242 184.176 43.4547L185.285 42.4446C184.607 41.701 183.919 40.9715 183.219 40.2557L182.146 41.3044ZM186.777 46.4501C187.401 47.204 188.014 47.9716 188.616 48.7532L189.804 47.8377C189.191 47.0423 188.567 46.261 187.932 45.4936L186.777 46.4501ZM190.966 51.9545C191.525 52.7553 192.075 53.5697 192.613 54.3981L193.871 53.5807C193.323 52.7382 192.765 51.9098 192.195 51.0952L190.966 51.9545ZM194.7 57.7721C195.197 58.6163 195.684 59.474 196.16 60.3455L197.476 59.6264C196.992 58.741 196.498 57.8693 195.993 57.0112L194.7 57.7721ZM197.983 63.8553C198.42 64.7407 198.847 65.6395 199.264 66.552L200.628 65.9287C200.205 65.0028 199.772 64.0904 199.328 63.1913L197.983 63.8553ZM200.829 70.1591C201.207 71.0782 201.576 72.0103 201.935 72.9556L203.337 72.4233C202.973 71.4652 202.599 70.5202 202.216 69.5881L200.829 70.1591ZM203.263 76.647C203.58 77.5802 203.889 78.5256 204.189 79.4834L205.62 79.0354C205.317 78.0659 205.004 77.1086 204.682 76.1634L203.263 76.647ZM205.314 83.2929C205.576 84.2318 205.829 85.1821 206.074 86.1438L207.528 85.7737C207.28 84.8013 207.024 83.8403 206.759 82.8905L205.314 83.2929ZM207.009 90.0522C207.221 90.9994 207.426 91.9573 207.622 92.9259L209.092 92.6271C208.894 91.6489 208.687 90.6812 208.472 89.7241L207.009 90.0522ZM208.361 96.8166C208.536 97.8035 208.702 98.801 208.861 99.8093L210.343 99.5756C210.183 98.5583 210.014 97.5516 209.838 96.5555L208.361 96.8166ZM209.426 103.679C209.558 104.655 209.682 105.64 209.8 106.635L211.289 106.46C211.171 105.456 211.046 104.463 210.913 103.479L209.426 103.679ZM210.23 110.65C210.323 111.611 210.41 112.58 210.49 113.558L211.985 113.436C211.904 112.45 211.817 111.474 211.723 110.506L210.23 110.65ZM210.778 117.518C210.841 118.52 210.898 119.531 210.949 120.551L212.447 120.477C212.396 119.45 212.339 118.432 212.275 117.424L210.778 117.518ZM211.112 124.474C211.144 125.454 211.171 126.442 211.192 127.439L212.692 127.407C212.67 126.405 212.643 125.411 212.611 124.425L211.112 124.474ZM211.246 131.467C211.249 131.976 211.25 132.487 211.25 133H212.75C212.75 132.484 212.749 131.97 212.746 131.458L211.246 131.467Z" fill="url(#paint0_linear_111_969)"/>
<defs>
<linearGradient id="paint0_linear_111_969" x1="4" y1="4" x2="158.925" y2="172.287" gradientUnits="userSpaceOnUse">
<stop stop-color="#5F3DC4"/>
<stop offset="1" stop-color="#5C7CFA"/>
</linearGradient>
</defs>
</svg>
