<svg width="248" height="235" viewBox="0 0 248 235" fill="none" xmlns="http://www.w3.org/2000/svg">
<path d="M2.24951 1.52718C2.26453 1.11324 1.94113 0.765506 1.52719 0.750493C1.11325 0.735479 0.765514 1.05887 0.7505 1.47282L2.24951 1.52718ZM240 230.5C240 232.709 241.791 234.5 244 234.5C246.209 234.5 248 232.709 248 230.5C248 228.291 246.209 226.5 244 226.5C241.791 226.5 240 228.291 240 230.5ZM0.695802 3.04932C0.682094 3.46331 1.00658 3.81002 1.42057 3.82373C1.83456 3.83744 2.18127 3.51295 2.19498 3.09897L0.695802 3.04932ZM2.07547 7.2397C2.08563 6.82561 1.75819 6.48168 1.3441 6.47152C0.930012 6.46135 0.586086 6.7888 0.575921 7.20288L2.07547 7.2397ZM0.510641 10.2702C0.503195 10.6843 0.832891 11.0261 1.24704 11.0336C1.66118 11.041 2.00295 10.7113 2.0104 10.2972L0.510641 10.2702ZM1.95609 14.3102C1.95983 13.896 1.62709 13.5572 1.21289 13.5534C0.798692 13.5497 0.459891 13.8824 0.456156 14.2966L1.95609 14.3102ZM0.43951 17.2693C0.438623 17.6835 0.773689 18.0201 1.1879 18.0209C1.60211 18.0218 1.93862 17.6868 1.93951 17.2725L0.43951 17.2693ZM1.94928 21.1598C1.94628 20.7456 1.60807 20.4122 1.19387 20.4152C0.779665 20.4182 0.446319 20.7564 0.449318 21.1706L1.94928 21.1598ZM0.480479 24.0502C0.486461 24.4644 0.827062 24.7953 1.24123 24.7893C1.6554 24.7833 1.9863 24.4427 1.98032 24.0285L0.480479 24.0502ZM2.05511 27.8766C2.04496 27.4626 1.70105 27.1351 1.28696 27.1452C0.87287 27.1554 0.545409 27.4993 0.555556 27.9134L2.05511 27.8766ZM0.645625 31.048C0.659295 31.462 1.00598 31.7866 1.41997 31.7729C1.83396 31.7592 2.15848 31.4125 2.14481 30.9985L0.645625 31.048ZM2.30334 35.0842C2.28485 34.6704 1.93441 34.35 1.52061 34.3685C1.10681 34.3869 0.786345 34.7374 0.804837 35.1512L2.30334 35.0842ZM0.953306 38.1717C0.975508 38.5854 1.32881 38.9027 1.74243 38.8805C2.15605 38.8583 2.47335 38.505 2.45115 38.0913L0.953306 38.1717ZM2.68634 42.0254C2.65907 41.612 2.30189 41.2991 1.88858 41.3264C1.47527 41.3537 1.16232 41.7108 1.1896 42.1241L2.68634 42.0254ZM1.3953 45.0327C1.42648 45.4457 1.7866 45.7553 2.19964 45.7241C2.61267 45.6929 2.92223 45.3328 2.89104 44.9198L1.3953 45.0327ZM3.20127 48.7049C3.16474 48.2923 2.80065 47.9874 2.38805 48.024C1.97545 48.0605 1.67059 48.4246 1.70712 48.8372L3.20127 48.7049ZM1.99032 51.8526C2.03129 52.2648 2.39864 52.5657 2.81082 52.5247C3.223 52.4838 3.52394 52.1164 3.48297 51.7042L1.99032 51.8526ZM3.92158 55.7988C3.87425 55.3873 3.50229 55.0921 3.09079 55.1394C2.67929 55.1867 2.38407 55.5587 2.4314 55.9702L3.92158 55.7988ZM2.7969 58.9902C2.84913 59.4011 3.22459 59.6919 3.63549 59.6397C4.0464 59.5874 4.33716 59.212 4.28492 58.8011L2.7969 58.9902ZM4.81462 62.7136C4.75566 62.3036 4.37549 62.019 3.96549 62.078C3.5555 62.137 3.27093 62.5171 3.3299 62.9271L4.81462 62.7136ZM3.76351 65.8132C3.82766 66.2224 4.2114 66.5021 4.62061 66.438C5.02983 66.3738 5.30956 65.9901 5.24541 65.5808L3.76351 65.8132ZM5.86385 69.3153C5.79259 68.9073 5.40405 68.6343 4.99601 68.7056C4.58797 68.7768 4.31495 69.1654 4.38621 69.5734L5.86385 69.3153ZM4.94216 72.6238C5.01949 73.0307 5.41206 73.2979 5.81899 73.2206C6.22592 73.1433 6.49312 72.7507 6.41579 72.3438L4.94216 72.6238ZM7.21904 76.345C7.13323 75.9398 6.73517 75.6809 6.32994 75.7667C5.92471 75.8525 5.66577 76.2505 5.75158 76.6558L7.21904 76.345ZM6.3995 79.599C6.49185 80.0027 6.89405 80.2552 7.29784 80.1629C7.70163 80.0705 7.9541 79.6683 7.86175 79.2645L6.3995 79.599ZM8.77151 83.0501C8.67019 82.6484 8.26248 82.405 7.86084 82.5063C7.45921 82.6076 7.21575 83.0153 7.31707 83.417L8.77151 83.0501ZM8.04492 86.2018C8.15313 86.6016 8.56498 86.838 8.96481 86.7298C9.36464 86.6216 9.60104 86.2097 9.49282 85.8099L8.04492 86.2018ZM10.5885 89.6642C10.4701 89.2672 10.0523 89.0415 9.65542 89.1599C9.25849 89.2783 9.03271 89.696 9.15112 90.093L10.5885 89.6642ZM10.0629 93.0389C10.1895 93.4333 10.6118 93.6504 11.0062 93.5238C11.4006 93.3972 11.6177 92.9748 11.4911 92.5805L10.0629 93.0389ZM12.7569 96.3411C12.6191 95.9505 12.1908 95.7455 11.8001 95.8833C11.4095 96.021 11.2045 96.4494 11.3423 96.84L12.7569 96.3411ZM12.3487 99.5973C12.4951 99.9848 12.9278 100.18 13.3153 100.034C13.7028 99.8876 13.8983 99.4548 13.752 99.0673L12.3487 99.5973ZM15.1614 102.634C15.0032 102.251 14.5646 102.069 14.1818 102.227C13.799 102.385 13.6169 102.824 13.7751 103.207L15.1614 102.634ZM15.0025 106.071C15.1707 106.449 15.6139 106.62 15.9924 106.452C16.371 106.284 16.5415 105.841 16.3734 105.462L15.0025 106.071ZM18.0605 109.085C17.8788 108.713 17.4298 108.558 17.0576 108.74C16.6853 108.921 16.5308 109.37 16.7125 109.743L18.0605 109.085ZM18.0488 112.388C18.2407 112.755 18.6939 112.897 19.0609 112.705C19.428 112.513 19.57 112.06 19.3781 111.693L18.0488 112.388ZM21.2125 115.045C21.0067 114.686 20.5485 114.561 20.189 114.767C19.8295 114.973 19.705 115.431 19.9108 115.791L21.2125 115.045ZM21.497 118.461C21.7142 118.814 22.1762 118.924 22.5289 118.707C22.8816 118.489 22.9914 118.027 22.7741 117.675L21.497 118.461ZM24.934 121.016C24.7015 120.673 24.2351 120.584 23.8923 120.816C23.5495 121.049 23.4601 121.515 23.6926 121.858L24.934 121.016ZM25.3984 124.285C25.6423 124.619 26.1114 124.693 26.4462 124.449C26.781 124.205 26.8547 123.736 26.6108 123.401L25.3984 124.285ZM28.9732 126.492C28.714 126.169 28.2419 126.117 27.9189 126.376C27.5958 126.635 27.544 127.107 27.8032 127.43L28.9732 126.492ZM29.7662 129.786C30.0373 130.1 30.5109 130.134 30.8242 129.863C31.1374 129.592 31.1715 129.118 30.9005 128.805L29.7662 129.786ZM33.5505 131.717C33.2641 131.417 32.7893 131.407 32.4901 131.694C32.1909 131.98 32.1805 132.455 32.4669 132.754L33.5505 131.717ZM34.5528 134.852C34.8503 135.141 35.3251 135.133 35.6133 134.836C35.9015 134.538 35.894 134.063 35.5964 133.775L34.5528 134.852ZM38.513 136.456C38.2009 136.184 37.7271 136.216 37.4548 136.529C37.1826 136.841 37.215 137.315 37.5272 137.587L38.513 136.456ZM39.8459 139.53C40.1685 139.789 40.6407 139.738 40.9004 139.416C41.1601 139.093 41.109 138.621 40.7864 138.361L39.8459 139.53ZM43.895 140.732C43.5593 140.49 43.0904 140.565 42.8478 140.901C42.6053 141.237 42.6808 141.706 43.0165 141.948L43.895 140.732ZM45.4862 143.661C45.8312 143.89 46.2967 143.796 46.526 143.451C46.7554 143.106 46.6617 142.641 46.3168 142.411L45.4862 143.661ZM49.6634 144.514C49.3072 144.303 48.847 144.42 48.6357 144.777C48.4244 145.133 48.5418 145.593 48.8981 145.804L49.6634 144.514ZM51.5115 147.289C51.8754 147.487 52.3308 147.352 52.5287 146.989C52.7265 146.625 52.5919 146.169 52.228 145.971L51.5115 147.289ZM55.7256 147.764C55.3526 147.584 54.9042 147.741 54.7242 148.114C54.5442 148.487 54.7006 148.935 55.0737 149.115L55.7256 147.764ZM57.8077 150.376C58.1869 150.542 58.6295 150.37 58.7963 149.991C58.9631 149.612 58.791 149.17 58.4119 149.003L57.8077 150.376ZM62.0577 150.51C61.6715 150.36 61.237 150.552 61.0873 150.938C60.9376 151.324 61.1294 151.759 61.5156 151.908L62.0577 150.51ZM64.3393 152.951C64.7301 153.088 65.1582 152.883 65.2955 152.492C65.4328 152.101 65.2272 151.673 64.8364 151.536L64.3393 152.951ZM68.576 152.764C68.18 152.643 67.7605 152.865 67.6391 153.261C67.5177 153.657 67.7403 154.077 68.1363 154.198L68.576 152.764ZM71.0224 155.038C71.4217 155.148 71.8346 154.914 71.9447 154.514C72.0547 154.115 71.8203 153.702 71.4209 153.592L71.0224 155.038ZM75.2639 154.576C74.8609 154.481 74.4567 154.73 74.361 155.133C74.2653 155.536 74.5145 155.94 74.9175 156.036L75.2639 154.576ZM77.8316 156.689C78.2368 156.774 78.6348 156.515 78.7203 156.11C78.8059 155.705 78.5467 155.307 78.1415 155.221L77.8316 156.689ZM82.0204 155.976C81.6127 155.904 81.2231 156.175 81.1501 156.583C81.0772 156.99 81.3487 157.38 81.7564 157.453L82.0204 155.976ZM84.7273 157.95C85.1366 158.014 85.5202 157.735 85.5842 157.325C85.6482 156.916 85.3683 156.532 84.9591 156.468L84.7273 157.95ZM88.8717 157.026C88.4609 156.973 88.0849 157.263 88.0319 157.674C87.9789 158.085 88.269 158.461 88.6798 158.514L88.8717 157.026ZM91.6505 158.869C92.0622 158.914 92.4328 158.617 92.4781 158.205C92.5235 157.794 92.2265 157.423 91.8148 157.378L91.6505 158.869ZM95.7673 157.767C95.3547 157.731 94.991 158.036 94.955 158.449C94.9191 158.862 95.2244 159.225 95.6371 159.261L95.7673 157.767ZM98.6287 159.498C99.0419 159.528 99.4007 159.217 99.4302 158.803C99.4597 158.39 99.1486 158.031 98.7355 158.002L98.6287 159.498ZM102.682 158.245C102.268 158.224 101.915 158.541 101.894 158.955C101.872 159.369 102.19 159.721 102.604 159.743L102.682 158.245ZM105.597 159.88C106.011 159.896 106.359 159.574 106.376 159.16C106.392 158.746 106.07 158.397 105.656 158.381L105.597 159.88ZM109.632 158.505C109.218 158.495 108.875 158.823 108.865 159.237C108.855 159.651 109.183 159.995 109.597 160.005L109.632 158.505ZM112.582 160.059C112.997 160.064 113.337 159.733 113.342 159.319C113.348 158.905 113.016 158.565 112.602 158.559L112.582 160.059ZM116.571 158.586C116.157 158.585 115.821 158.921 115.82 159.335C115.82 159.749 116.156 160.085 116.57 160.086L116.571 158.586ZM119.564 160.075C119.978 160.072 120.311 159.733 120.308 159.319C120.305 158.905 119.967 158.572 119.552 158.575L119.564 160.075ZM123.527 158.525C123.113 158.532 122.783 158.874 122.79 159.288C122.797 159.702 123.139 160.032 123.553 160.025L123.527 158.525ZM126.542 159.964C126.956 159.955 127.284 159.611 127.274 159.197C127.265 158.783 126.921 158.455 126.507 158.465L126.542 159.964ZM130.478 158.359C130.064 158.371 129.739 158.717 129.751 159.131C129.763 159.545 130.109 159.871 130.523 159.858L130.478 158.359ZM133.509 159.763C133.923 159.749 134.247 159.403 134.233 158.989C134.219 158.575 133.872 158.25 133.458 158.264L133.509 159.763ZM137.442 158.122C137.028 158.138 136.705 158.486 136.721 158.9C136.736 159.314 137.085 159.637 137.498 159.621L137.442 158.122ZM140.481 159.506C140.894 159.49 141.217 159.142 141.201 158.728C141.184 158.314 140.836 157.991 140.422 158.008L140.481 159.506ZM144.382 157.85C143.969 157.867 143.647 158.216 143.663 158.629C143.68 159.043 144.029 159.365 144.443 159.349L144.382 157.85ZM147.444 159.229C147.858 159.212 148.18 158.864 148.164 158.45C148.147 158.036 147.799 157.714 147.385 157.73L147.444 159.229ZM151.367 157.576C150.953 157.591 150.63 157.939 150.645 158.353C150.661 158.767 151.009 159.09 151.423 159.075L151.367 157.576ZM154.388 158.967C154.802 158.953 155.126 158.606 155.111 158.192C155.097 157.778 154.749 157.454 154.336 157.468L154.388 158.967ZM158.331 157.34C157.917 157.352 157.592 157.697 157.604 158.111C157.616 158.525 157.961 158.851 158.375 158.839L158.331 157.34ZM161.366 158.759C161.781 158.749 162.108 158.405 162.098 157.991C162.088 157.577 161.745 157.25 161.331 157.259L161.366 158.759ZM165.294 157.182C164.88 157.188 164.549 157.529 164.556 157.943C164.562 158.357 164.903 158.688 165.317 158.682L165.294 157.182ZM168.295 158.649C168.709 158.647 169.043 158.309 169.04 157.894C169.037 157.48 168.699 157.147 168.285 157.149L168.295 158.649ZM172.303 157.149C171.889 157.146 171.551 157.48 171.548 157.894C171.545 158.308 171.879 158.646 172.293 158.649L172.303 157.149ZM175.253 158.686C175.667 158.694 176.009 158.364 176.017 157.95C176.025 157.536 175.695 157.194 175.281 157.186L175.253 158.686ZM179.263 157.296C178.849 157.28 178.501 157.604 178.485 158.018C178.47 158.431 178.793 158.779 179.207 158.795L179.263 157.296ZM182.206 158.929C182.62 158.951 182.973 158.633 182.995 158.22C183.017 157.806 182.699 157.453 182.286 157.431L182.206 158.929ZM186.252 157.689C185.839 157.657 185.478 157.966 185.446 158.379C185.414 158.792 185.723 159.152 186.136 159.184L186.252 157.689ZM189.08 159.443C189.492 159.484 189.859 159.183 189.9 158.771C189.941 158.358 189.64 157.991 189.227 157.951L189.08 159.443ZM193.244 158.412C192.833 158.358 192.457 158.647 192.403 159.057C192.348 159.468 192.637 159.845 193.048 159.899L193.244 158.412ZM195.956 160.322C196.365 160.387 196.75 160.108 196.815 159.699C196.88 159.29 196.602 158.906 196.193 158.84L195.956 160.322ZM200.143 159.554C199.737 159.472 199.342 159.734 199.259 160.14C199.177 160.546 199.439 160.942 199.845 161.024L200.143 159.554ZM202.75 161.667C203.152 161.763 203.557 161.515 203.654 161.113C203.751 160.71 203.503 160.305 203.1 160.208L202.75 161.667ZM206.931 161.234C206.534 161.116 206.117 161.342 205.999 161.74C205.881 162.137 206.107 162.554 206.504 162.672L206.931 161.234ZM209.346 163.586C209.738 163.722 210.165 163.515 210.301 163.123C210.437 162.732 210.23 162.305 209.838 162.169L209.346 163.586ZM213.594 163.613C213.213 163.451 212.773 163.629 212.611 164.01C212.449 164.392 212.627 164.832 213.008 164.994L213.594 163.613ZM215.664 166.206C216.036 166.389 216.485 166.235 216.668 165.863C216.85 165.491 216.697 165.042 216.325 164.859L215.664 166.206ZM219.889 166.788C219.533 166.576 219.073 166.693 218.861 167.049C218.649 167.404 218.766 167.865 219.122 168.077L219.889 166.788ZM221.587 169.653C221.929 169.888 222.396 169.801 222.63 169.459C222.865 169.118 222.778 168.651 222.436 168.417L221.587 169.653ZM225.65 170.84C225.331 170.576 224.858 170.62 224.594 170.939C224.329 171.258 224.374 171.731 224.693 171.995L225.65 170.84ZM226.885 173.943C227.185 174.229 227.66 174.217 227.946 173.917C228.231 173.617 228.22 173.143 227.92 172.857L226.885 173.943ZM230.713 175.778C230.44 175.465 229.967 175.433 229.654 175.705C229.342 175.977 229.309 176.45 229.581 176.763L230.713 175.778ZM231.408 179.009C231.658 179.339 232.128 179.404 232.458 179.154C232.788 178.903 232.853 178.433 232.603 178.103L231.408 179.009ZM234.932 181.478C234.712 181.127 234.249 181.021 233.899 181.241C233.548 181.461 233.442 181.924 233.662 182.275L234.932 181.478ZM235.117 184.76C235.316 185.123 235.771 185.257 236.135 185.058C236.499 184.86 236.632 184.404 236.434 184.04L235.117 184.76ZM238.215 187.62C238.044 187.243 237.6 187.075 237.222 187.246C236.845 187.416 236.677 187.86 236.848 188.238L238.215 187.62ZM238.022 191.037C238.172 191.423 238.606 191.614 238.992 191.464C239.379 191.314 239.57 190.88 239.42 190.494L238.022 191.037ZM240.724 194.189C240.598 193.795 240.176 193.577 239.781 193.703C239.387 193.829 239.169 194.251 239.295 194.645L240.724 194.189ZM240.121 197.441C240.23 197.84 240.642 198.076 241.042 197.967C241.442 197.858 241.677 197.446 241.568 197.046L240.121 197.441ZM242.549 201.068C242.461 200.663 242.062 200.406 241.657 200.494C241.252 200.581 240.995 200.98 241.083 201.385L242.549 201.068ZM241.65 204.249C241.723 204.657 242.113 204.928 242.521 204.854C242.929 204.781 243.2 204.39 243.126 203.983L241.65 204.249ZM243.736 207.821C243.679 207.411 243.301 207.124 242.89 207.181C242.48 207.238 242.193 207.617 242.25 208.027L243.736 207.821ZM242.616 210.991C242.661 211.403 243.032 211.701 243.443 211.656C243.855 211.611 244.152 211.24 244.108 210.829L242.616 210.991ZM244.486 215.014C244.456 214.601 244.097 214.29 243.684 214.32C243.271 214.35 242.96 214.709 242.99 215.123L244.486 215.014ZM243.162 217.94C243.183 218.354 243.535 218.672 243.949 218.652C244.362 218.631 244.681 218.279 244.66 217.865L243.162 217.94ZM244.8 221.748C244.79 221.333 244.447 221.005 244.033 221.014C243.619 221.024 243.291 221.367 243.3 221.781L244.8 221.748ZM243.336 224.766C243.337 225.18 243.674 225.515 244.088 225.514C244.502 225.513 244.837 225.177 244.836 224.762L243.336 224.766ZM244.793 228.922C244.802 228.508 244.474 228.165 244.06 228.156C243.646 228.146 243.303 228.474 243.293 228.888L244.793 228.922ZM0.7505 1.47282C0.731378 2.00005 0.713146 2.52555 0.695802 3.04932L2.19498 3.09897C2.21227 2.57677 2.23045 2.05285 2.24951 1.52718L0.7505 1.47282ZM0.575921 7.20288C0.550653 8.23214 0.528902 9.25456 0.510641 10.2702L2.0104 10.2972C2.0286 9.28484 2.05028 8.2657 2.07547 7.2397L0.575921 7.20288ZM0.456156 14.2966C0.447159 15.2942 0.441619 16.2851 0.43951 17.2693L1.93951 17.2725C1.94161 16.2918 1.94713 15.3044 1.95609 14.3102L0.456156 14.2966ZM0.449318 21.1706C0.456316 22.1371 0.466711 23.0969 0.480479 24.0502L1.98032 24.0285C1.96661 23.0789 1.95625 22.1227 1.94928 21.1598L0.449318 21.1706ZM0.555556 27.9134C0.581359 28.9665 0.611394 30.0114 0.645625 31.048L2.14481 30.9985C2.11072 29.9662 2.08081 28.9256 2.05511 27.8766L0.555556 27.9134ZM0.804837 35.1512C0.850191 36.1661 0.899692 37.173 0.953306 38.1717L2.45115 38.0913C2.39778 37.0971 2.3485 36.0947 2.30334 35.0842L0.804837 35.1512ZM1.1896 42.1241C1.25412 43.1016 1.32269 44.0711 1.3953 45.0327L2.89104 44.9198C2.81879 43.9629 2.75055 42.9981 2.68634 42.0254L1.1896 42.1241ZM1.70712 48.8372C1.79691 49.8514 1.89133 50.8565 1.99032 51.8526L3.48297 51.7042C3.38451 50.7135 3.29059 49.7138 3.20127 48.7049L1.70712 48.8372ZM2.4314 55.9702C2.5483 56.9866 2.67015 57.9932 2.7969 58.9902L4.28492 58.8011C4.15893 57.81 4.0378 56.8093 3.92158 55.7988L2.4314 55.9702ZM3.3299 62.9271C3.46962 63.8986 3.61417 64.8606 3.76351 65.8132L5.24541 65.5808C5.09707 64.6346 4.95345 63.6789 4.81462 62.7136L3.3299 62.9271ZM4.38621 69.5734C4.56576 70.6016 4.7511 71.6183 4.94216 72.6238L6.41579 72.3438C6.22614 71.3457 6.04213 70.3363 5.86385 69.3153L4.38621 69.5734ZM5.75158 76.6558C5.96175 77.6483 6.17775 78.6293 6.3995 79.599L7.86175 79.2645C7.64182 78.3029 7.42756 77.3298 7.21904 76.345L5.75158 76.6558ZM7.31707 83.417C7.55405 84.3564 7.79669 85.2847 8.04492 86.2018L9.49282 85.8099C9.24687 84.9012 9.00641 83.9813 8.77151 83.0501L7.31707 83.417ZM9.15112 90.093C9.44816 91.0887 9.75212 92.0706 10.0629 93.0389L11.4911 92.5805C11.1836 91.6221 10.8826 90.6501 10.5885 89.6642L9.15112 90.093ZM11.3423 96.84C11.6711 97.7724 12.0066 98.6914 12.3487 99.5973L13.752 99.0673C13.4138 98.1719 13.0821 97.2632 12.7569 96.3411L11.3423 96.84ZM13.7751 103.207C14.1763 104.177 14.5855 105.132 15.0025 106.071L16.3734 105.462C15.9617 104.535 15.5576 103.593 15.1614 102.634L13.7751 103.207ZM16.7125 109.743C17.1503 110.64 17.5958 111.521 18.0488 112.388L19.3781 111.693C18.9315 110.839 18.4923 109.97 18.0605 109.085L16.7125 109.743ZM19.9108 115.791C20.4307 116.699 20.9595 117.589 21.497 118.461L22.7741 117.675C22.2451 116.816 21.7246 115.94 21.2125 115.045L19.9108 115.791ZM23.6926 121.858C24.2529 122.684 24.8215 123.493 25.3984 124.285L26.6108 123.401C26.0439 122.623 25.4849 121.828 24.934 121.016L23.6926 121.858ZM27.8032 127.43C28.4484 128.235 29.1028 129.02 29.7662 129.786L30.9005 128.805C30.2493 128.052 29.6068 127.282 28.9732 126.492L27.8032 127.43ZM32.4669 132.754C33.1537 133.471 33.8491 134.171 34.5528 134.852L35.5964 133.775C34.9063 133.107 34.2242 132.421 33.5505 131.717L32.4669 132.754ZM37.5272 137.587C38.2913 138.253 39.0643 138.901 39.8459 139.53L40.7864 138.361C40.0202 137.744 39.2623 137.11 38.513 136.456L37.5272 137.587ZM43.0165 141.948C43.8316 142.537 44.6549 143.108 45.4862 143.661L46.3168 142.411C45.5015 141.869 44.6941 141.31 43.895 140.732L43.0165 141.948ZM48.8981 145.804C49.7616 146.317 50.6328 146.811 51.5115 147.289L52.228 145.971C51.3656 145.502 50.5106 145.017 49.6634 144.514L48.8981 145.804ZM55.0737 149.115C55.9781 149.552 56.8895 149.972 57.8077 150.376L58.4119 149.003C57.5095 148.606 56.614 148.193 55.7256 147.764L55.0737 149.115ZM61.5156 151.908C62.4507 152.271 63.392 152.618 64.3393 152.951L64.8364 151.536C63.9039 151.208 62.9776 150.866 62.0577 150.51L61.5156 151.908ZM68.1363 154.198C69.093 154.492 70.0551 154.771 71.0224 155.038L71.4209 153.592C70.4671 153.329 69.5187 153.053 68.576 152.764L68.1363 154.198ZM74.9175 156.036C75.8844 156.265 76.8559 156.483 77.8316 156.689L78.1415 155.221C77.1776 155.018 76.2183 154.803 75.2639 154.576L74.9175 156.036ZM81.7564 157.453C82.743 157.629 83.7334 157.795 84.7273 157.95L84.9591 156.468C83.9756 156.315 82.9959 156.151 82.0204 155.976L81.7564 157.453ZM88.6798 158.514C89.667 158.641 90.6574 158.759 91.6505 158.869L91.8148 157.378C90.8306 157.269 89.8495 157.152 88.8717 157.026L88.6798 158.514ZM95.6371 159.261C96.632 159.348 97.6293 159.427 98.6287 159.498L98.7355 158.002C97.7436 157.931 96.7542 157.853 95.7673 157.767L95.6371 159.261ZM102.604 159.743C103.6 159.795 104.598 159.841 105.597 159.88L105.656 158.381C104.663 158.342 103.671 158.297 102.682 158.245L102.604 159.743ZM109.597 160.005C110.591 160.028 111.586 160.046 112.582 160.059L112.602 158.559C111.611 158.546 110.621 158.528 109.632 158.505L109.597 160.005ZM116.57 160.086C117.568 160.086 118.566 160.082 119.564 160.075L119.552 158.575C118.558 158.582 117.564 158.586 116.571 158.586L116.57 160.086ZM123.553 160.025C124.55 160.008 125.546 159.987 126.542 159.964L126.507 158.465C125.514 158.488 124.521 158.508 123.527 158.525L123.553 160.025ZM130.523 159.858C131.519 159.829 132.515 159.797 133.509 159.763L133.458 158.264C132.466 158.298 131.472 158.329 130.478 158.359L130.523 159.858ZM137.498 159.621C138.494 159.584 139.488 159.545 140.481 159.506L140.422 158.008C139.43 158.047 138.437 158.085 137.442 158.122L137.498 159.621ZM144.443 159.349C145.445 159.309 146.446 159.268 147.444 159.229L147.385 157.73C146.386 157.77 145.385 157.81 144.382 157.85L144.443 159.349ZM151.423 159.075C152.414 159.038 153.402 159.002 154.388 158.967L154.336 157.468C153.349 157.503 152.359 157.539 151.367 157.576L151.423 159.075ZM158.375 158.839C159.376 158.81 160.373 158.783 161.366 158.759L161.331 157.259C160.334 157.283 159.335 157.31 158.331 157.34L158.375 158.839ZM165.317 158.682C166.314 158.667 167.307 158.656 168.295 158.649L168.285 157.149C167.293 157.156 166.296 157.167 165.294 157.182L165.317 158.682ZM172.293 158.649C173.285 158.656 174.272 158.668 175.253 158.686L175.281 157.186C174.294 157.168 173.301 157.156 172.303 157.149L172.293 158.649ZM179.207 158.795C180.214 158.832 181.214 158.876 182.206 158.929L182.286 157.431C181.285 157.378 180.277 157.333 179.263 157.296L179.207 158.795ZM186.136 159.184C187.126 159.261 188.107 159.347 189.08 159.443L189.227 157.951C188.244 157.853 187.252 157.766 186.252 157.689L186.136 159.184ZM193.048 159.899C194.027 160.028 194.997 160.169 195.956 160.322L196.193 158.84C195.219 158.685 194.236 158.542 193.244 158.412L193.048 159.899ZM199.845 161.024C200.826 161.223 201.794 161.437 202.75 161.667L203.1 160.208C202.126 159.974 201.141 159.756 200.143 159.554L199.845 161.024ZM206.504 162.672C207.466 162.958 208.414 163.262 209.346 163.586L209.838 162.169C208.883 161.837 207.914 161.526 206.931 161.234L206.504 162.672ZM213.008 164.994C213.91 165.376 214.796 165.78 215.664 166.206L216.325 164.859C215.431 164.421 214.52 164.005 213.594 163.613L213.008 164.994ZM219.122 168.077C219.962 168.577 220.784 169.102 221.587 169.653L222.436 168.417C221.606 167.847 220.756 167.304 219.889 166.788L219.122 168.077ZM224.693 171.995C225.443 172.617 226.174 173.265 226.885 173.943L227.92 172.857C227.184 172.155 226.427 171.483 225.65 170.84L224.693 171.995ZM229.581 176.763C230.209 177.484 230.818 178.232 231.408 179.009L232.603 178.103C231.993 177.299 231.363 176.524 230.713 175.778L229.581 176.763ZM233.662 182.275C234.165 183.076 234.65 183.904 235.117 184.76L236.434 184.04C235.952 183.159 235.452 182.305 234.932 181.478L233.662 182.275ZM236.848 188.238C237.257 189.143 237.648 190.076 238.022 191.037L239.42 190.494C239.037 189.508 238.635 188.551 238.215 187.62L236.848 188.238ZM239.295 194.645C239.585 195.554 239.861 196.486 240.121 197.441L241.568 197.046C241.302 196.071 241.021 195.119 240.724 194.189L239.295 194.645ZM241.083 201.385C241.285 202.32 241.474 203.274 241.65 204.249L243.126 203.983C242.947 202.991 242.755 202.02 242.549 201.068L241.083 201.385ZM242.25 208.027C242.384 208.996 242.507 209.984 242.616 210.991L244.108 210.829C243.996 209.808 243.872 208.805 243.736 207.821L242.25 208.027ZM242.99 215.123C243.057 216.047 243.114 216.986 243.162 217.94L244.66 217.865C244.612 216.9 244.554 215.95 244.486 215.014L242.99 215.123ZM243.3 221.781C243.322 222.761 243.334 223.756 243.336 224.766L244.836 224.762C244.834 223.743 244.821 222.738 244.8 221.748L243.3 221.781ZM243.293 228.888C243.282 229.414 243.267 229.943 243.25 230.476L244.75 230.524C244.767 229.986 244.781 229.452 244.793 228.922L243.293 228.888Z" fill="url(#paint0_linear_111_982)"/>
<defs>
<linearGradient id="paint0_linear_111_982" x1="1.18854" y1="1.5" x2="283.655" y2="159.971" gradientUnits="userSpaceOnUse">
<stop stop-color="#845EF7"/>
<stop offset="1" stop-color="#364FC7"/>
</linearGradient>
</defs>
</svg>
