<svg width="696" height="436" viewBox="0 0 696 436" fill="none" xmlns="http://www.w3.org/2000/svg">
<rect width="144.82" height="116.027" rx="16.1731" transform="matrix(0.866044 0.499967 -0.866044 0.499967 372.116 288.061)" fill="url(#paint0_linear_111_1155)"/>
<rect width="144.82" height="116.027" rx="16.1731" transform="matrix(0.866044 0.499967 -0.866044 0.499967 372.116 290.251)" fill="url(#paint1_linear_111_1155)"/>
<rect width="144.82" height="116.027" rx="16.1731" transform="matrix(0.866044 0.499967 -0.866044 0.499967 372.116 292.442)" fill="url(#paint2_linear_111_1155)"/>
<rect width="144.82" height="116.027" rx="16.1731" transform="matrix(0.866044 0.499967 -0.866044 0.499967 372.116 294.632)" fill="url(#paint3_linear_111_1155)"/>
<rect width="144.82" height="116.027" rx="16.1731" transform="matrix(0.866044 0.499967 -0.866044 0.499967 372.116 296.823)" fill="url(#paint4_linear_111_1155)"/>
<rect width="144.82" height="116.027" rx="16.1731" transform="matrix(0.866044 0.499967 -0.866044 0.499967 372.116 299.014)" fill="url(#paint5_linear_111_1155)"/>
<rect width="144.82" height="116.027" rx="16.1731" transform="matrix(0.866044 0.499967 -0.866044 0.499967 372.116 301.204)" fill="url(#paint6_linear_111_1155)"/>
<rect width="144.82" height="116.027" rx="16.1731" transform="matrix(0.866044 0.499967 -0.866044 0.499967 372.116 303.395)" fill="url(#paint7_linear_111_1155)"/>
<rect width="144.82" height="116.027" rx="16.1731" transform="matrix(0.866044 0.499967 -0.866044 0.499967 372.116 305.585)" fill="url(#paint8_linear_111_1155)"/>
<rect width="144.82" height="116.027" rx="16.1731" transform="matrix(0.866044 0.499967 -0.866044 0.499967 372.116 285.87)" fill="url(#paint9_linear_111_1155)"/>
<rect width="144.82" height="116.027" rx="16.1731" transform="matrix(0.866044 0.499967 -0.866044 0.499967 570.363 170.865)" fill="url(#paint10_linear_111_1155)"/>
<rect width="144.82" height="116.027" rx="16.1731" transform="matrix(0.866044 0.499967 -0.866044 0.499967 570.363 173.056)" fill="url(#paint11_linear_111_1155)"/>
<rect width="144.82" height="116.027" rx="16.1731" transform="matrix(0.866044 0.499967 -0.866044 0.499967 570.363 175.246)" fill="url(#paint12_linear_111_1155)"/>
<rect width="144.82" height="116.027" rx="16.1731" transform="matrix(0.866044 0.499967 -0.866044 0.499967 570.363 177.437)" fill="url(#paint13_linear_111_1155)"/>
<rect width="144.82" height="116.027" rx="16.1731" transform="matrix(0.866044 0.499967 -0.866044 0.499967 570.363 179.627)" fill="url(#paint14_linear_111_1155)"/>
<rect width="144.82" height="116.027" rx="16.1731" transform="matrix(0.866044 0.499967 -0.866044 0.499967 570.363 181.818)" fill="url(#paint15_linear_111_1155)"/>
<rect width="144.82" height="116.027" rx="16.1731" transform="matrix(0.866044 0.499967 -0.866044 0.499967 570.363 184.008)" fill="url(#paint16_linear_111_1155)"/>
<rect width="144.82" height="116.027" rx="16.1731" transform="matrix(0.866044 0.499967 -0.866044 0.499967 570.363 186.199)" fill="url(#paint17_linear_111_1155)"/>
<rect width="144.82" height="116.027" rx="16.1731" transform="matrix(0.866044 0.499967 -0.866044 0.499967 570.363 188.389)" fill="url(#paint18_linear_111_1155)"/>
<rect width="144.82" height="116.027" rx="16.1731" transform="matrix(0.866044 0.499967 -0.866044 0.499967 570.363 168.674)" fill="url(#paint19_linear_111_1155)"/>
<rect width="202.748" height="116.027" rx="16.1731" transform="matrix(0.866044 0.499967 -0.866044 0.499967 100.484 125.958)" fill="url(#paint20_linear_111_1155)"/>
<rect width="202.748" height="116.027" rx="16.1731" transform="matrix(0.866044 0.499967 -0.866044 0.499967 100.484 129.244)" fill="url(#paint21_linear_111_1155)"/>
<rect width="202.748" height="116.027" rx="16.1731" transform="matrix(0.866044 0.499967 -0.866044 0.499967 100.484 132.53)" fill="url(#paint22_linear_111_1155)"/>
<rect width="202.748" height="116.027" rx="16.1731" transform="matrix(0.866044 0.499967 -0.866044 0.499967 100.484 135.816)" fill="url(#paint23_linear_111_1155)"/>
<rect width="202.748" height="116.027" rx="16.1731" transform="matrix(0.866044 0.499967 -0.866044 0.499967 100.484 139.102)" fill="url(#paint24_linear_111_1155)"/>
<rect width="202.748" height="116.027" rx="16.1731" transform="matrix(0.866044 0.499967 -0.866044 0.499967 100.484 142.387)" fill="url(#paint25_linear_111_1155)"/>
<rect width="202.748" height="116.027" rx="16.1731" transform="matrix(0.866044 0.499967 -0.866044 0.499967 100.484 123.768)" fill="url(#paint26_linear_111_1155)"/>
<rect width="202.748" height="116.027" rx="16.1731" transform="matrix(0.866044 0.499967 -0.866044 0.499967 294.35 2.19055)" fill="url(#paint27_linear_111_1155)"/>
<rect width="202.748" height="116.027" rx="16.1731" transform="matrix(0.866044 0.499967 -0.866044 0.499967 294.35 5.47644)" fill="url(#paint28_linear_111_1155)"/>
<rect width="202.748" height="116.027" rx="16.1731" transform="matrix(0.866044 0.499967 -0.866044 0.499967 294.35 8.76233)" fill="url(#paint29_linear_111_1155)"/>
<rect width="202.748" height="116.027" rx="16.1731" transform="matrix(0.866044 0.499967 -0.866044 0.499967 294.35 12.0482)" fill="url(#paint30_linear_111_1155)"/>
<rect width="202.748" height="116.027" rx="16.1731" transform="matrix(0.866044 0.499967 -0.866044 0.499967 294.35 15.334)" fill="url(#paint31_linear_111_1155)"/>
<rect width="202.748" height="116.027" rx="16.1731" transform="matrix(0.866044 0.499967 -0.866044 0.499967 294.35 18.6199)" fill="url(#paint32_linear_111_1155)"/>
<rect width="202.748" height="116.027" rx="16.1731" transform="matrix(0.866044 0.499967 -0.866044 0.499967 294.35 0)" fill="url(#paint33_linear_111_1155)"/>
<g filter="url(#filter0_d_111_1155)">
<rect width="318.603" height="232.054" rx="32.3462" transform="matrix(0.866044 0.499967 -0.866044 0.499967 298.449 46.0021)" fill="url(#paint34_linear_111_1155)"/>
<path d="M357.843 120.659C313.946 95.3174 297.395 155.556 253.498 130.214C297.395 155.556 193.05 165.11 236.948 190.452" stroke="#F3F0FF" stroke-width="16.1731" stroke-linecap="round" stroke-linejoin="round"/>
<path d="M423.688 158.672C467.586 184.014 363.241 193.568 407.138 218.91C363.241 193.568 346.69 253.807 302.793 228.465" stroke="#F3F0FF" stroke-width="16.1731" stroke-linecap="round" stroke-linejoin="round"/>
</g>
<defs>
<filter id="filter0_d_111_1155" x="83.8904" y="55.4755" width="504.074" height="343.364" filterUnits="userSpaceOnUse" color-interpolation-filters="sRGB">
<feFlood flood-opacity="0" result="BackgroundImageFix"/>
<feColorMatrix in="SourceAlpha" type="matrix" values="0 0 0 0 0 0 0 0 0 0 0 0 0 0 0 0 0 0 127 0" result="hardAlpha"/>
<feOffset dy="57"/>
<feGaussianBlur stdDeviation="15"/>
<feComposite in2="hardAlpha" operator="out"/>
<feColorMatrix type="matrix" values="0 0 0 0 0.129412 0 0 0 0 0.145098 0 0 0 0 0.160784 0 0 0 0.5 0"/>
<feBlend mode="normal" in2="BackgroundImageFix" result="effect1_dropShadow_111_1155"/>
<feBlend mode="normal" in="SourceGraphic" in2="effect1_dropShadow_111_1155" result="shape"/>
</filter>
<linearGradient id="paint0_linear_111_1155" x1="0" y1="0" x2="137.747" y2="115.827" gradientUnits="userSpaceOnUse">
<stop stop-color="#5F3DC4"/>
<stop offset="1" stop-color="#5C7CFA"/>
</linearGradient>
<linearGradient id="paint1_linear_111_1155" x1="0" y1="0" x2="137.747" y2="115.827" gradientUnits="userSpaceOnUse">
<stop stop-color="#5F3DC4"/>
<stop offset="1" stop-color="#5C7CFA"/>
</linearGradient>
<linearGradient id="paint2_linear_111_1155" x1="0" y1="0" x2="137.747" y2="115.827" gradientUnits="userSpaceOnUse">
<stop stop-color="#5F3DC4"/>
<stop offset="1" stop-color="#5C7CFA"/>
</linearGradient>
<linearGradient id="paint3_linear_111_1155" x1="0" y1="0" x2="137.747" y2="115.827" gradientUnits="userSpaceOnUse">
<stop stop-color="#5F3DC4"/>
<stop offset="1" stop-color="#5C7CFA"/>
</linearGradient>
<linearGradient id="paint4_linear_111_1155" x1="0" y1="0" x2="137.747" y2="115.827" gradientUnits="userSpaceOnUse">
<stop stop-color="#5F3DC4"/>
<stop offset="1" stop-color="#5C7CFA"/>
</linearGradient>
<linearGradient id="paint5_linear_111_1155" x1="0" y1="0" x2="137.747" y2="115.827" gradientUnits="userSpaceOnUse">
<stop stop-color="#5F3DC4"/>
<stop offset="1" stop-color="#5C7CFA"/>
</linearGradient>
<linearGradient id="paint6_linear_111_1155" x1="0" y1="0" x2="137.747" y2="115.827" gradientUnits="userSpaceOnUse">
<stop stop-color="#5F3DC4"/>
<stop offset="1" stop-color="#5C7CFA"/>
</linearGradient>
<linearGradient id="paint7_linear_111_1155" x1="0" y1="0" x2="137.747" y2="115.827" gradientUnits="userSpaceOnUse">
<stop stop-color="#5F3DC4"/>
<stop offset="1" stop-color="#5C7CFA"/>
</linearGradient>
<linearGradient id="paint8_linear_111_1155" x1="0" y1="0" x2="137.747" y2="115.827" gradientUnits="userSpaceOnUse">
<stop stop-color="#5F3DC4"/>
<stop offset="1" stop-color="#5C7CFA"/>
</linearGradient>
<linearGradient id="paint9_linear_111_1155" x1="0" y1="0" x2="154.208" y2="101.806" gradientUnits="userSpaceOnUse">
<stop stop-color="#845EF7"/>
<stop offset="1" stop-color="#364FC7"/>
</linearGradient>
<linearGradient id="paint10_linear_111_1155" x1="0" y1="0" x2="137.747" y2="115.827" gradientUnits="userSpaceOnUse">
<stop stop-color="#5F3DC4"/>
<stop offset="1" stop-color="#5C7CFA"/>
</linearGradient>
<linearGradient id="paint11_linear_111_1155" x1="0" y1="0" x2="137.747" y2="115.827" gradientUnits="userSpaceOnUse">
<stop stop-color="#5F3DC4"/>
<stop offset="1" stop-color="#5C7CFA"/>
</linearGradient>
<linearGradient id="paint12_linear_111_1155" x1="0" y1="0" x2="137.747" y2="115.827" gradientUnits="userSpaceOnUse">
<stop stop-color="#5F3DC4"/>
<stop offset="1" stop-color="#5C7CFA"/>
</linearGradient>
<linearGradient id="paint13_linear_111_1155" x1="0" y1="0" x2="137.747" y2="115.827" gradientUnits="userSpaceOnUse">
<stop stop-color="#5F3DC4"/>
<stop offset="1" stop-color="#5C7CFA"/>
</linearGradient>
<linearGradient id="paint14_linear_111_1155" x1="0" y1="0" x2="137.747" y2="115.827" gradientUnits="userSpaceOnUse">
<stop stop-color="#5F3DC4"/>
<stop offset="1" stop-color="#5C7CFA"/>
</linearGradient>
<linearGradient id="paint15_linear_111_1155" x1="0" y1="0" x2="137.747" y2="115.827" gradientUnits="userSpaceOnUse">
<stop stop-color="#5F3DC4"/>
<stop offset="1" stop-color="#5C7CFA"/>
</linearGradient>
<linearGradient id="paint16_linear_111_1155" x1="0" y1="0" x2="137.747" y2="115.827" gradientUnits="userSpaceOnUse">
<stop stop-color="#5F3DC4"/>
<stop offset="1" stop-color="#5C7CFA"/>
</linearGradient>
<linearGradient id="paint17_linear_111_1155" x1="0" y1="0" x2="137.747" y2="115.827" gradientUnits="userSpaceOnUse">
<stop stop-color="#5F3DC4"/>
<stop offset="1" stop-color="#5C7CFA"/>
</linearGradient>
<linearGradient id="paint18_linear_111_1155" x1="0" y1="0" x2="137.747" y2="115.827" gradientUnits="userSpaceOnUse">
<stop stop-color="#5F3DC4"/>
<stop offset="1" stop-color="#5C7CFA"/>
</linearGradient>
<linearGradient id="paint19_linear_111_1155" x1="0" y1="0" x2="154.208" y2="101.806" gradientUnits="userSpaceOnUse">
<stop stop-color="#845EF7"/>
<stop offset="1" stop-color="#364FC7"/>
</linearGradient>
<linearGradient id="paint20_linear_111_1155" x1="0" y1="0" x2="137.981" y2="162.433" gradientUnits="userSpaceOnUse">
<stop stop-color="#5F3DC4"/>
<stop offset="1" stop-color="#5C7CFA"/>
</linearGradient>
<linearGradient id="paint21_linear_111_1155" x1="0" y1="0" x2="137.981" y2="162.433" gradientUnits="userSpaceOnUse">
<stop stop-color="#5F3DC4"/>
<stop offset="1" stop-color="#5C7CFA"/>
</linearGradient>
<linearGradient id="paint22_linear_111_1155" x1="0" y1="0" x2="137.981" y2="162.433" gradientUnits="userSpaceOnUse">
<stop stop-color="#5F3DC4"/>
<stop offset="1" stop-color="#5C7CFA"/>
</linearGradient>
<linearGradient id="paint23_linear_111_1155" x1="0" y1="0" x2="137.981" y2="162.433" gradientUnits="userSpaceOnUse">
<stop stop-color="#5F3DC4"/>
<stop offset="1" stop-color="#5C7CFA"/>
</linearGradient>
<linearGradient id="paint24_linear_111_1155" x1="0" y1="0" x2="137.981" y2="162.433" gradientUnits="userSpaceOnUse">
<stop stop-color="#5F3DC4"/>
<stop offset="1" stop-color="#5C7CFA"/>
</linearGradient>
<linearGradient id="paint25_linear_111_1155" x1="0" y1="0" x2="137.981" y2="162.433" gradientUnits="userSpaceOnUse">
<stop stop-color="#5F3DC4"/>
<stop offset="1" stop-color="#5C7CFA"/>
</linearGradient>
<linearGradient id="paint26_linear_111_1155" x1="0" y1="0" x2="167.176" y2="154.513" gradientUnits="userSpaceOnUse">
<stop stop-color="#845EF7"/>
<stop offset="1" stop-color="#364FC7"/>
</linearGradient>
<linearGradient id="paint27_linear_111_1155" x1="0" y1="0" x2="137.981" y2="162.433" gradientUnits="userSpaceOnUse">
<stop stop-color="#5F3DC4"/>
<stop offset="1" stop-color="#5C7CFA"/>
</linearGradient>
<linearGradient id="paint28_linear_111_1155" x1="0" y1="0" x2="137.981" y2="162.433" gradientUnits="userSpaceOnUse">
<stop stop-color="#5F3DC4"/>
<stop offset="1" stop-color="#5C7CFA"/>
</linearGradient>
<linearGradient id="paint29_linear_111_1155" x1="0" y1="0" x2="137.981" y2="162.433" gradientUnits="userSpaceOnUse">
<stop stop-color="#5F3DC4"/>
<stop offset="1" stop-color="#5C7CFA"/>
</linearGradient>
<linearGradient id="paint30_linear_111_1155" x1="0" y1="0" x2="137.981" y2="162.433" gradientUnits="userSpaceOnUse">
<stop stop-color="#5F3DC4"/>
<stop offset="1" stop-color="#5C7CFA"/>
</linearGradient>
<linearGradient id="paint31_linear_111_1155" x1="0" y1="0" x2="137.981" y2="162.433" gradientUnits="userSpaceOnUse">
<stop stop-color="#5F3DC4"/>
<stop offset="1" stop-color="#5C7CFA"/>
</linearGradient>
<linearGradient id="paint32_linear_111_1155" x1="0" y1="0" x2="137.981" y2="162.433" gradientUnits="userSpaceOnUse">
<stop stop-color="#5F3DC4"/>
<stop offset="1" stop-color="#5C7CFA"/>
</linearGradient>
<linearGradient id="paint33_linear_111_1155" x1="0" y1="0" x2="167.176" y2="154.513" gradientUnits="userSpaceOnUse">
<stop stop-color="#845EF7"/>
<stop offset="1" stop-color="#364FC7"/>
</linearGradient>
<linearGradient id="paint34_linear_111_1155" x1="0" y1="0" x2="318.928" y2="231.606" gradientUnits="userSpaceOnUse">
<stop stop-color="#845EF7"/>
<stop offset="1" stop-color="#364FC7"/>
</linearGradient>
</defs>
</svg>
