<svg width="714" height="620" viewBox="0 0 714 620" fill="none" xmlns="http://www.w3.org/2000/svg">
<rect x="439.88" y="374.667" width="161.94" height="129.333" rx="15.0417" fill="url(#paint0_linear_27_79)"/>
<rect x="439.88" y="116" width="161.94" height="129.333" rx="15.0417" fill="url(#paint1_linear_27_79)"/>
<rect x="440.06" y="116" width="161.94" height="129.333" rx="15.0417" fill="url(#paint2_linear_27_79)"/>
<rect x="116" y="374.667" width="226.716" height="129.333" rx="15.0417" fill="url(#paint3_linear_27_79)"/>
<rect x="116" y="116" width="226.716" height="129.333" rx="15.0417" fill="url(#paint4_linear_27_79)"/>
<g filter="url(#filter0_d_27_79)">
<rect x="180.776" y="180.667" width="356.268" height="258.667" rx="30.0833" fill="url(#paint5_linear_27_79)"/>
</g>
<path d="M316.401 229.167C259.722 229.167 316.401 306.969 259.722 306.969C316.401 306.969 259.722 384.771 316.401 384.771" stroke="#F3F0FF" stroke-width="15.0417" stroke-linecap="round" stroke-linejoin="round"/>
<path d="M401.42 229.167C458.099 229.167 401.42 306.969 458.099 306.969C401.42 306.969 458.099 384.771 401.42 384.771" stroke="#F3F0FF" stroke-width="15.0417" stroke-linecap="round" stroke-linejoin="round"/>
<defs>
<filter id="filter0_d_27_79" x="0.276077" y="0.166687" width="717.268" height="619.667" filterUnits="userSpaceOnUse" color-interpolation-filters="sRGB">
<feFlood flood-opacity="0" result="BackgroundImageFix"/>
<feColorMatrix in="SourceAlpha" type="matrix" values="0 0 0 0 0 0 0 0 0 0 0 0 0 0 0 0 0 0 127 0" result="hardAlpha"/>
<feOffset/>
<feGaussianBlur stdDeviation="90.25"/>
<feComposite in2="hardAlpha" operator="out"/>
<feColorMatrix type="matrix" values="0 0 0 0 0.372549 0 0 0 0 0.239216 0 0 0 0 0.768627 0 0 0 0.5 0"/>
<feBlend mode="normal" in2="BackgroundImageFix" result="effect1_dropShadow_27_79"/>
<feBlend mode="normal" in="SourceGraphic" in2="effect1_dropShadow_27_79" result="shape"/>
</filter>
<linearGradient id="paint0_linear_27_79" x1="439.88" y1="374.667" x2="593.508" y2="504.256" gradientUnits="userSpaceOnUse">
<stop stop-color="#5F3DC4"/>
<stop offset="1" stop-color="#5C7CFA"/>
</linearGradient>
<linearGradient id="paint1_linear_27_79" x1="439.88" y1="116" x2="593.508" y2="245.589" gradientUnits="userSpaceOnUse">
<stop stop-color="#5F3DC4"/>
<stop offset="1" stop-color="#5C7CFA"/>
</linearGradient>
<linearGradient id="paint2_linear_27_79" x1="440.06" y1="116" x2="593.687" y2="245.589" gradientUnits="userSpaceOnUse">
<stop stop-color="#5F3DC4"/>
<stop offset="1" stop-color="#5C7CFA"/>
</linearGradient>
<linearGradient id="paint3_linear_27_79" x1="116" y1="374.667" x2="269.726" y2="556.208" gradientUnits="userSpaceOnUse">
<stop stop-color="#5F3DC4"/>
<stop offset="1" stop-color="#5C7CFA"/>
</linearGradient>
<linearGradient id="paint4_linear_27_79" x1="116" y1="116" x2="269.726" y2="297.541" gradientUnits="userSpaceOnUse">
<stop stop-color="#5F3DC4"/>
<stop offset="1" stop-color="#5C7CFA"/>
</linearGradient>
<linearGradient id="paint5_linear_27_79" x1="180.776" y1="180.667" x2="536.628" y2="439.906" gradientUnits="userSpaceOnUse">
<stop stop-color="#845EF7"/>
<stop offset="1" stop-color="#364FC7"/>
</linearGradient>
</defs>
</svg>
