<svg width="186" height="63" viewBox="0 0 186 63" fill="none" xmlns="http://www.w3.org/2000/svg">
<rect x="30.8104" y="29.3276" width="10.8621" height="8.68965" rx="1.08621" fill="#F8F9FA"/>
<rect x="30.8104" y="11.9482" width="10.8621" height="8.68965" rx="1.08621" fill="#F8F9FA"/>
<rect x="9.08618" y="29.3276" width="15.2069" height="8.68965" rx="1.08621" fill="#F8F9FA"/>
<rect x="9.08618" y="11.9482" width="15.2069" height="8.68965" rx="1.08621" fill="#F8F9FA"/>
<g filter="url(#filter0_d_254_245)">
<rect x="13.431" y="16.293" width="23.8965" height="17.3793" rx="2.17241" fill="#E9ECEF"/>
</g>
<path d="M22.528 19.5518C18.7263 19.5518 22.528 24.7791 18.7263 24.7791C22.528 24.7791 18.7263 30.0065 22.528 30.0065" stroke="url(#paint0_linear_254_245)" stroke-width="1.08621" stroke-linecap="round" stroke-linejoin="round"/>
<path d="M28.2306 19.5518C32.0323 19.5518 28.2306 24.7791 32.0323 24.7791C28.2306 24.7791 32.0323 30.0065 28.2306 30.0065" stroke="url(#paint1_linear_254_245)" stroke-width="1.08621" stroke-linecap="round" stroke-linejoin="round"/>
<path d="M48.4503 16.4417H57.4876C59.6889 16.4417 61.4269 16.5923 62.7013 16.8935C63.999 17.1948 64.9375 17.7277 65.5168 18.4924C66.1193 19.2339 66.4205 20.2767 66.4205 21.6207V25.896C66.4205 27.379 66.0961 28.5377 65.4473 29.3719C64.8216 30.2061 63.8136 30.797 62.4233 31.1446C61.0561 31.4921 59.2023 31.6659 56.8619 31.6659H53.8727V39H48.4503V16.4417ZM57.3138 27.9468C58.7273 27.9468 59.7237 27.7846 60.303 27.4601C60.8823 27.1126 61.172 26.5332 61.172 25.7222V22.1073C61.172 21.3658 60.8939 20.8792 60.3378 20.6475C59.8048 20.4157 58.7736 20.2999 57.2442 20.2999H53.8727V27.9468H57.3138ZM78.4454 39.3476C77.4026 39.3476 76.5452 39.3128 75.8732 39.2433C75.2012 39.1738 74.4829 39.0348 73.7182 38.8262C72.884 38.5945 72.212 38.2701 71.7022 37.853C71.1924 37.4127 70.7637 36.7986 70.4161 36.0108C70.0685 35.2461 69.8948 34.3192 69.8948 33.2301V28.2596C69.8948 27.1473 70.0685 26.1741 70.4161 25.3399C70.7637 24.5057 71.2156 23.8568 71.7717 23.3934C72.2583 22.9994 72.8956 22.675 73.6834 22.4201C74.4945 22.1421 75.2823 21.9683 76.047 21.8988C76.9276 21.8524 77.727 21.8292 78.4454 21.8292C79.5113 21.8292 80.3571 21.864 80.9828 21.9335C81.6316 21.9799 82.3383 22.1189 83.103 22.3506C83.9372 22.6055 84.6092 22.9531 85.119 23.3934C85.652 23.8337 86.1039 24.4593 86.4746 25.2703C86.8222 26.1046 86.996 27.101 86.996 28.2596V33.2301C86.996 34.2728 86.8222 35.1881 86.4746 35.976C86.1502 36.7639 85.7215 37.3779 85.1885 37.8182C84.7251 38.2121 84.0879 38.5366 83.2768 38.7914C82.489 39.0232 81.7127 39.1738 80.948 39.2433C80.2528 39.3128 79.4186 39.3476 78.4454 39.3476ZM78.4454 36.1846C79.3954 36.1846 80.1138 36.115 80.6004 35.976C81.087 35.8138 81.423 35.5705 81.6084 35.2461C81.817 34.9217 81.9212 34.4466 81.9212 33.821V27.4601C81.9212 26.5332 81.6779 25.8844 81.1913 25.5137C80.7047 25.1429 79.7894 24.9575 78.4454 24.9575C77.1014 24.9575 76.1861 25.1429 75.6994 25.5137C75.2128 25.8844 74.9695 26.5332 74.9695 27.4601V33.821C74.9695 34.4466 75.0622 34.9217 75.2476 35.2461C75.4561 35.5705 75.8037 35.8138 76.2903 35.976C76.777 36.115 77.4953 36.1846 78.4454 36.1846ZM91.299 22.1768H96.1305V25.1313C96.1305 24.5983 96.3506 24.077 96.7909 23.5672C97.2311 23.0574 97.7873 22.6403 98.4593 22.3159C99.1545 21.9914 99.838 21.8292 100.51 21.8292H102.317V26.035H100.58C99.1429 26.035 98.0769 26.2552 97.3818 26.6954C96.7098 27.1357 96.3738 27.8657 96.3738 28.8852V39H91.299V22.1768ZM113.873 39.3476C113.016 39.3476 112.298 39.3128 111.718 39.2433C111.139 39.1738 110.56 39.0348 109.98 38.8262C109.332 38.6177 108.799 38.328 108.382 37.9572C107.988 37.5865 107.663 37.0767 107.408 36.4279C107.13 35.7559 106.991 34.9796 106.991 34.099V25.3051H103.585V22.1768H106.991V17.3106H112.066V22.1768H116.689V25.3051H112.066V33.2301C112.066 34.0411 112.135 34.6552 112.274 35.0723C112.414 35.4662 112.68 35.7559 113.074 35.9412C113.468 36.1034 114.07 36.1846 114.881 36.1846C115.206 36.1846 115.808 36.1266 116.689 36.0108V39.1738C115.6 39.2897 114.661 39.3476 113.873 39.3476ZM128.028 39.3476C126.985 39.3476 126.128 39.3128 125.456 39.2433C124.784 39.1738 124.066 39.0348 123.301 38.8262C122.467 38.5945 121.795 38.2701 121.285 37.853C120.775 37.4127 120.346 36.7986 119.999 36.0108C119.651 35.2461 119.477 34.3192 119.477 33.2301V28.2596C119.477 27.1473 119.651 26.1741 119.999 25.3399C120.346 24.5057 120.798 23.8568 121.354 23.3934C121.841 22.9994 122.478 22.675 123.266 22.4201C124.077 22.1421 124.865 21.9683 125.63 21.8988C126.51 21.8524 127.31 21.8292 128.028 21.8292C129.094 21.8292 129.94 21.864 130.565 21.9335C131.214 21.9799 131.921 22.1189 132.686 22.3506C133.52 22.6055 134.192 22.9531 134.702 23.3934C135.235 23.8337 135.686 24.4593 136.057 25.2703C136.405 26.1046 136.579 27.101 136.579 28.2596V33.2301C136.579 34.2728 136.405 35.1881 136.057 35.976C135.733 36.7639 135.304 37.3779 134.771 37.8182C134.308 38.2121 133.67 38.5366 132.859 38.7914C132.072 39.0232 131.295 39.1738 130.531 39.2433C129.835 39.3128 129.001 39.3476 128.028 39.3476ZM128.028 36.1846C128.978 36.1846 129.696 36.115 130.183 35.976C130.67 35.8138 131.006 35.5705 131.191 35.2461C131.4 34.9217 131.504 34.4466 131.504 33.821V27.4601C131.504 26.5332 131.261 25.8844 130.774 25.5137C130.287 25.1429 129.372 24.9575 128.028 24.9575C126.684 24.9575 125.769 25.1429 125.282 25.5137C124.795 25.8844 124.552 26.5332 124.552 27.4601V33.821C124.552 34.4466 124.645 34.9217 124.83 35.2461C125.039 35.5705 125.386 35.8138 125.873 35.976C126.36 36.115 127.078 36.1846 128.028 36.1846ZM151.831 39.3476C150.533 39.3476 149.386 39.2897 148.389 39.1738C147.393 39.0579 146.408 38.861 145.435 38.5829C144.392 38.3048 143.535 37.9341 142.863 37.4706C142.191 36.984 141.646 36.3583 141.229 35.5937C140.812 34.7826 140.604 33.8557 140.604 32.813V23.4281C140.604 22.2927 140.835 21.2731 141.299 20.3694C141.762 19.4425 142.388 18.7126 143.176 18.1796C143.917 17.693 144.798 17.2759 145.817 16.9283C146.86 16.5807 147.88 16.349 148.876 16.2331C149.71 16.1404 150.718 16.0941 151.9 16.0941C155.098 16.0941 158.157 16.3374 161.076 16.824V20.9255C158.388 20.2767 155.33 19.9523 151.9 19.9523C147.984 19.9523 146.026 21.0877 146.026 23.3586V32.4306C146.026 33.5429 146.547 34.3308 147.59 34.7942C148.656 35.2577 150.255 35.4894 152.387 35.4894C153.522 35.4894 154.739 35.3156 156.036 34.968V29.7194H152.352V26.1741H161.215V37.8877C160.057 38.3048 158.574 38.6524 156.766 38.9305C154.982 39.2086 153.337 39.3476 151.831 39.3476ZM173.245 39.3476C171.09 39.3476 168.425 39.139 165.25 38.7219V34.5857C169.189 35.1881 171.877 35.4894 173.314 35.4894C176.327 35.4894 177.833 34.7131 177.833 33.1606V31.7007C177.833 30.9592 177.613 30.3914 177.172 29.9975C176.755 29.6036 175.991 29.4066 174.878 29.4066H172.237C167.278 29.4066 164.798 27.437 164.798 23.4977V21.8292C164.798 19.8596 165.621 18.4113 167.266 17.4844C168.911 16.5575 171.518 16.0941 175.087 16.0941C176.941 16.0941 179.293 16.2447 182.143 16.5459V20.5779C178.644 20.1608 176.234 19.9523 174.913 19.9523C173.082 19.9523 171.854 20.1029 171.229 20.4041C170.557 20.7286 170.221 21.2383 170.221 21.9335V23.5324C170.221 24.7142 171.217 25.3051 173.21 25.3051H175.921C178.493 25.3051 180.359 25.7801 181.517 26.7302C182.676 27.6803 183.255 29.1286 183.255 31.075V32.5697C183.255 35.2577 182.293 37.0767 180.37 38.0268C179.443 38.5134 178.412 38.8494 177.277 39.0348C176.164 39.2433 174.82 39.3476 173.245 39.3476Z" fill="#F8F9FA"/>
<path d="M9.66841 58.4482V46.1958H13.4397C15.363 46.1958 16.8403 46.7172 17.8714 47.76C18.9142 48.7911 19.4356 50.3089 19.4356 52.3133C19.4356 54.3062 18.9142 55.8298 17.8714 56.8841C16.8403 57.9269 15.363 58.4482 13.4397 58.4482H9.66841ZM10.3983 57.7704H13.3702C16.8924 57.7704 18.6535 55.9514 18.6535 52.3133C18.6535 48.6869 16.8924 46.8736 13.3702 46.8736H10.3983V57.7704ZM25.5637 58.5873C24.3124 58.5873 23.3218 58.2049 22.5918 57.4402C21.8735 56.664 21.5143 55.6096 21.5143 54.2772C21.5143 53.3967 21.6765 52.632 22.0009 51.9831C22.3369 51.3227 22.7946 50.8129 23.3739 50.4538C23.9648 50.083 24.6426 49.8976 25.4073 49.8976C26.4964 49.8976 27.3422 50.2568 27.9447 50.9751C28.5471 51.6819 28.8484 52.6667 28.8484 53.9296V54.3815H22.2616C22.2848 55.5053 22.5802 56.3743 23.148 56.9884C23.7157 57.6024 24.5093 57.9095 25.5289 57.9095C26.0503 57.9095 26.5369 57.8284 26.9888 57.6662C27.4522 57.4924 27.9099 57.2085 28.3618 56.8146L28.7093 57.4055C28.3502 57.7647 27.8867 58.0543 27.319 58.2744C26.7513 58.483 26.1662 58.5873 25.5637 58.5873ZM25.3899 50.558C24.4514 50.558 23.7157 50.8593 23.1827 51.4618C22.6613 52.0642 22.3601 52.8231 22.279 53.7384H28.1706C28.1358 52.7536 27.8867 51.9773 27.4233 51.4096C26.9598 50.8419 26.282 50.558 25.3899 50.558ZM33.7917 58.5873C33.1892 58.5873 32.6099 58.4946 32.0538 58.3092C31.4976 58.1122 31.04 57.8342 30.6808 57.475L31.0284 56.8841C31.4455 57.2433 31.8916 57.504 32.3666 57.6662C32.8532 57.8284 33.3456 57.9095 33.8438 57.9095C34.597 57.9095 35.1705 57.7647 35.5644 57.475C35.9699 57.1853 36.1727 56.7914 36.1727 56.2932C36.1727 55.8993 36.0394 55.5922 35.773 55.3721C35.5181 55.1404 35.101 54.955 34.5216 54.816L33.0792 54.4684C32.3492 54.2946 31.8105 54.0281 31.4629 53.6689C31.1269 53.3098 30.9589 52.8463 30.9589 52.2786C30.9589 51.5602 31.2312 50.9867 31.7757 50.558C32.3318 50.1178 33.0676 49.8976 33.9829 49.8976C34.5622 49.8976 35.0952 49.9961 35.5818 50.1931C36.08 50.39 36.4797 50.6681 36.781 51.0273L36.4334 51.6182C35.7614 50.923 34.9387 50.5754 33.9655 50.5754C33.2587 50.5754 32.7084 50.7318 32.3145 51.0447C31.9205 51.3459 31.7236 51.7514 31.7236 52.2612C31.7236 52.6551 31.8452 52.9738 32.0885 53.2171C32.3318 53.4604 32.72 53.6458 33.253 53.7732L34.6954 54.1208C35.4485 54.3062 36.0105 54.5669 36.3812 54.9029C36.752 55.2389 36.9374 55.6907 36.9374 56.2584C36.9374 56.9652 36.6535 57.5329 36.0858 57.9616C35.5181 58.3787 34.7534 58.5873 33.7917 58.5873ZM42.9091 58.5873C41.6577 58.5873 40.6671 58.2049 39.9372 57.4402C39.2189 56.664 38.8597 55.6096 38.8597 54.2772C38.8597 53.3967 39.0219 52.632 39.3463 51.9831C39.6823 51.3227 40.14 50.8129 40.7193 50.4538C41.3102 50.083 41.988 49.8976 42.7526 49.8976C43.8417 49.8976 44.6875 50.2568 45.29 50.9751C45.8925 51.6819 46.1937 52.6667 46.1937 53.9296V54.3815H39.607C39.6302 55.5053 39.9256 56.3743 40.4933 56.9884C41.0611 57.6024 41.8547 57.9095 42.8743 57.9095C43.3957 57.9095 43.8823 57.8284 44.3342 57.6662C44.7976 57.4924 45.2553 57.2085 45.7071 56.8146L46.0547 57.4055C45.6955 57.7647 45.2321 58.0543 44.6644 58.2744C44.0966 58.483 43.5115 58.5873 42.9091 58.5873ZM42.7353 50.558C41.7968 50.558 41.0611 50.8593 40.5281 51.4618C40.0067 52.0642 39.7055 52.8231 39.6244 53.7384H45.516C45.4812 52.7536 45.2321 51.9773 44.7686 51.4096C44.3052 50.8419 43.6274 50.558 42.7353 50.558ZM48.5128 58.4482V50.0367H49.2253V51.6008C49.5034 51.0331 49.9031 50.6102 50.4245 50.3321C50.9575 50.0424 51.5484 49.8976 52.1972 49.8976C54.2016 49.8976 55.2038 50.9636 55.2038 53.0954V58.4482H54.4739V53.1649C54.4739 52.2728 54.2943 51.6182 53.9351 51.2011C53.576 50.784 52.9967 50.5754 52.1972 50.5754C51.3051 50.5754 50.5867 50.8535 50.0422 51.4096C49.5092 51.9542 49.2427 52.6899 49.2427 53.6168V58.4482H48.5128ZM60.5193 58.4482L56.9392 50.0367H57.7734L60.9364 57.6836L64.1168 50.0367H64.9337L61.3535 58.4482H60.5193ZM69.9046 58.5873C69.1399 58.5873 68.4737 58.4077 67.9059 58.0485C67.3498 57.6893 66.9153 57.1853 66.6025 56.5365C66.3012 55.8877 66.1506 55.123 66.1506 54.2424C66.1506 53.3619 66.3012 52.5972 66.6025 51.9484C66.9153 51.2996 67.3498 50.7956 67.9059 50.4364C68.4737 50.0772 69.1399 49.8976 69.9046 49.8976C70.6692 49.8976 71.3297 50.0772 71.8858 50.4364C72.4535 50.7956 72.888 51.2996 73.1892 51.9484C73.5021 52.5972 73.6585 53.3619 73.6585 54.2424C73.6585 55.123 73.5021 55.8877 73.1892 56.5365C72.888 57.1853 72.4535 57.6893 71.8858 58.0485C71.3297 58.4077 70.6692 58.5873 69.9046 58.5873ZM69.9046 57.9095C70.8315 57.9095 71.5614 57.5909 72.0943 56.9536C72.6389 56.3048 72.9112 55.4011 72.9112 54.2424C72.9112 53.0838 72.6389 52.1859 72.0943 51.5487C71.5614 50.8998 70.8315 50.5754 69.9046 50.5754C68.9892 50.5754 68.2593 50.8998 67.7148 51.5487C67.1702 52.1859 66.8979 53.0838 66.8979 54.2424C66.8979 55.4011 67.1702 56.3048 67.7148 56.9536C68.2593 57.5909 68.9892 57.9095 69.9046 57.9095ZM78.3524 58.5873C77.6225 58.5873 77.0547 58.3556 76.6492 57.8921C76.2553 57.4171 76.0583 56.7567 76.0583 55.9109V46.1958H76.7883V55.7892C76.7883 57.2027 77.3328 57.9095 78.4219 57.9095C78.7116 57.9095 78.9838 57.8747 79.2387 57.8052L79.1866 58.483C78.8738 58.5525 78.5957 58.5873 78.3524 58.5873ZM83.1599 58.4482L79.5798 50.0367H80.414L83.577 57.6836L86.7575 50.0367H87.5743L83.9942 58.4482H83.1599ZM89.2411 47.6904V46.5956H90.3533V47.6904H89.2411ZM89.4322 58.4482V50.0367H90.1622V58.4482H89.4322ZM93.1499 58.4482V50.0367H93.8625V51.566C94.1174 51.0215 94.4708 50.6102 94.9226 50.3321C95.3861 50.0424 95.9248 49.8976 96.5389 49.8976C97.8945 49.8976 98.7461 50.4885 99.0936 51.6703C99.337 51.1258 99.7077 50.6971 100.206 50.3842C100.704 50.0598 101.289 49.8976 101.961 49.8976C103.803 49.8976 104.725 50.9636 104.725 53.0954V58.4482H103.995V53.1649C103.995 52.2728 103.832 51.6182 103.508 51.2011C103.195 50.784 102.668 50.5754 101.926 50.5754C101.127 50.5754 100.49 50.8535 100.015 51.4096C99.5397 51.9542 99.3022 52.6899 99.3022 53.6168V58.4482H98.5723V53.1649C98.5723 52.2728 98.4101 51.6182 98.0856 51.2011C97.7728 50.784 97.2456 50.5754 96.5041 50.5754C95.7047 50.5754 95.0674 50.8535 94.5924 51.4096C94.1174 51.9542 93.8799 52.6899 93.8799 53.6168V58.4482H93.1499ZM111.17 58.5873C109.919 58.5873 108.928 58.2049 108.199 57.4402C107.48 56.664 107.121 55.6096 107.121 54.2772C107.121 53.3967 107.283 52.632 107.608 51.9831C107.944 51.3227 108.401 50.8129 108.981 50.4538C109.571 50.083 110.249 49.8976 111.014 49.8976C112.103 49.8976 112.949 50.2568 113.551 50.9751C114.154 51.6819 114.455 52.6667 114.455 53.9296V54.3815H107.868C107.891 55.5053 108.187 56.3743 108.755 56.9884C109.322 57.6024 110.116 57.9095 111.136 57.9095C111.657 57.9095 112.144 57.8284 112.595 57.6662C113.059 57.4924 113.517 57.2085 113.968 56.8146L114.316 57.4055C113.957 57.7647 113.493 58.0543 112.926 58.2744C112.358 58.483 111.773 58.5873 111.17 58.5873ZM110.997 50.558C110.058 50.558 109.322 50.8593 108.789 51.4618C108.268 52.0642 107.967 52.8231 107.886 53.7384H113.777C113.743 52.7536 113.493 51.9773 113.03 51.4096C112.567 50.8419 111.889 50.558 110.997 50.558ZM116.774 58.4482V50.0367H117.487V51.6008C117.765 51.0331 118.164 50.6102 118.686 50.3321C119.219 50.0424 119.81 49.8976 120.459 49.8976C122.463 49.8976 123.465 50.9636 123.465 53.0954V58.4482H122.735V53.1649C122.735 52.2728 122.556 51.6182 122.196 51.2011C121.837 50.784 121.258 50.5754 120.459 50.5754C119.566 50.5754 118.848 50.8535 118.303 51.4096C117.771 51.9542 117.504 52.6899 117.504 53.6168V58.4482H116.774ZM129.335 58.5873C128.454 58.5873 127.794 58.3382 127.353 57.84C126.913 57.3418 126.693 56.6408 126.693 55.7371V50.6623H125.007V50.0367H126.693V47.4124H127.423V50.0367H130.186V50.6623H127.423V55.5807C127.423 56.3338 127.574 56.9131 127.875 57.3186C128.176 57.7125 128.68 57.9095 129.387 57.9095C129.595 57.9095 129.792 57.8863 129.978 57.84C130.175 57.782 130.337 57.7299 130.464 57.6836L130.638 58.2918C130.534 58.3613 130.349 58.4251 130.082 58.483C129.816 58.5525 129.566 58.5873 129.335 58.5873ZM135.06 58.5873C134.295 58.5873 133.629 58.4077 133.061 58.0485C132.505 57.6893 132.071 57.1853 131.758 56.5365C131.457 55.8877 131.306 55.123 131.306 54.2424C131.306 53.3619 131.457 52.5972 131.758 51.9484C132.071 51.2996 132.505 50.7956 133.061 50.4364C133.629 50.0772 134.295 49.8976 135.06 49.8976C135.825 49.8976 136.485 50.0772 137.041 50.4364C137.609 50.7956 138.043 51.2996 138.345 51.9484C138.658 52.5972 138.814 53.3619 138.814 54.2424C138.814 55.123 138.658 55.8877 138.345 56.5365C138.043 57.1853 137.609 57.6893 137.041 58.0485C136.485 58.4077 135.825 58.5873 135.06 58.5873ZM135.06 57.9095C135.987 57.9095 136.717 57.5909 137.25 56.9536C137.794 56.3048 138.067 55.4011 138.067 54.2424C138.067 53.0838 137.794 52.1859 137.25 51.5487C136.717 50.8998 135.987 50.5754 135.06 50.5754C134.145 50.5754 133.415 50.8998 132.87 51.5487C132.326 52.1859 132.053 53.0838 132.053 54.2424C132.053 55.4011 132.326 56.3048 132.87 56.9536C133.415 57.5909 134.145 57.9095 135.06 57.9095ZM148.914 58.4482L144.674 46.1958H145.439L149.279 57.3533L153.138 46.1958H153.815L157.691 57.4055L161.567 46.1958H162.314L158.073 58.4482H157.326L153.485 47.2907L149.627 58.4482H148.914ZM164.64 58.4482V46.1958H172.008V46.8736H165.37V51.8962H171.661V52.574H165.37V57.7704H172.008V58.4482H164.64ZM174.551 58.4482V46.1958H179.035C180.275 46.1958 181.236 46.4739 181.92 47.03C182.604 47.5862 182.945 48.3798 182.945 49.411C182.945 50.0946 182.76 50.6739 182.389 51.1489C182.03 51.624 181.538 51.9716 180.912 52.1917C181.63 52.3539 182.192 52.6899 182.598 53.1997C183.015 53.7095 183.223 54.3525 183.223 55.1288C183.223 56.2179 182.882 57.0463 182.198 57.614C181.515 58.1702 180.535 58.4482 179.261 58.4482H174.551ZM175.281 51.9136H178.983C180.026 51.9136 180.819 51.6993 181.364 51.2706C181.908 50.8303 182.181 50.2047 182.181 49.3936C182.181 48.571 181.908 47.9453 181.364 47.5167C180.819 47.088 180.026 46.8736 178.983 46.8736H175.281V51.9136ZM175.281 57.7704H179.244C180.31 57.7704 181.109 57.5619 181.642 57.1448C182.187 56.7161 182.459 56.0615 182.459 55.1809C182.459 54.2888 182.187 53.6342 181.642 53.2171C181.109 52.8 180.31 52.5914 179.244 52.5914H175.281V57.7704Z" fill="#F8F9FA"/>
<defs>
<filter id="filter0_d_254_245" x="0.396549" y="3.25849" width="49.9655" height="43.4484" filterUnits="userSpaceOnUse" color-interpolation-filters="sRGB">
<feFlood flood-opacity="0" result="BackgroundImageFix"/>
<feColorMatrix in="SourceAlpha" type="matrix" values="0 0 0 0 0 0 0 0 0 0 0 0 0 0 0 0 0 0 127 0" result="hardAlpha"/>
<feOffset/>
<feGaussianBlur stdDeviation="6.51724"/>
<feComposite in2="hardAlpha" operator="out"/>
<feColorMatrix type="matrix" values="0 0 0 0 0.372549 0 0 0 0 0.239216 0 0 0 0 0.768627 0 0 0 0.5 0"/>
<feBlend mode="normal" in2="BackgroundImageFix" result="effect1_dropShadow_254_245"/>
<feBlend mode="normal" in="SourceGraphic" in2="effect1_dropShadow_254_245" result="shape"/>
</filter>
<linearGradient id="paint0_linear_254_245" x1="18.7263" y1="19.5518" x2="24.5496" y2="20.9783" gradientUnits="userSpaceOnUse">
<stop stop-color="#5F3DC4"/>
<stop offset="1" stop-color="#5C7CFA"/>
</linearGradient>
<linearGradient id="paint1_linear_254_245" x1="28.2306" y1="19.5518" x2="34.0539" y2="20.9783" gradientUnits="userSpaceOnUse">
<stop stop-color="#5F3DC4"/>
<stop offset="1" stop-color="#5C7CFA"/>
</linearGradient>
</defs>
</svg>
