<svg width="72" height="427" viewBox="0 0 72 427" fill="none" xmlns="http://www.w3.org/2000/svg">
<rect width="72" height="60" rx="8" fill="url(#paint0_linear_111_906)"/>
<path d="M24.2625 31.5874C23.1417 29.6991 22.7488 27.4666 23.1577 25.3091C23.5666 23.1517 24.7491 21.2177 26.4831 19.8704C28.2171 18.5232 30.3833 17.8554 32.5749 17.9924C34.7665 18.1294 36.8327 19.0618 38.3854 20.6145C39.9381 22.1672 40.8705 24.2334 41.0075 26.425C41.1445 28.6166 40.4767 30.7828 39.1294 32.5168C37.7822 34.2508 35.8482 35.4333 33.6908 35.8422C31.5333 36.2511 29.3008 35.8582 27.4125 34.7374L24.3 35.6249C24.1717 35.661 24.0362 35.6622 23.9073 35.6285C23.7784 35.5948 23.6608 35.5274 23.5667 35.4332C23.4725 35.339 23.405 35.2215 23.3714 35.0926C23.3377 34.9637 23.3389 34.8282 23.375 34.6999L24.2625 31.5874Z" stroke="#F8F9FA" stroke-width="2" stroke-linecap="round" stroke-linejoin="round"/>
<path d="M31.5125 35.9875C31.9531 37.2436 32.6671 38.3861 33.6031 39.3325C34.5391 40.279 35.6736 41.0057 36.9247 41.4602C38.1757 41.9147 39.5122 42.0857 40.8374 41.9607C42.1626 41.8357 43.4435 41.4179 44.5875 40.7375V40.7375L47.7 41.625C47.8283 41.6611 47.9638 41.6623 48.0927 41.6286C48.2216 41.5949 48.3391 41.5275 48.4333 41.4333C48.5275 41.3391 48.5949 41.2216 48.6286 41.0927C48.6623 40.9638 48.6611 40.8283 48.625 40.7L47.7375 37.5875C48.5298 36.2575 48.9652 34.7454 49.0014 33.1977C49.0376 31.6501 48.6734 30.1193 47.9441 28.7537C47.2148 27.3881 46.1451 26.2341 44.8387 25.4035C43.5323 24.5728 42.0335 24.0937 40.4875 24.0125" stroke="#F8F9FA" stroke-width="2" stroke-linecap="round" stroke-linejoin="round"/>
<path d="M36 71.1667V111.167" stroke="#6741D9" stroke-width="2" stroke-linejoin="round" stroke-dasharray="1 4"/>
<rect y="122.333" width="72" height="60" rx="8" fill="url(#paint1_linear_111_906)"/>
<path d="M24 158L36 165L48 158" stroke="#F8F9FA" stroke-width="2" stroke-linecap="round" stroke-linejoin="round"/>
<path d="M24 152L36 159L48 152" stroke="#F8F9FA" stroke-width="2" stroke-linecap="round" stroke-linejoin="round"/>
<path d="M24 146L36 153L48 146L36 139L24 146Z" stroke="#F8F9FA" stroke-width="2" stroke-linecap="round" stroke-linejoin="round"/>
<path d="M36 193.5V233.5" stroke="#6741D9" stroke-width="2" stroke-linejoin="round" stroke-dasharray="1 4"/>
<rect y="244.667" width="72" height="60" rx="8" fill="url(#paint2_linear_111_906)"/>
<path d="M46.2555 285.253C48.4034 283.105 45.5541 276.773 39.8915 271.111C34.2289 265.448 27.8973 262.599 25.7494 264.747C23.6015 266.895 26.4507 273.226 32.1133 278.889C37.7759 284.552 44.1076 287.401 46.2555 285.253Z" stroke="#F8F9FA" stroke-width="2" stroke-linecap="round" stroke-linejoin="round"/>
<path d="M39.8915 278.889C45.5541 273.227 48.4034 266.895 46.2555 264.747C44.1076 262.599 37.7759 265.448 32.1133 271.111C26.4507 276.774 23.6015 283.105 25.7494 285.253C27.8973 287.401 34.2289 284.552 39.8915 278.889Z" stroke="#F8F9FA" stroke-width="2" stroke-linecap="round" stroke-linejoin="round"/>
<path d="M36 276.5C36.8284 276.5 37.5 275.828 37.5 275C37.5 274.172 36.8284 273.5 36 273.5C35.1716 273.5 34.5 274.172 34.5 275C34.5 275.828 35.1716 276.5 36 276.5Z" fill="#F8F9FA"/>
<path d="M36 315.833V355.833" stroke="#6741D9" stroke-width="2" stroke-linejoin="round" stroke-dasharray="1 4"/>
<rect y="367" width="72" height="60" rx="8" fill="url(#paint3_linear_111_906)"/>
<path d="M31.5413 404.132C30.1163 408.37 24.4663 408.37 24.4663 408.37C24.4663 408.37 24.4663 402.72 28.7038 401.295" stroke="#F8F9FA" stroke-width="2" stroke-linecap="round" stroke-linejoin="round"/>
<path d="M44.2663 394.232L35.7788 402.72L30.1163 397.057L38.6038 388.57C41.8163 385.357 45.0288 385.395 46.4038 385.595C46.616 385.623 46.813 385.72 46.9643 385.872C47.1157 386.023 47.213 386.22 47.2413 386.432C47.4413 387.807 47.4788 391.02 44.2663 394.232Z" stroke="#F8F9FA" stroke-width="2" stroke-linecap="round" stroke-linejoin="round"/>
<path d="M42.8538 395.645V403.72C42.8501 403.983 42.7422 404.235 42.5538 404.42L38.5163 408.47C38.3882 408.598 38.2278 408.688 38.0522 408.732C37.8765 408.776 37.6922 408.772 37.519 408.719C37.3458 408.666 37.1901 408.568 37.0685 408.434C36.947 408.299 36.8641 408.135 36.8288 407.957L35.7788 402.72" stroke="#F8F9FA" stroke-width="2" stroke-linecap="round" stroke-linejoin="round"/>
<path d="M37.1913 389.982H29.1163C28.8526 389.986 28.601 390.094 28.4163 390.282L24.3663 394.32C24.2384 394.448 24.1476 394.608 24.1037 394.784C24.0598 394.959 24.0644 395.144 24.117 395.317C24.1696 395.49 24.2683 395.646 24.4024 395.767C24.5366 395.889 24.7013 395.972 24.8788 396.007L30.1163 397.057" stroke="#F8F9FA" stroke-width="2" stroke-linecap="round" stroke-linejoin="round"/>
<defs>
<linearGradient id="paint0_linear_111_906" x1="0" y1="0" x2="78.4703" y2="49.8059" gradientUnits="userSpaceOnUse">
<stop stop-color="#845EF7"/>
<stop offset="1" stop-color="#364FC7"/>
</linearGradient>
<linearGradient id="paint1_linear_111_906" x1="0" y1="122.333" x2="78.4703" y2="172.139" gradientUnits="userSpaceOnUse">
<stop stop-color="#845EF7"/>
<stop offset="1" stop-color="#364FC7"/>
</linearGradient>
<linearGradient id="paint2_linear_111_906" x1="0" y1="244.667" x2="78.4703" y2="294.473" gradientUnits="userSpaceOnUse">
<stop stop-color="#845EF7"/>
<stop offset="1" stop-color="#364FC7"/>
</linearGradient>
<linearGradient id="paint3_linear_111_906" x1="0" y1="367" x2="78.4703" y2="416.806" gradientUnits="userSpaceOnUse">
<stop stop-color="#845EF7"/>
<stop offset="1" stop-color="#364FC7"/>
</linearGradient>
</defs>
</svg>
