<svg width="72" height="61" viewBox="0 0 72 61" fill="none" xmlns="http://www.w3.org/2000/svg">
<rect y="0.666626" width="72" height="60" rx="8" fill="url(#paint0_linear_111_920)"/>
<path d="M46.2555 41.253C48.4034 39.1051 45.5541 32.7735 39.8915 27.1109C34.2289 21.4483 27.8973 18.599 25.7494 20.7469C23.6015 22.8948 26.4507 29.2264 32.1133 34.889C37.7759 40.5516 44.1076 43.4009 46.2555 41.253Z" stroke="#F8F9FA" stroke-width="2" stroke-linecap="round" stroke-linejoin="round"/>
<path d="M39.8915 34.8891C45.5541 29.2265 48.4034 22.8949 46.2555 20.747C44.1076 18.5991 37.7759 21.4484 32.1133 27.111C26.4507 32.7736 23.6015 39.1052 25.7494 41.2531C27.8973 43.401 34.2289 40.5517 39.8915 34.8891Z" stroke="#F8F9FA" stroke-width="2" stroke-linecap="round" stroke-linejoin="round"/>
<path d="M36 32.5C36.8284 32.5 37.5 31.8284 37.5 31C37.5 30.1716 36.8284 29.5 36 29.5C35.1716 29.5 34.5 30.1716 34.5 31C34.5 31.8284 35.1716 32.5 36 32.5Z" fill="#F8F9FA"/>
<defs>
<linearGradient id="paint0_linear_111_920" x1="0" y1="0.666626" x2="78.4703" y2="50.4726" gradientUnits="userSpaceOnUse">
<stop stop-color="#845EF7"/>
<stop offset="1" stop-color="#364FC7"/>
</linearGradient>
</defs>
</svg>
