<svg width="45" height="45" viewBox="0 0 45 45" fill="none" xmlns="http://www.w3.org/2000/svg">
<circle cx="22.5" cy="22.5" r="22.5" fill="url(#paint0_linear_111_758)"/>
<path opacity="0.2" d="M32.425 21.925L29 15H15L11.575 21.925C11.4956 22.09 11.4618 22.2732 11.4772 22.4557C11.4926 22.6381 11.5566 22.8131 11.6625 22.9625L22 37L32.3375 22.9625C32.4434 22.8131 32.5074 22.6381 32.5228 22.4557C32.5382 22.2732 32.5044 22.09 32.425 21.925ZM22 25C21.5055 25 21.0222 24.8534 20.6111 24.5787C20.1999 24.304 19.8795 23.9135 19.6903 23.4567C19.5011 22.9999 19.4516 22.4972 19.548 22.0123C19.6445 21.5273 19.8826 21.0819 20.2322 20.7322C20.5819 20.3826 21.0273 20.1445 21.5123 20.048C21.9972 19.9516 22.4999 20.0011 22.9567 20.1903C23.4135 20.3795 23.804 20.7 24.0787 21.1111C24.3534 21.5222 24.5 22.0055 24.5 22.5C24.4967 23.162 24.2323 23.796 23.7641 24.2641C23.296 24.7323 22.662 24.9967 22 25Z" fill="white"/>
<path d="M22 25V37" stroke="white" stroke-width="2" stroke-linecap="round" stroke-linejoin="round"/>
<path d="M22 25C23.3807 25 24.5 23.8807 24.5 22.5C24.5 21.1193 23.3807 20 22 20C20.6193 20 19.5 21.1193 19.5 22.5C19.5 23.8807 20.6193 25 22 25Z" stroke="white" stroke-width="2" stroke-linecap="round" stroke-linejoin="round"/>
<path d="M15 15V10C15 9.73478 15.1054 9.48043 15.2929 9.29289C15.4804 9.10536 15.7348 9 16 9H28C28.2652 9 28.5196 9.10536 28.7071 9.29289C28.8946 9.48043 29 9.73478 29 10V15" stroke="white" stroke-width="2" stroke-linecap="round" stroke-linejoin="round"/>
<path d="M15 15L11.575 21.925C11.4956 22.09 11.4618 22.2732 11.4772 22.4557C11.4926 22.6381 11.5566 22.8131 11.6625 22.9625L22 37L32.3375 22.9625C32.4434 22.8131 32.5074 22.6381 32.5228 22.4557C32.5382 22.2732 32.5044 22.09 32.425 21.925L29 15H15Z" stroke="white" stroke-width="2" stroke-linecap="round" stroke-linejoin="round"/>
<defs>
<linearGradient id="paint0_linear_111_758" x1="0" y1="0" x2="53.7613" y2="28.4357" gradientUnits="userSpaceOnUse">
<stop stop-color="#845EF7"/>
<stop offset="1" stop-color="#364FC7"/>
</linearGradient>
</defs>
</svg>
