<svg width="8" height="62" viewBox="0 0 8 62" fill="none" xmlns="http://www.w3.org/2000/svg">
<path d="M0 4C0 6.20914 1.79086 8 4 8C6.20914 8 8 6.20914 8 4C8 1.79086 6.20914 0 4 0C1.79086 0 0 1.79086 0 4ZM3.25 61C3.25 61.4142 3.58579 61.75 4 61.75C4.41421 61.75 4.75 61.4142 4.75 61H3.25ZM3.25 5.52679C3.25 5.941 3.58579 6.27679 4 6.27679C4.41421 6.27679 4.75 5.941 4.75 5.52679H3.25ZM4.75 9.59821C4.75 9.184 4.41421 8.84821 4 8.84821C3.58579 8.84821 3.25 9.184 3.25 9.59821H4.75ZM3.25 12.6518C3.25 13.066 3.58579 13.4018 4 13.4018C4.41421 13.4018 4.75 13.066 4.75 12.6518H3.25ZM4.75 16.7232C4.75 16.309 4.41421 15.9732 4 15.9732C3.58579 15.9732 3.25 16.309 3.25 16.7232H4.75ZM3.25 19.7768C3.25 20.191 3.58579 20.5268 4 20.5268C4.41421 20.5268 4.75 20.191 4.75 19.7768H3.25ZM4.75 23.8482C4.75 23.434 4.41421 23.0982 4 23.0982C3.58579 23.0982 3.25 23.434 3.25 23.8482H4.75ZM3.25 26.9018C3.25 27.316 3.58579 27.6518 4 27.6518C4.41421 27.6518 4.75 27.316 4.75 26.9018H3.25ZM4.75 30.9732C4.75 30.559 4.41421 30.2232 4 30.2232C3.58579 30.2232 3.25 30.559 3.25 30.9732H4.75ZM3.25 34.0268C3.25 34.441 3.58579 34.7768 4 34.7768C4.41421 34.7768 4.75 34.441 4.75 34.0268H3.25ZM4.75 38.0982C4.75 37.684 4.41421 37.3482 4 37.3482C3.58579 37.3482 3.25 37.684 3.25 38.0982H4.75ZM3.25 41.1518C3.25 41.566 3.58579 41.9018 4 41.9018C4.41421 41.9018 4.75 41.566 4.75 41.1518H3.25ZM4.75 45.2232C4.75 44.809 4.41421 44.4732 4 44.4732C3.58579 44.4732 3.25 44.809 3.25 45.2232H4.75ZM3.25 48.2768C3.25 48.691 3.58579 49.0268 4 49.0268C4.41421 49.0268 4.75 48.691 4.75 48.2768H3.25ZM4.75 52.3482C4.75 51.934 4.41421 51.5982 4 51.5982C3.58579 51.5982 3.25 51.934 3.25 52.3482H4.75ZM3.25 55.4018C3.25 55.816 3.58579 56.1518 4 56.1518C4.41421 56.1518 4.75 55.816 4.75 55.4018H3.25ZM4.75 59.4732C4.75 59.059 4.41421 58.7232 4 58.7232C3.58579 58.7232 3.25 59.059 3.25 59.4732H4.75ZM3.25 4V5.52679H4.75V4H3.25ZM3.25 9.59821V12.6518H4.75V9.59821H3.25ZM3.25 16.7232V19.7768H4.75V16.7232H3.25ZM3.25 23.8482V26.9018H4.75V23.8482H3.25ZM3.25 30.9732V34.0268H4.75V30.9732H3.25ZM3.25 38.0982V41.1518H4.75V38.0982H3.25ZM3.25 45.2232V48.2768H4.75V45.2232H3.25ZM3.25 52.3482V55.4018H4.75V52.3482H3.25ZM3.25 59.4732V61H4.75V59.4732H3.25Z" fill="url(#paint0_linear_426_265)"/>
<defs>
<linearGradient id="paint0_linear_426_265" x1="4" y1="4" x2="5.52879" y2="4.01419" gradientUnits="userSpaceOnUse">
<stop stop-color="#845EF7"/>
<stop offset="1" stop-color="#364FC7"/>
</linearGradient>
</defs>
</svg>
