<svg width="8" height="62" viewBox="0 0 8 62" fill="none" xmlns="http://www.w3.org/2000/svg">
<path d="M4.75 1C4.75 0.585786 4.41421 0.25 4 0.25C3.58579 0.25 3.25 0.585786 3.25 1H4.75ZM0 58C0 60.2091 1.79086 62 4 62C6.20914 62 8 60.2091 8 58C8 55.7909 6.20914 54 4 54C1.79086 54 0 55.7909 0 58ZM3.25 2.52679C3.25 2.941 3.58579 3.27679 4 3.27679C4.41421 3.27679 4.75 2.941 4.75 2.52679H3.25ZM4.75 6.59821C4.75 6.184 4.41421 5.84821 4 5.84821C3.58579 5.84821 3.25 6.184 3.25 6.59821H4.75ZM3.25 9.65179C3.25 10.066 3.58579 10.4018 4 10.4018C4.41421 10.4018 4.75 10.066 4.75 9.65179H3.25ZM4.75 13.7232C4.75 13.309 4.41421 12.9732 4 12.9732C3.58579 12.9732 3.25 13.309 3.25 13.7232H4.75ZM3.25 16.7768C3.25 17.191 3.58579 17.5268 4 17.5268C4.41421 17.5268 4.75 17.191 4.75 16.7768H3.25ZM4.75 20.8482C4.75 20.434 4.41421 20.0982 4 20.0982C3.58579 20.0982 3.25 20.434 3.25 20.8482H4.75ZM3.25 23.9018C3.25 24.316 3.58579 24.6518 4 24.6518C4.41421 24.6518 4.75 24.316 4.75 23.9018H3.25ZM4.75 27.9732C4.75 27.559 4.41421 27.2232 4 27.2232C3.58579 27.2232 3.25 27.559 3.25 27.9732H4.75ZM3.25 31.0268C3.25 31.441 3.58579 31.7768 4 31.7768C4.41421 31.7768 4.75 31.441 4.75 31.0268H3.25ZM4.75 35.0982C4.75 34.684 4.41421 34.3482 4 34.3482C3.58579 34.3482 3.25 34.684 3.25 35.0982H4.75ZM3.25 38.1518C3.25 38.566 3.58579 38.9018 4 38.9018C4.41421 38.9018 4.75 38.566 4.75 38.1518H3.25ZM4.75 42.2232C4.75 41.809 4.41421 41.4732 4 41.4732C3.58579 41.4732 3.25 41.809 3.25 42.2232H4.75ZM3.25 45.2768C3.25 45.691 3.58579 46.0268 4 46.0268C4.41421 46.0268 4.75 45.691 4.75 45.2768H3.25ZM4.75 49.3482C4.75 48.934 4.41421 48.5982 4 48.5982C3.58579 48.5982 3.25 48.934 3.25 49.3482H4.75ZM3.25 52.4018C3.25 52.816 3.58579 53.1518 4 53.1518C4.41421 53.1518 4.75 52.816 4.75 52.4018H3.25ZM4.75 56.4732C4.75 56.059 4.41421 55.7232 4 55.7232C3.58579 55.7232 3.25 56.059 3.25 56.4732H4.75ZM3.25 1V2.52679H4.75V1H3.25ZM3.25 6.59821V9.65179H4.75V6.59821H3.25ZM3.25 13.7232V16.7768H4.75V13.7232H3.25ZM3.25 20.8482V23.9018H4.75V20.8482H3.25ZM3.25 27.9732V31.0268H4.75V27.9732H3.25ZM3.25 35.0982V38.1518H4.75V35.0982H3.25ZM3.25 42.2232V45.2768H4.75V42.2232H3.25ZM3.25 49.3482V52.4018H4.75V49.3482H3.25ZM3.25 56.4732V58H4.75V56.4732H3.25Z" fill="url(#paint0_linear_426_255)"/>
<defs>
<linearGradient id="paint0_linear_426_255" x1="4" y1="1" x2="5.52879" y2="1.01419" gradientUnits="userSpaceOnUse">
<stop stop-color="#845EF7"/>
<stop offset="1" stop-color="#364FC7"/>
</linearGradient>
</defs>
</svg>
